<svg width="241" height="123" viewBox="0 0 241 123" fill="none" xmlns="http://www.w3.org/2000/svg">
<g clip-path="url(#clip0_134_5891)">
<path d="M65.7213 80.5049H20.8618V102.724H65.7213V80.5049Z" fill="#2A3655"/>
<g style="mix-blend-mode:multiply">
<path d="M65.7213 80.5049H20.8618V102.724H65.7213V80.5049Z" fill="#2A3655"/>
</g>
<path d="M229.285 82.4164H184.426V107.016H229.285V82.4164Z" fill="#2A3655"/>
<g style="mix-blend-mode:multiply">
<path d="M229.285 82.4164H184.426V107.016H229.285V82.4164Z" fill="#2A3655"/>
</g>
<path d="M45.2671 122.275C54.3994 122.275 61.8027 114.872 61.8027 105.74C61.8027 96.6075 54.3994 89.2042 45.2671 89.2042C36.1347 89.2042 28.7314 96.6075 28.7314 105.74C28.7314 114.872 36.1347 122.275 45.2671 122.275Z" fill="#2A3655"/>
<path style="mix-blend-mode:multiply" d="M45.2671 122.275C54.3994 122.275 61.8027 114.872 61.8027 105.74C61.8027 96.6075 54.3994 89.2042 45.2671 89.2042C36.1347 89.2042 28.7314 96.6075 28.7314 105.74C28.7314 114.872 36.1347 122.275 45.2671 122.275Z" fill="url(#paint0_linear_134_5891)"/>
<path d="M45.2672 115.388C50.596 115.388 54.9158 111.068 54.9158 105.74C54.9158 100.411 50.596 96.0911 45.2672 96.0911C39.9385 96.0911 35.6187 100.411 35.6187 105.74C35.6187 111.068 39.9385 115.388 45.2672 115.388Z" fill="#BBCCE0"/>
<path style="mix-blend-mode:multiply" d="M45.2672 115.388C50.596 115.388 54.9158 111.068 54.9158 105.74C54.9158 100.411 50.596 96.0911 45.2672 96.0911C39.9385 96.0911 35.6187 100.411 35.6187 105.74C35.6187 111.068 39.9385 115.388 45.2672 115.388Z" fill="url(#paint1_linear_134_5891)"/>
<path d="M45.2671 110.259C47.7635 110.259 49.7872 108.236 49.7872 105.739C49.7872 103.243 47.7635 101.219 45.2671 101.219C42.7708 101.219 40.7471 103.243 40.7471 105.739C40.7471 108.236 42.7708 110.259 45.2671 110.259Z" fill="#808080"/>
<path style="mix-blend-mode:multiply" d="M45.2671 110.259C47.7635 110.259 49.7872 108.236 49.7872 105.739C49.7872 103.243 47.7635 101.219 45.2671 101.219C42.7708 101.219 40.7471 103.243 40.7471 105.739C40.7471 108.236 42.7708 110.259 45.2671 110.259Z" fill="url(#paint2_linear_134_5891)"/>
<path d="M206.859 122.275C215.991 122.275 223.394 114.872 223.394 105.74C223.394 96.6075 215.991 89.2042 206.859 89.2042C197.726 89.2042 190.323 96.6075 190.323 105.74C190.323 114.872 197.726 122.275 206.859 122.275Z" fill="#2A3655"/>
<path style="mix-blend-mode:multiply" d="M206.859 122.275C215.991 122.275 223.394 114.872 223.394 105.74C223.394 96.6075 215.991 89.2042 206.859 89.2042C197.726 89.2042 190.323 96.6075 190.323 105.74C190.323 114.872 197.726 122.275 206.859 122.275Z" fill="url(#paint3_linear_134_5891)"/>
<path d="M206.859 115.388C212.187 115.388 216.507 111.068 216.507 105.74C216.507 100.411 212.187 96.0911 206.859 96.0911C201.53 96.0911 197.21 100.411 197.21 105.74C197.21 111.068 201.53 115.388 206.859 115.388Z" fill="#BBCCE0"/>
<path style="mix-blend-mode:multiply" d="M206.859 115.388C212.187 115.388 216.507 111.068 216.507 105.74C216.507 100.411 212.187 96.0911 206.859 96.0911C201.53 96.0911 197.21 100.411 197.21 105.74C197.21 111.068 201.53 115.388 206.859 115.388Z" fill="url(#paint4_linear_134_5891)"/>
<path d="M206.859 110.259C209.355 110.259 211.379 108.236 211.379 105.739C211.379 103.243 209.355 101.219 206.859 101.219C204.363 101.219 202.339 103.243 202.339 105.739C202.339 108.236 204.363 110.259 206.859 110.259Z" fill="#808080"/>
<path style="mix-blend-mode:multiply" d="M206.859 110.259C209.355 110.259 211.379 108.236 211.379 105.739C211.379 103.243 209.355 101.219 206.859 101.219C204.363 101.219 202.339 103.243 202.339 105.739C202.339 108.236 204.363 110.259 206.859 110.259Z" fill="url(#paint5_linear_134_5891)"/>
<path d="M241 90.1935C241 96.4988 239.763 100.524 238.646 102.804C237.53 105.078 234.989 105.94 233.458 106.348C231.926 106.756 226.999 107.879 225.434 107.284C223.869 106.689 224.538 104.075 224.578 101.614C224.611 99.1534 224.725 95.7767 222.612 91.5508C221.736 89.799 220.486 88.2477 218.533 87.0575C215.765 85.3726 211.573 84.4164 205.027 84.6839C193.854 85.1385 192.095 89.7121 191.266 91.7448C190.437 93.7841 187.823 103.346 187.107 105.552C186.392 107.759 184.988 107.618 184.988 107.618H65.2932C64.3438 107.618 63.5614 106.876 63.5013 105.933C63.1134 99.8554 61.6758 96.0107 58.9611 90.909C56.0057 85.3458 46.5711 84.9914 38.193 86.1215C36.7554 86.3154 35.4783 86.9104 34.3617 87.7663C28.9724 91.8785 27.1069 102.008 26.8595 102.456C26.5653 102.998 24.9672 103.593 21.5504 103.192C18.1336 102.791 4.52669 102.222 2.59431 100.685C0.655233 99.1467 0.601741 90.0999 0.601741 85.5999C0.601741 81.0999 1.09654 80.1638 1.10991 80.1371C1.10991 80.1371 1.10991 80.1237 1.09654 80.0903C1.09654 80.0903 1.09654 80.0769 1.09654 80.0702C1.08317 80.01 1.06311 79.8964 1.02967 79.7359C1.02967 79.7091 1.02299 79.6824 1.0163 79.6556C1.00293 79.5821 0.989556 79.5019 0.976183 79.4082C0.969497 79.3614 0.96281 79.3146 0.956124 79.2678C0.942751 79.1809 0.929378 79.0806 0.909318 78.9736C0.909318 78.9335 0.895946 78.8934 0.889259 78.8533C0.875886 78.7463 0.855827 78.6326 0.842454 78.5123C0.842454 78.4655 0.829081 78.4186 0.822395 78.3652C0.822395 78.3384 0.815708 78.305 0.809022 78.2782C0.809022 78.2448 0.802335 78.2181 0.795649 78.1846C0.748843 77.8302 0.702038 77.4224 0.655233 76.961C0.635174 76.7738 0.615114 76.5799 0.595055 76.3726C0.595055 76.3258 0.588368 76.2857 0.581682 76.2389C0.541563 75.8042 0.501445 75.3228 0.461326 74.8013C0.447953 74.6341 0.43458 74.4669 0.421207 74.2931C0.401148 73.9989 0.381088 73.698 0.361029 73.3837C0.34097 73.0427 0.314224 72.6884 0.294164 72.3206C0.294164 72.2738 0.294164 72.2337 0.287478 72.1869C0.280791 72.0531 0.274105 71.9194 0.267418 71.7857C0.267418 71.7523 0.267418 71.7121 0.267418 71.6787C0.267418 71.565 0.254046 71.4447 0.247359 71.3243C0.240673 71.1772 0.233986 71.0234 0.2273 70.8696C0.2273 70.7693 0.220613 70.669 0.213927 70.5687C0.200554 70.3347 0.193867 70.1007 0.180495 69.86C0.180495 69.7196 0.167122 69.5791 0.167122 69.432C0.167122 69.2649 0.153749 69.0977 0.147062 68.9239C0.147062 68.7634 0.133689 68.5962 0.127003 68.4291C0.106943 67.8942 0.0935706 67.3392 0.0801977 66.7575C0.0801977 66.6906 0.0801977 66.617 0.0801977 66.5502C0.0801977 66.4833 0.0801977 66.4231 0.0801977 66.3563C0.0801977 66.1022 0.0668247 65.8481 0.0668247 65.5873C0.0534518 64.9855 0.0467654 64.3637 0.0333924 63.7151C0.0333924 63.3073 0.026706 62.8994 0.0200195 62.4781C0.0200195 62.4246 0.0200195 62.3711 0.0200195 62.3177C0.0200195 62.1304 0.0200195 61.9432 0.0200195 61.756C0.0200195 61.1676 0.0200195 60.5591 0.0200195 59.9306C0.0200195 59.1951 0.0200195 58.4529 0.026706 57.704C0.026706 57.5168 0.026706 57.3229 0.026706 57.1357C0.026706 57.0019 0.026706 56.8682 0.026706 56.7278C0.026706 56.1862 0.0400789 55.6379 0.0534518 55.0896C0.0534518 54.9024 0.0534518 54.7085 0.0668247 54.5146C0.0668247 54.3207 0.0735112 54.1267 0.0801977 53.9328C0.0801977 53.7523 0.0868841 53.5718 0.0935706 53.3912C0.0935706 53.1171 0.106943 52.8429 0.11363 52.5688C0.127003 51.9938 0.147062 51.412 0.160435 50.8303C0.167122 50.5428 0.180495 50.2486 0.187181 49.9544C0.200554 49.6602 0.20724 49.3727 0.220613 49.0785C0.233986 48.7843 0.240673 48.4967 0.254046 48.2025C0.267418 47.9083 0.280791 47.6141 0.294164 47.3199C0.307537 46.999 0.32091 46.6847 0.34097 46.3638C0.354342 46.1565 0.361029 45.9492 0.374402 45.7419C0.381088 45.5614 0.394461 45.3809 0.401148 45.207C0.414521 44.993 0.421207 44.7791 0.43458 44.5651C0.447953 44.3712 0.454639 44.1773 0.468012 43.9834C0.481385 43.7761 0.494758 43.5755 0.501445 43.3682C0.514817 43.1141 0.534877 42.8601 0.54825 42.5993C0.561623 42.3452 0.581682 42.0911 0.595055 41.837C0.608428 41.5829 0.628487 41.3289 0.648547 41.0748C0.668606 40.8207 0.681979 40.5666 0.702038 40.3125C0.768903 39.3697 0.842454 38.4269 0.922691 37.4975L0.98287 36.8021C1.00962 36.4745 1.04305 36.1469 1.06979 35.8259C1.08985 35.5718 1.1166 35.3177 1.14334 35.0703C1.17009 34.7962 1.19684 34.522 1.22358 34.2479C1.25033 34.0139 1.27039 33.7865 1.29713 33.5525C1.37737 32.7702 1.47098 31.9946 1.5579 31.2256C1.57796 31.0518 1.59802 30.8846 1.61808 30.7108C1.64483 30.4901 1.67157 30.2761 1.69832 30.0555C1.71838 29.875 1.74513 29.6944 1.77187 29.5139C1.8053 29.2732 1.83205 29.0392 1.86548 28.8051C1.88554 28.6447 1.9056 28.4909 1.93235 28.3371C1.97915 28.0228 2.01927 27.7152 2.06608 27.4077L2.11957 27.0666C2.27336 26.0837 2.42714 25.1343 2.59431 24.2115C2.62105 24.0577 2.6478 23.904 2.68123 23.7569C2.74141 23.4359 2.80159 23.1216 2.86176 22.8141C2.87514 22.7539 2.88851 22.6937 2.8952 22.6402C2.91526 22.5332 2.942 22.4262 2.96206 22.3193C2.98881 22.1788 3.02224 22.0317 3.04898 21.8913C3.20277 21.1826 3.35656 20.5005 3.51704 19.8453C3.54378 19.7517 3.56384 19.6581 3.59059 19.5644C3.63739 19.3772 3.6842 19.1967 3.731 19.0162C3.75775 18.9092 3.79118 18.7955 3.81793 18.6885C3.83799 18.6217 3.85805 18.5481 3.87811 18.4812C3.9784 18.1202 4.08539 17.7658 4.18568 17.4248C4.20574 17.3512 4.23249 17.2777 4.25255 17.2041C4.36622 16.8364 4.48657 16.4887 4.60693 16.1477C4.62699 16.0875 4.64705 16.034 4.66711 15.9738C4.77409 15.6863 4.88107 15.4055 4.98806 15.138C8.63886 6.07786 16.0073 7.27473 16.0073 7.27473C16.0073 7.27473 148.252 6.71976 153.722 7.27473C159.184 7.82971 168.773 14.3022 179.144 22.6603C189.514 31.025 202.78 43.8497 210.256 51.5391C212.964 54.3273 214.996 55.912 216.768 57.0955C219.891 59.1817 222.211 60.0041 225.982 63.9157C229.653 67.7203 231.478 71.3912 232.328 73.6311C232.849 74.9952 233.01 75.8243 233.01 75.8243C234.227 75.7641 235.671 76.5197 237.871 78.8332C240.071 81.1467 240.993 83.9216 240.993 90.2269L241 90.1935Z" fill="white"/>
<g style="mix-blend-mode:multiply">
<path d="M237.871 78.8058C235.677 76.4923 234.233 75.7367 233.016 75.7969C233.016 75.7969 232.856 74.9678 232.334 73.6037C231.478 71.3704 229.653 67.6996 225.982 63.8883C224.096 61.9359 222.579 60.7457 221.141 59.7962C219.697 58.84 218.333 58.1112 216.775 57.0681C214.996 55.8846 212.97 54.2999 210.262 51.5117C202.793 43.8222 189.521 30.9976 179.15 22.6328C168.779 14.2681 159.191 7.80229 153.728 7.24731C150.358 6.89961 98.7254 6.97985 59.6631 7.09352C57.3362 7.09352 55.0561 7.10689 52.8362 7.11358C51.8533 7.12027 50.8838 7.12027 49.9209 7.12027C47.5673 7.12695 45.2872 7.14033 43.094 7.14701C42.5658 7.14701 42.0443 7.14701 41.5227 7.1537C39.1156 7.16038 36.8422 7.16707 34.6958 7.18044C33.8065 7.18044 32.9373 7.18044 32.0948 7.18713C29.5673 7.19382 27.2806 7.2005 25.2746 7.21388H25.2679C19.4641 7.23394 16.0206 7.24731 16.0206 7.24731C16.0206 7.24731 8.65877 6.05043 5.00797 15.1106C4.8943 15.378 4.78731 15.6589 4.68702 15.9464C4.66696 16.0066 4.6469 16.0601 4.62015 16.1202C4.4998 16.4612 4.38613 16.8156 4.26577 17.1767C4.24571 17.2503 4.21897 17.3238 4.19891 17.404C4.09192 17.745 3.99163 18.0994 3.89133 18.4605C3.87127 18.5274 3.85121 18.5942 3.83115 18.6678C3.79772 18.7748 3.77097 18.8817 3.74423 18.9954C3.69074 19.1759 3.64393 19.3565 3.59713 19.5437C3.57707 19.6373 3.55032 19.7309 3.53026 19.8245C3.3631 20.4798 3.20931 21.1618 3.05552 21.8706C3.02878 22.011 2.99534 22.1514 2.9686 22.2918C2.94854 22.3988 2.92179 22.5058 2.90173 22.6128C2.88836 22.673 2.88167 22.7331 2.8683 22.7866C2.80144 23.1009 2.74126 23.4152 2.68108 23.7361C2.65433 23.8832 2.62759 24.037 2.60084 24.1908C2.43368 25.1135 2.27321 26.0697 2.11942 27.0526L2.07261 27.3936C2.02581 27.7012 1.979 28.0088 1.9322 28.323C1.91214 28.4768 1.89208 28.6373 1.86533 28.7911C1.83859 29.0251 1.80515 29.2658 1.77172 29.5065C1.74498 29.6804 1.72492 29.8609 1.69817 30.0481C1.67143 30.2621 1.64468 30.4761 1.61793 30.6967C1.59787 30.8706 1.57781 31.0377 1.55776 31.2116C1.46414 31.9805 1.37722 32.7561 1.2903 33.5385C1.27024 33.7658 1.24349 33.9998 1.21675 34.2339C1.19 34.5013 1.16325 34.7821 1.13651 35.0563C1.10976 35.3037 1.0897 35.5578 1.06296 35.8119C1.03621 36.1395 1.00278 36.4604 0.976034 36.7881C0.955974 37.0221 0.935915 37.2561 0.915855 37.4902C0.835618 38.4196 0.762067 39.3557 0.695202 40.2985C0.675143 40.5526 0.66177 40.8066 0.641711 41.0607C0.621651 41.3148 0.608278 41.5756 0.588219 41.8297C0.574846 42.0838 0.554787 42.3378 0.541414 42.5919C0.521354 42.846 0.507981 43.1068 0.494609 43.3609C0.481236 43.5615 0.467863 43.7687 0.461176 43.976C0.447803 44.1699 0.43443 44.3638 0.427744 44.5577C0.414371 44.7717 0.400998 44.9857 0.394312 45.1996C0.380939 45.3802 0.374252 45.554 0.360879 45.7346C0.354193 45.9418 0.34082 46.1491 0.334134 46.3564C0.320761 46.6774 0.300701 46.9983 0.287328 47.3126C0.273955 47.6068 0.260583 47.901 0.253896 48.1952C0.240523 48.4827 0.22715 48.7769 0.213777 49.0711C0.207091 49.3653 0.193718 49.6528 0.187031 49.947C0.173659 50.2412 0.166972 50.5287 0.153599 50.823C0.140226 51.4047 0.120167 51.9797 0.106794 52.5614C0.100108 52.8356 0.0934211 53.1097 0.0867346 53.3839C0.0800482 53.5644 0.0800482 53.7449 0.0733617 53.9255C0.0666753 54.1194 0.0666753 54.3133 0.0599888 54.5072C0.0599888 54.7011 0.0599888 54.8883 0.0599888 55.0822C0.0466159 55.6305 0.0399294 56.1721 0.033243 56.7137V57.1216C0.0265565 57.3155 0.0265565 57.5027 0.0265565 57.6899C0.0265565 58.4388 0.0131836 59.181 0.0131836 59.9165C0.0131836 60.5384 0.0198701 61.1535 0.0198701 61.7419C0.0198701 61.9292 0.0198701 62.1164 0.0198701 62.3036V62.4641C0.0265565 62.8853 0.0265565 63.2999 0.033243 63.7078C0.0399294 64.3497 0.0533023 64.9715 0.0599888 65.5733C0.0666753 65.8341 0.0733617 66.0881 0.0800482 66.3422C0.0800482 66.4091 0.0800482 66.4693 0.0867346 66.5361V66.7434C0.100108 67.3251 0.120167 67.8801 0.140226 68.415C0.140226 68.5822 0.140226 68.7493 0.153599 68.9098C0.160286 69.0837 0.166972 69.2508 0.173659 69.418C0.180345 69.5651 0.187031 69.7055 0.187031 69.8459C0.200404 70.0866 0.207091 70.3207 0.220464 70.5547C0.220464 70.655 0.220464 70.7553 0.233837 70.8556C0.240523 71.0094 0.24721 71.1632 0.253896 71.3103C0.260583 71.4306 0.267269 71.5443 0.273955 71.6646C0.273955 71.6981 0.273955 71.7382 0.280642 71.7716C0.287328 71.9054 0.294015 72.0391 0.300701 72.1728C0.300701 72.2196 0.307388 72.2597 0.307388 72.3065C0.327447 72.6743 0.347506 73.0287 0.374252 73.3697C0.394312 73.6906 0.414371 73.9915 0.43443 74.2857C0.447803 74.4596 0.461176 74.6267 0.474549 74.7939C0.514668 75.3154 0.554787 75.7969 0.594905 76.2315C0.594905 76.2783 0.594905 76.3251 0.608278 76.3652C0.628338 76.5725 0.648397 76.7664 0.668456 76.9536C0.715262 77.4217 0.762067 77.8229 0.808872 78.1773C0.808872 78.2107 0.808872 78.2374 0.808872 78.2709C0.815559 78.2976 0.815559 78.331 0.822245 78.3578C0.828931 78.4113 0.835618 78.4581 0.842304 78.5049C0.855677 78.6253 0.875737 78.7389 0.88911 78.8459L0.909169 78.9663C0.922542 79.0732 0.935915 79.1668 0.949288 79.2605C0.955974 79.3073 0.969347 79.3541 0.976034 79.4009C0.989406 79.4945 1.00278 79.5747 1.01615 79.6483C1.02284 79.675 1.02284 79.7018 1.02953 79.7218C1.05627 79.889 1.08302 79.996 1.09639 80.0628C1.09639 80.0695 1.09639 80.0762 1.10308 80.0829C1.10308 80.1096 1.10976 80.1297 1.10976 80.1297C1.09639 80.1564 0.594905 81.1661 0.594905 85.5925C0.594905 90.019 0.655083 99.1393 2.58747 100.677C4.52654 102.215 18.1335 102.783 21.5436 103.185C24.9604 103.579 26.5584 102.984 26.8526 102.442C27.1 102.001 28.9655 91.8644 34.3548 87.7589C35.4782 86.9031 36.7486 86.308 38.1862 86.1141C46.5643 84.9841 55.9989 85.3384 58.9543 90.9016C61.669 96.0033 63.1133 99.8481 63.5011 105.926C63.5613 106.876 64.3436 107.611 65.2931 107.611H184.981C184.981 107.611 186.385 107.751 187.1 105.552C187.816 103.345 190.437 93.7834 191.259 91.7441C192.088 89.7047 193.847 85.1312 205.02 84.6765C211.566 84.4157 215.758 85.3652 218.527 87.0502C220.486 88.2404 221.736 89.7983 222.605 91.5502C224.718 95.776 224.611 99.1527 224.571 101.613C224.538 104.074 223.862 106.688 225.434 107.283C226.998 107.885 231.926 106.762 233.458 106.354C234.982 105.939 237.523 105.084 238.639 102.81C239.763 100.53 241 96.5048 241 90.1995C241 83.8942 240.07 81.1193 237.871 78.8058ZM175.158 100.537H73.1029C73.1029 100.537 71.1437 97.461 70.2009 92.9142H177.525C177.525 92.9142 176.87 98.7782 175.158 100.537Z" fill="#F4F4F4"/>
</g>
<path d="M175.159 100.537H73.1032C73.1032 100.537 71.144 97.4615 70.2012 92.9147H177.526C177.526 92.9147 176.87 98.7787 175.159 100.537Z" fill="#839BB7"/>
<path fill-rule="evenodd" clip-rule="evenodd" d="M237.871 78.8062C235.678 76.4927 234.233 75.7371 233.017 75.7973L219.189 75.8311C214.008 74.1256 210.883 74.1169 207.233 74.1259C203.717 74.1345 198.864 74.1259 194.879 75.7973L0.608588 76.3657C0.628647 76.573 0.648706 76.7669 0.668766 76.9541C0.715571 77.4221 0.762376 77.8233 0.809182 78.1777V78.2713C0.815868 78.2981 0.815868 78.3315 0.822554 78.3582C0.829241 78.4117 0.835927 78.4585 0.842614 78.5053C0.855987 78.6257 0.876046 78.7394 0.889419 78.8463L0.909478 78.9667C0.922851 79.0737 0.936224 79.1673 0.949597 79.2609C0.956284 79.3077 0.969656 79.3545 0.976343 79.4013C0.989716 79.4949 1.00309 79.5752 1.01646 79.6487C1.02315 79.6755 1.02315 79.7022 1.02983 79.7223C1.05658 79.8894 1.08333 79.9964 1.0967 80.0633C1.0967 80.07 1.0967 80.0766 1.10339 80.0833C1.10339 80.1101 1.11007 80.1301 1.11007 80.1301C1.0967 80.1569 0.595215 81.1665 0.595215 85.593C0.595215 90.0194 0.655393 99.1398 2.58778 100.678C4.52685 102.216 18.1338 102.784 21.5439 103.185C24.9607 103.58 26.5587 102.984 26.8529 102.443C27.1003 102.002 28.9659 91.8649 34.3551 87.7594C35.4785 86.9035 36.7489 86.3084 38.1865 86.1145C46.5646 84.9845 55.9992 85.3389 58.9546 90.902C61.6693 96.0038 63.1136 99.8485 63.5014 105.927C63.5616 106.876 64.3439 107.611 65.2934 107.611H184.981C184.981 107.611 186.385 107.752 187.101 105.552C187.816 103.346 190.437 93.7839 191.26 91.7445L191.282 91.6894C192.121 89.6239 193.947 85.1276 205.02 84.6769C211.566 84.4162 215.759 85.3656 218.527 87.0506C220.486 88.2408 221.736 89.7988 222.606 91.5506C224.671 95.6812 224.615 99.0004 224.574 101.446L224.572 101.614C224.538 104.074 223.863 106.689 225.434 107.284C226.999 107.886 231.927 106.762 233.458 106.354C234.982 105.94 237.523 105.084 238.64 102.811C239.763 100.531 241 96.5053 241 90.1999C241 83.8946 240.071 81.1197 237.871 78.8062ZM73.1032 100.537H175.159C176.87 98.7787 177.526 92.9147 177.526 92.9147H70.2012C71.144 97.4615 73.1032 100.537 73.1032 100.537Z" fill="#839BB7"/>
<path d="M34.3547 87.7539C28.9654 91.8661 27.0998 101.996 26.8524 102.444C26.5582 102.986 24.9602 103.581 21.5434 103.18C18.1266 102.778 4.51968 102.21 2.58729 100.672C0.648218 99.1343 0.594727 90.0875 0.594727 85.5875C0.594727 81.0875 1.08952 80.1514 1.1029 80.1247C2.70765 79.456 29.3465 80.9337 29.3465 80.9337L34.348 87.7539H34.3547Z" fill="#2A3655"/>
<path d="M34.3547 87.7539C28.9654 91.8661 27.0998 101.996 26.8524 102.444C26.5582 102.986 24.9602 103.581 21.5434 103.18C18.1266 102.778 4.51968 102.21 2.58729 100.672C0.648218 99.1343 0.594727 90.0875 0.594727 85.5875C0.594727 81.0875 1.08952 80.1514 1.1029 80.1247C2.70765 79.456 29.3465 80.9337 29.3465 80.9337L34.348 87.7539H34.3547Z" fill="#5875B9"/>
<path d="M241.001 90.1945C241.001 96.4998 239.764 100.525 238.647 102.805C237.53 105.079 234.99 105.941 233.458 106.349C231.927 106.757 226.999 107.88 225.435 107.285C223.87 106.69 224.539 104.076 224.579 101.615C224.612 99.1543 224.726 95.7777 222.613 91.5518C221.737 89.8 220.487 88.2487 218.534 87.0585C218.534 87.0585 223.903 82.5719 222.914 76.2465C222.914 76.2465 227.795 76.4404 233.024 75.8052C234.241 75.745 235.685 76.5006 237.885 78.8141C240.085 81.1276 241.007 83.9025 241.007 90.2078L241.001 90.1945Z" fill="#5875B9"/>
<path d="M5.48289 68.5283H0.133729C0.0534917 66.2081 0.00668646 63.4733 0 60.2638C1.06315 60.4979 5.18869 61.7348 5.41603 66.6828C5.44278 67.2779 5.46284 67.8998 5.48289 68.5283Z" fill="#CB4738"/>
<path style="mix-blend-mode:multiply" d="M5.48289 68.5283H0.133729C0.120356 68.0937 0.106983 67.639 0.0936104 67.1776C0.0401187 65.165 0.00668646 62.8715 0 60.2638C0.688705 60.4176 2.65452 60.986 4.02525 62.7111C4.05868 62.7445 4.08543 62.7846 4.11217 62.8247C4.81425 63.7542 5.34248 65.0045 5.41603 66.6828C5.44278 67.2779 5.46284 67.8998 5.48289 68.5283Z" fill="url(#paint6_linear_134_5891)"/>
<path style="mix-blend-mode:multiply" d="M5.48296 68.5283H0.133789C0.133789 68.5283 5.68355 66.4489 4.11223 62.8248C4.81431 63.7542 5.34254 65.0046 5.41609 66.6829C5.44284 67.278 5.4629 67.8998 5.48296 68.5283Z" fill="url(#paint7_linear_134_5891)"/>
<path style="mix-blend-mode:color-dodge" d="M5.48289 68.5283H0.133729C0.120356 68.0937 0.106983 67.639 0.0936104 67.1776C0.0401187 65.165 0.00668646 62.8715 0 60.2638C0.688705 60.4176 2.65452 60.986 4.02525 62.7111C4.05868 62.7445 4.08543 62.7846 4.11217 62.8247C4.81425 63.7542 5.34248 65.0045 5.41603 66.6828C5.44278 67.2779 5.46284 67.8998 5.48289 68.5283Z" fill="url(#paint8_linear_134_5891)"/>
<path d="M5.52307 74.8661H0.474798C0.347756 73.2279 0.227399 71.1417 0.133789 68.5273H5.48296C5.53645 70.6336 5.54313 72.8936 5.52307 74.8661Z" fill="#BBCCE0"/>
<path style="mix-blend-mode:multiply" opacity="0.48" d="M5.52311 74.8661H0.474839C0.461466 74.7257 0.454779 74.5852 0.441406 74.4448C1.70515 74.164 5.27572 72.9671 5.483 68.534C5.53649 70.6402 5.54317 72.9003 5.52311 74.8728V74.8661Z" fill="url(#paint9_linear_134_5891)"/>
<path style="mix-blend-mode:multiply" d="M5.52307 74.8661H0.474798C0.461425 74.7257 0.454739 74.5852 0.441366 74.4448C0.327696 72.8735 0.214027 70.9277 0.133789 68.534H5.48296C5.53645 70.6402 5.54313 72.9003 5.52307 74.8728V74.8661Z" fill="url(#paint10_linear_134_5891)"/>
<path d="M5.52307 74.8661H0.474798C0.461425 74.7257 0.454739 74.5852 0.441366 74.4448C0.327696 72.8735 0.214027 70.9277 0.133789 68.534H5.48296C5.53645 70.6402 5.54313 72.9003 5.52307 74.8728V74.8661Z" fill="url(#paint11_linear_134_5891)"/>
<path d="M5.5224 74.8679C5.49565 77.957 5.41541 80.3374 5.41541 80.3374L1.10933 80.1301C1.10933 80.1301 0.775012 78.7394 0.474121 74.8746H5.5224V74.8679Z" fill="#CB4738"/>
<path style="mix-blend-mode:multiply" d="M5.52274 74.8679C5.49599 77.957 5.41575 80.3374 5.41575 80.3374L1.10967 80.1301C1.10967 80.1301 1.05618 79.9028 0.969258 79.3812C0.842215 78.6056 0.648308 77.1814 0.467773 74.8679H5.51605H5.52274Z" fill="url(#paint12_linear_134_5891)"/>
<path style="mix-blend-mode:multiply" d="M5.52272 74.8679C5.49597 77.957 5.41573 80.3374 5.41573 80.3374L1.10965 80.1301C1.10965 80.1301 1.05616 79.9028 0.969238 79.3812C4.96774 78.8664 5.52272 74.8679 5.52272 74.8679Z" fill="url(#paint13_linear_134_5891)"/>
<path style="mix-blend-mode:color-dodge" d="M5.52274 74.8679C5.49599 77.957 5.41575 80.3374 5.41575 80.3374L1.10967 80.1301C1.10967 80.1301 1.05618 79.9028 0.969258 79.3812C0.842215 78.6056 0.648308 77.1814 0.467773 74.8679H5.51605H5.52274Z" fill="url(#paint14_linear_134_5891)"/>
<path d="M3.86482 70.5481C4.30613 75.6432 3.94506 79.8423 3.05576 79.9158C2.16646 79.9894 1.08994 75.924 0.648634 70.8222C0.207327 65.7271 0.568396 61.5281 1.4577 61.4545C2.34699 61.381 3.42351 65.4463 3.86482 70.5481Z" fill="url(#paint15_linear_134_5891)"/>
<path d="M72.0926 32.7231C71.4313 30.3865 73.1867 28.0654 75.615 28.0654H149.481V60.4021H82.6948C81.057 60.4021 79.6184 59.3142 79.1724 57.7383L72.0926 32.7231Z" fill="#839BB7"/>
<path d="M66.5591 30.8859C66.1693 29.2331 64.6942 28.0654 62.9961 28.0654H10.3724V60.4021H68.8959C71.2574 60.4021 73.001 58.1994 72.4589 55.901L66.5591 30.8859Z" fill="#839BB7"/>
<path d="M5.17537 75.1548C5.18875 75.9772 5.21549 76.7528 5.24224 77.4817C5.26898 78.2038 5.30242 78.7989 5.34253 79.2669C5.38265 79.7283 5.42946 79.9557 5.48295 79.9557C5.52975 79.9557 5.56987 79.8687 5.59662 79.7016C5.62337 79.5277 5.64342 79.3004 5.6568 79.0129C5.67017 78.7187 5.67686 78.371 5.67686 77.9564C5.67686 77.5485 5.67686 77.0738 5.67686 76.5389C5.67686 75.9571 5.67686 74.573 5.67686 72.3933C5.67686 70.2068 5.68354 67.5322 5.69023 64.3561C5.7036 61.1801 5.71698 57.6563 5.73035 53.7715C5.75709 49.8933 5.77715 45.9684 5.83733 41.9899C5.87076 40.0041 5.89082 38.0516 6.00449 36.1326C6.13154 34.2069 6.25858 32.3146 6.38562 30.4558C6.62633 26.7314 6.8403 23.4216 7.02752 20.513C7.19468 17.6111 7.3351 15.2775 7.4354 13.5056C7.4822 12.623 7.50895 11.9611 7.52232 11.5131C7.53569 11.0718 7.52232 10.8511 7.50895 10.8444C7.49557 10.8444 7.46214 11.0584 7.42202 11.4863C7.3819 11.9143 7.32841 12.5562 7.24817 13.4187C7.11445 15.1371 6.93391 17.4038 6.71326 20.2322C6.50598 23.0673 6.26527 26.2901 5.99112 29.9209C5.74372 33.5449 5.38265 37.276 5.36259 41.114C5.28904 44.9454 5.24892 48.7031 5.21549 52.3874C5.19543 56.0716 5.17537 59.3948 5.15531 62.3569C5.14863 65.3123 5.14194 67.7462 5.13525 69.6652C5.13525 71.5775 5.13525 72.6607 5.13525 72.9014C5.13525 73.5768 5.14194 74.3323 5.15531 75.1548H5.17537Z" fill="#563A42"/>
<path d="M149.481 57.3027H10.0498V60.4855H149.481V57.3027Z" fill="#808080"/>
<path style="mix-blend-mode:multiply" d="M149.481 57.3027H10.0498V60.4855H149.481V57.3027Z" fill="#1E3686"/>
<path d="M19.6247 60.3115C17.9665 60.3382 16.4019 60.365 14.9309 60.3917C13.4732 60.4252 12.2763 60.4653 11.3402 60.5121C10.4175 60.5589 9.94944 60.6124 9.95613 60.6592C9.95613 60.706 10.1233 60.7461 10.471 60.7662C10.812 60.7929 11.2734 60.8063 11.8618 60.8197C12.4569 60.8197 13.1589 60.8197 13.9947 60.8263C14.8239 60.8263 15.7733 60.8263 16.8499 60.8197C18.02 60.8197 20.8082 60.8197 25.2079 60.8063C29.6076 60.8063 35.0036 60.8063 41.4092 60.813C47.8082 60.8197 54.9226 60.833 62.739 60.8397C70.5555 60.8531 78.4723 60.8731 86.4893 60.8865C94.4997 60.9066 102.269 60.92 109.798 60.94C117.321 60.9534 124.014 60.9668 129.884 60.9801C135.748 60.9868 140.462 61.0002 144.026 61.0002C145.812 61.0002 147.149 61.0002 148.038 61.0002C148.486 61.0002 148.814 60.9868 149.041 60.9868C149.262 60.9801 149.375 60.9734 149.375 60.9601C149.375 60.9534 149.268 60.94 149.048 60.9333C148.834 60.9266 148.506 60.9133 148.072 60.8932C147.202 60.8665 145.905 60.8263 144.167 60.8063C140.696 60.7662 136.11 60.7127 130.393 60.6458C124.669 60.6057 118.15 60.5589 110.821 60.5054C103.493 60.472 95.964 60.4318 88.2412 60.3984C80.5183 60.3717 72.9493 60.3449 65.5139 60.3182C58.0853 60.3048 51.3921 60.2847 45.4278 60.2714C39.4702 60.2714 34.5623 60.2647 30.6975 60.258C26.8394 60.258 24.6596 60.258 24.1715 60.258C22.8075 60.2647 21.2897 60.2781 19.6247 60.2847V60.3115Z" fill="#563A42"/>
<path d="M14.797 57.0749C13.9679 57.1016 13.1856 57.1284 12.4501 57.1551C11.7213 57.1885 11.1195 57.2287 10.6514 57.2755C10.1901 57.3223 9.95605 57.3691 9.95605 57.4226C9.95605 57.4694 10.043 57.5095 10.2168 57.5362C10.3907 57.563 10.618 57.583 10.9122 57.5897C11.2064 57.6031 11.5608 57.6031 11.9754 57.6031C12.3899 57.6031 12.8647 57.6031 13.4063 57.5964C13.9947 57.5964 15.3921 57.5897 17.592 57.583C19.7985 57.583 22.4998 57.583 25.7027 57.583C28.9055 57.5897 32.4694 57.6031 36.3809 57.6098C40.2925 57.6232 44.2576 57.6432 48.2695 57.6633C52.2813 57.6833 56.1728 57.7034 59.9373 57.7235C63.7018 57.7435 67.0584 57.7569 69.9938 57.7703C72.9291 57.777 75.2894 57.7903 77.0747 57.7903C77.9707 57.7903 78.6393 57.7903 79.0807 57.7836C79.5286 57.777 79.7493 57.7569 79.7493 57.7368C79.7493 57.7235 79.5353 57.7034 79.1007 57.6767C78.6661 57.6566 78.0175 57.6299 77.1483 57.5964C75.4098 57.5429 73.1163 57.4894 70.2478 57.4359C67.3793 57.3958 64.1164 57.3423 60.4455 57.2888C56.7746 57.2487 53.0035 57.2153 49.1387 57.1752C45.2739 57.1484 41.4827 57.1217 37.7583 57.0949C34.0407 57.0816 30.6841 57.0615 27.7019 57.0481C24.7198 57.0481 22.2591 57.0481 20.3267 57.0414C18.3944 57.0414 17.3045 57.0414 17.0571 57.0414C16.3751 57.0414 15.6128 57.0548 14.777 57.0749H14.797Z" fill="#563A42"/>
<path d="M80.1041 17.4312C80.0774 16.2811 80.0439 15.1912 80.0172 14.1749C79.9837 13.1585 79.9369 12.3294 79.8901 11.6808C79.8433 11.0389 79.7965 10.718 79.743 10.718C79.6962 10.718 79.6561 10.8383 79.6361 11.079C79.6093 11.3197 79.5959 11.634 79.5826 12.0419C79.5759 12.4497 79.5692 12.9445 79.5759 13.5196C79.5759 14.0946 79.5759 14.7566 79.5826 15.4988C79.5826 16.3145 79.5959 18.2469 79.6026 21.2959C79.6026 24.3516 79.616 28.0961 79.6227 32.5426C79.6227 36.9824 79.6227 41.9237 79.6227 47.3531C79.6227 52.7825 79.616 58.2787 79.6093 63.8419C79.6026 69.405 79.5959 74.801 79.5892 80.0231C79.5826 85.2452 79.5759 89.8923 79.5692 93.9643C79.5692 98.0364 79.5692 101.306 79.5625 103.787C79.5625 105.024 79.5625 105.953 79.5692 106.575C79.5759 107.197 79.5892 107.504 79.616 107.504C79.6227 107.504 79.6294 107.431 79.6427 107.277C79.6494 107.123 79.6628 106.903 79.6762 106.602C79.6962 106 79.7363 105.097 79.7564 103.894C79.8099 101.487 79.8567 98.2972 79.9035 94.3321C79.9369 90.3604 79.9771 85.8336 80.0172 80.7452C80.0439 75.6568 80.0707 70.428 80.0974 65.0655C80.1108 59.7029 80.1309 54.4474 80.1442 49.2854C80.1442 44.1302 80.1576 39.4831 80.1576 35.3375C80.1576 31.1986 80.1509 27.7952 80.1442 25.1072C80.1375 22.4259 80.1308 20.9148 80.1308 20.5738C80.1175 19.6243 80.1108 18.5745 80.0974 17.4178L80.1041 17.4312Z" fill="#563A42"/>
<path d="M149.482 17.4312C149.455 16.2811 149.422 15.1912 149.395 14.1749C149.362 13.1585 149.315 12.3294 149.268 11.6808C149.221 11.0389 149.174 10.718 149.121 10.718C149.074 10.718 149.034 10.8383 149.014 11.079C148.987 11.3197 148.974 11.634 148.96 12.0419C148.954 12.4497 148.947 12.9445 148.954 13.5196C148.954 14.0946 148.954 14.7566 148.96 15.4988C148.96 16.3145 148.974 18.2469 148.981 21.2959C148.981 24.3516 148.994 28.0961 149.001 32.5426C149.001 36.9824 149.001 41.9237 149.001 47.3531C149.001 52.7825 148.994 58.2787 148.987 63.8419C148.981 69.405 148.974 74.801 148.967 80.0231C148.96 85.2452 148.954 89.8923 148.947 93.9643C148.947 98.0364 148.947 101.306 148.94 103.787C148.94 105.024 148.94 105.953 148.947 106.575C148.954 107.197 148.967 107.504 148.994 107.504C149.001 107.504 149.007 107.431 149.021 107.277C149.027 107.123 149.041 106.903 149.054 106.602C149.074 106 149.114 105.097 149.134 103.894C149.188 101.487 149.235 98.2972 149.281 94.3321C149.315 90.3604 149.355 85.8336 149.395 80.7452C149.422 75.6568 149.449 70.428 149.475 65.0655C149.489 59.7029 149.509 54.4474 149.522 49.2854C149.522 44.1302 149.536 39.4831 149.536 35.3375C149.536 31.1986 149.529 27.7952 149.522 25.1072C149.515 22.4259 149.509 20.9148 149.509 20.5738C149.495 19.6243 149.489 18.5745 149.475 17.4178L149.482 17.4312Z" fill="#563A42"/>
<path d="M160.195 72.6748C158.851 72.6748 157.761 71.5849 157.761 70.2409V64.6443C157.761 63.3004 158.851 62.2105 160.195 62.2105C161.539 62.2105 162.628 63.3004 162.628 64.6443V70.2409C162.628 71.5849 161.539 72.6748 160.195 72.6748Z" fill="#2A3655"/>
<path style="mix-blend-mode:multiply" d="M160.195 72.6748C158.851 72.6748 157.761 71.5849 157.761 70.2409V64.6443C157.761 63.3004 158.851 62.2105 160.195 62.2105C161.539 62.2105 162.628 63.3004 162.628 64.6443V70.2409C162.628 71.5849 161.539 72.6748 160.195 72.6748Z" fill="url(#paint16_linear_134_5891)"/>
<path d="M142.108 72.6748C140.764 72.6748 139.674 71.5849 139.674 70.2409V64.6443C139.674 63.3004 140.764 62.2105 142.108 62.2105C143.452 62.2105 144.542 63.3004 144.542 64.6443V70.2409C144.542 71.5849 143.452 72.6748 142.108 72.6748Z" fill="#2A3655"/>
<path style="mix-blend-mode:multiply" d="M142.108 72.6748C140.764 72.6748 139.674 71.5849 139.674 70.2409V64.6443C139.674 63.3004 140.764 62.2105 142.108 62.2105C143.452 62.2105 144.542 63.3004 144.542 64.6443V70.2409C144.542 71.5849 143.452 72.6748 142.108 72.6748Z" fill="url(#paint17_linear_134_5891)"/>
<path d="M207.882 63.5876C207.882 63.5876 204.312 63.6344 199.036 63.5274C191.527 63.3736 180.575 62.9123 171.561 61.5549C156.216 59.2414 158.529 28.7043 158.529 28.7043C169.789 27.24 178.114 30.2489 180.354 31.7133C181.986 32.7831 192.323 42.5587 199.257 49.7667C201.824 52.4413 203.93 54.7615 204.954 56.1589C208.731 61.3276 207.882 63.5876 207.882 63.5876Z" fill="#839BB7"/>
<path d="M197.806 47.3585H196.389C195.251 47.3585 194.329 48.2805 194.329 49.4179V63.2321C194.329 64.3695 195.251 65.2916 196.389 65.2916H197.806C198.943 65.2916 199.865 64.3695 199.865 63.2321V49.4179C199.865 48.2805 198.943 47.3585 197.806 47.3585Z" fill="#2A3655"/>
<path style="mix-blend-mode:multiply" d="M197.806 47.3585H196.389C195.251 47.3585 194.329 48.2805 194.329 49.4179V63.2321C194.329 64.3695 195.251 65.2916 196.389 65.2916H197.806C198.943 65.2916 199.865 64.3695 199.865 63.2321V49.4179C199.865 48.2805 198.943 47.3585 197.806 47.3585Z" fill="url(#paint18_linear_134_5891)"/>
<path d="M198.582 54.3944V59.7368C198.582 60.5125 197.953 61.1343 197.184 61.1343H194.329V52.9969H197.184C197.96 52.9969 198.582 53.6254 198.582 54.3944Z" fill="#BBCCE0"/>
<path style="mix-blend-mode:multiply" d="M198.582 54.3944V59.7302C198.582 60.5058 197.953 61.1343 197.177 61.1343H194.322V52.9969H197.177C197.953 52.9969 198.582 53.6254 198.582 54.401V54.3944Z" fill="url(#paint19_linear_134_5891)"/>
<path style="mix-blend-mode:multiply" d="M198.582 54.4206V59.7363C198.582 60.5119 197.953 61.1405 197.177 61.1405H194.322C198.488 58.2853 198.575 54.7348 198.575 54.4206H198.582Z" fill="url(#paint20_linear_134_5891)"/>
<path d="M198.582 54.3944V59.7302C198.582 60.5058 197.953 61.1343 197.177 61.1343H194.322V52.9969H197.177C197.953 52.9969 198.582 53.6254 198.582 54.401V54.3944Z" fill="url(#paint21_linear_134_5891)"/>
<path d="M195.458 57.1688C195.405 59.1279 195.198 60.7126 194.984 60.7059C194.776 60.7059 194.649 59.1078 194.696 57.1487C194.743 55.1896 194.957 53.6049 195.171 53.6116C195.378 53.6116 195.505 55.2096 195.458 57.1688Z" fill="url(#paint22_linear_134_5891)"/>
<path d="M177.526 92.9146C177.526 92.9146 176.87 98.7786 175.159 100.537H73.1031C73.1031 100.537 71.144 97.4613 70.2012 92.9146H177.526Z" fill="#6583A6"/>
<path d="M84.4904 10.3162C83.6613 10.3429 82.879 10.3697 82.1435 10.3964C81.4146 10.4298 80.8129 10.47 80.3448 10.5168C79.8834 10.5636 79.6494 10.6104 79.6494 10.6639C79.6494 10.7107 79.7363 10.7508 79.9102 10.7775C80.084 10.8043 80.3114 10.8243 80.6056 10.831C80.8998 10.8444 81.2542 10.8444 81.6687 10.8444C82.0833 10.8444 82.558 10.8444 83.0996 10.8377C83.688 10.8377 85.0855 10.831 87.2853 10.8243C89.4919 10.8243 92.1932 10.8243 95.396 10.8243C98.5988 10.831 102.163 10.8444 106.074 10.8511C109.986 10.8645 113.951 10.8845 117.963 10.9046C121.975 10.9246 125.866 10.9447 129.637 10.9648C133.402 10.9848 136.758 10.9982 139.694 11.0116C142.629 11.0183 144.989 11.0316 146.775 11.0316C147.671 11.0316 148.339 11.0316 148.781 11.0249C149.229 11.0183 149.449 10.9982 149.449 10.9781C149.449 10.9648 149.235 10.9447 148.801 10.918C148.366 10.8979 147.718 10.8712 146.848 10.8377C145.11 10.7842 142.816 10.7307 139.948 10.6772C137.079 10.6371 133.816 10.5836 130.146 10.5301C126.475 10.49 122.704 10.4566 118.839 10.4165C114.974 10.3897 111.183 10.363 107.458 10.3362C103.741 10.3229 100.384 10.3028 97.402 10.2894C94.4198 10.2894 91.9592 10.2894 90.0268 10.2827C88.0944 10.2827 87.0045 10.2827 86.7571 10.2827C86.0751 10.2827 85.3128 10.2961 84.477 10.3162H84.4904Z" fill="#563A42"/>
<path d="M232.335 73.5975C232.335 73.5975 219.691 75.9378 216.775 57.0619C219.898 59.1481 222.218 59.9705 225.989 63.8821C229.66 67.6867 231.486 71.3575 232.335 73.5975Z" fill="#BBCCE0"/>
<path style="mix-blend-mode:multiply" d="M232.335 73.5975C232.335 73.5975 223.95 75.1488 219.263 65.5336C218.193 63.3405 217.317 60.5656 216.775 57.0619C219.898 59.1481 222.218 59.9705 225.989 63.8821C227.768 65.7275 229.119 67.5463 230.128 69.1778C231.198 70.9095 231.9 72.4407 232.335 73.5908V73.5975Z" fill="url(#paint23_linear_134_5891)"/>
<path style="mix-blend-mode:multiply" d="M232.335 73.5984C232.335 73.5984 223.95 75.1496 219.263 65.5345C219.263 65.5345 228.978 72.0337 230.128 69.1853C231.198 70.9171 231.9 72.4483 232.335 73.5984Z" fill="url(#paint24_linear_134_5891)"/>
<path d="M232.335 73.5975C232.335 73.5975 223.95 75.1488 219.263 65.5336C218.193 63.3405 217.317 60.5656 216.775 57.0619C219.898 59.1481 222.218 59.9705 225.989 63.8821C227.768 65.7275 229.119 67.5463 230.128 69.1778C231.198 70.9095 231.9 72.4407 232.335 73.5908V73.5975Z" fill="url(#paint25_linear_134_5891)"/>
<path d="M224.023 62.759C226.537 65.0257 228.382 67.0851 228.142 67.3526C227.901 67.62 225.661 66.0019 223.147 63.7285C220.633 61.4618 218.787 59.4024 219.028 59.1349C219.269 58.8675 221.509 60.4856 224.023 62.759Z" fill="url(#paint26_linear_134_5891)"/>
<path d="M14.4826 10.7382C13.7337 10.7583 13.0316 10.785 12.3763 10.8184C11.7211 10.8519 11.1862 10.892 10.7649 10.9388C10.3503 10.9856 10.1431 11.0324 10.1431 11.0859C10.1431 11.1327 10.2233 11.1728 10.3771 11.1996C10.5309 11.2263 10.7382 11.2464 10.9989 11.2531C11.2664 11.2664 11.5807 11.2664 11.9551 11.2664C12.3295 11.2664 12.7575 11.2664 13.2389 11.2597C13.7671 11.2597 15.0175 11.2531 16.99 11.2464C18.9692 11.2464 21.3897 11.2464 24.2716 11.2464C27.1467 11.2531 30.3429 11.2664 33.8532 11.2731C37.3636 11.2932 40.9208 11.3066 44.5248 11.3266C48.1221 11.3467 51.6125 11.3667 54.9958 11.3868C58.3725 11.4068 61.3814 11.4202 64.0225 11.4403C66.657 11.447 68.7699 11.4537 70.3747 11.4603C71.1771 11.4603 71.7788 11.4603 72.18 11.447C72.5812 11.4336 72.7818 11.4202 72.7818 11.4002C72.7818 11.3868 72.5879 11.3667 72.2001 11.3467C71.8123 11.3266 71.2239 11.3066 70.4482 11.2731C68.8903 11.2196 66.8309 11.1661 64.2566 11.1126C61.6823 11.0725 58.7536 11.019 55.4639 10.9655C52.1675 10.9254 48.7908 10.8853 45.3205 10.8452C41.8503 10.8184 38.4468 10.7917 35.1103 10.7649C31.7738 10.7516 28.7649 10.7315 26.0836 10.7181C23.409 10.7181 21.2025 10.7181 19.464 10.7115C17.7322 10.7115 16.7493 10.7115 16.5286 10.7181C15.9135 10.7181 15.2315 10.7315 14.4826 10.7516V10.7382Z" fill="#563A42"/>
</g>
<defs>
<linearGradient id="paint0_linear_134_5891" x1="45.2671" y1="91.7384" x2="45.2671" y2="121.941" gradientUnits="userSpaceOnUse">
<stop stop-color="#2A3655" stop-opacity="0"/>
<stop offset="1" stop-color="#290D6D"/>
</linearGradient>
<linearGradient id="paint1_linear_134_5891" x1="45.2672" y1="97.9299" x2="45.2672" y2="121.172" gradientUnits="userSpaceOnUse">
<stop stop-color="#8073FF" stop-opacity="0"/>
<stop offset="0.07" stop-color="#8073FF" stop-opacity="0.07"/>
<stop offset="1" stop-color="#8073FF"/>
</linearGradient>
<linearGradient id="paint2_linear_134_5891" x1="45.2671" y1="102.088" x2="45.2671" y2="112.539" gradientUnits="userSpaceOnUse">
<stop stop-color="#808080" stop-opacity="0"/>
<stop offset="1" stop-color="#808080"/>
</linearGradient>
<linearGradient id="paint3_linear_134_5891" x1="206.859" y1="0.000199648" x2="206.859" y2="0.000199648" gradientUnits="userSpaceOnUse">
<stop stop-color="#2A3655" stop-opacity="0"/>
<stop offset="1" stop-color="#290D6D"/>
</linearGradient>
<linearGradient id="paint4_linear_134_5891" x1="206.859" y1="97.9299" x2="206.859" y2="121.172" gradientUnits="userSpaceOnUse">
<stop stop-color="#8073FF" stop-opacity="0"/>
<stop offset="0.07" stop-color="#8073FF" stop-opacity="0.07"/>
<stop offset="1" stop-color="#8073FF"/>
</linearGradient>
<linearGradient id="paint5_linear_134_5891" x1="206.859" y1="-0.000324843" x2="206.859" y2="-0.000324843" gradientUnits="userSpaceOnUse">
<stop stop-color="#808080" stop-opacity="0"/>
<stop offset="1" stop-color="#808080"/>
</linearGradient>
<linearGradient id="paint6_linear_134_5891" x1="-0.568349" y1="62.5974" x2="7.74961" y2="72.0788" gradientUnits="userSpaceOnUse">
<stop stop-color="#CB4738" stop-opacity="0"/>
<stop offset="1" stop-color="#CB4738"/>
</linearGradient>
<linearGradient id="paint7_linear_134_5891" x1="1.09664" y1="63.6539" x2="4.42649" y2="69.9392" gradientUnits="userSpaceOnUse">
<stop stop-color="#CB4738" stop-opacity="0"/>
<stop offset="1" stop-color="#CB4738"/>
</linearGradient>
<linearGradient id="paint8_linear_134_5891" x1="3.16269" y1="67.3715" x2="-0.822435" y2="60.7453" gradientUnits="userSpaceOnUse">
<stop stop-color="#FABE00" stop-opacity="0"/>
<stop offset="1" stop-color="#FABE00"/>
</linearGradient>
<linearGradient id="paint9_linear_134_5891" x1="2.68806" y1="70.5065" x2="4.46666" y2="77.875" gradientUnits="userSpaceOnUse">
<stop stop-color="#8073FF" stop-opacity="0"/>
<stop offset="0.07" stop-color="#8073FF" stop-opacity="0.07"/>
<stop offset="1" stop-color="#8073FF"/>
</linearGradient>
<linearGradient id="paint10_linear_134_5891" x1="1.19025" y1="68.7212" x2="5.32248" y2="75.5949" gradientUnits="userSpaceOnUse">
<stop stop-color="#8073FF" stop-opacity="0"/>
<stop offset="0.07" stop-color="#8073FF" stop-opacity="0.07"/>
<stop offset="1" stop-color="#8073FF"/>
</linearGradient>
<linearGradient id="paint11_linear_134_5891" x1="2.48074" y1="71.222" x2="-1.98582" y2="66.9493" gradientUnits="userSpaceOnUse">
<stop stop-color="white" stop-opacity="0"/>
<stop offset="1" stop-color="white"/>
</linearGradient>
<linearGradient id="paint12_linear_134_5891" x1="1.45737" y1="74.5403" x2="4.25231" y2="78.9801" gradientUnits="userSpaceOnUse">
<stop stop-color="#CB4738" stop-opacity="0"/>
<stop offset="1" stop-color="#CB4738"/>
</linearGradient>
<linearGradient id="paint13_linear_134_5891" x1="2.84145" y1="76.7334" x2="4.59999" y2="79.535" gradientUnits="userSpaceOnUse">
<stop stop-color="#CB4738" stop-opacity="0"/>
<stop offset="1" stop-color="#CB4738"/>
</linearGradient>
<linearGradient id="paint14_linear_134_5891" x1="4.37935" y1="78.6658" x2="0.240434" y2="74.0923" gradientUnits="userSpaceOnUse">
<stop stop-color="#FABE00" stop-opacity="0"/>
<stop offset="1" stop-color="#FABE00"/>
</linearGradient>
<linearGradient id="paint15_linear_134_5891" x1="2.83265" y1="76.0857" x2="1.25265" y2="61.2224" gradientUnits="userSpaceOnUse">
<stop stop-color="white" stop-opacity="0"/>
<stop offset="1" stop-color="white"/>
</linearGradient>
<linearGradient id="paint16_linear_134_5891" x1="160.348" y1="63.1198" x2="159.941" y2="74.4734" gradientUnits="userSpaceOnUse">
<stop stop-color="#2A3655" stop-opacity="0"/>
<stop offset="1" stop-color="#290D6D"/>
</linearGradient>
<linearGradient id="paint17_linear_134_5891" x1="142.261" y1="63.1198" x2="141.854" y2="74.4734" gradientUnits="userSpaceOnUse">
<stop stop-color="#2A3655" stop-opacity="0"/>
<stop offset="1" stop-color="#290D6D"/>
</linearGradient>
<linearGradient id="paint18_linear_134_5891" x1="196.957" y1="45.6468" x2="197.164" y2="61.4937" gradientUnits="userSpaceOnUse">
<stop stop-color="#2A3655" stop-opacity="0"/>
<stop offset="1" stop-color="#290D6D"/>
</linearGradient>
<linearGradient id="paint19_linear_134_5891" x1="195.92" y1="53.5117" x2="197.07" y2="62.5719" gradientUnits="userSpaceOnUse">
<stop stop-color="#8073FF" stop-opacity="0"/>
<stop offset="0.07" stop-color="#8073FF" stop-opacity="0.07"/>
<stop offset="1" stop-color="#8073FF"/>
</linearGradient>
<linearGradient id="paint20_linear_134_5891" x1="196.395" y1="57.7103" x2="200.2" y2="61.8826" gradientUnits="userSpaceOnUse">
<stop stop-color="#8073FF" stop-opacity="0"/>
<stop offset="0.07" stop-color="#8073FF" stop-opacity="0.07"/>
<stop offset="1" stop-color="#8073FF"/>
</linearGradient>
<linearGradient id="paint21_linear_134_5891" x1="196.288" y1="57.3097" x2="189.481" y2="50.0348" gradientUnits="userSpaceOnUse">
<stop stop-color="white" stop-opacity="0"/>
<stop offset="1" stop-color="white"/>
</linearGradient>
<linearGradient id="paint22_linear_134_5891" x1="195.06" y1="59.121" x2="195.034" y2="53.3998" gradientUnits="userSpaceOnUse">
<stop stop-color="white" stop-opacity="0"/>
<stop offset="1" stop-color="white"/>
</linearGradient>
<linearGradient id="paint23_linear_134_5891" x1="221.697" y1="59.4088" x2="233.164" y2="88.0269" gradientUnits="userSpaceOnUse">
<stop stop-color="#8073FF" stop-opacity="0"/>
<stop offset="0.07" stop-color="#8073FF" stop-opacity="0.07"/>
<stop offset="1" stop-color="#8073FF"/>
</linearGradient>
<linearGradient id="paint24_linear_134_5891" x1="224.371" y1="66.0092" x2="231.071" y2="82.7254" gradientUnits="userSpaceOnUse">
<stop stop-color="#8073FF" stop-opacity="0"/>
<stop offset="0.07" stop-color="#8073FF" stop-opacity="0.07"/>
<stop offset="1" stop-color="#8073FF"/>
</linearGradient>
<linearGradient id="paint25_linear_134_5891" x1="224.592" y1="65.0321" x2="226.016" y2="54.6548" gradientUnits="userSpaceOnUse">
<stop stop-color="white" stop-opacity="0"/>
<stop offset="1" stop-color="white"/>
</linearGradient>
<linearGradient id="paint26_linear_134_5891" x1="225.633" y1="65.0546" x2="218.095" y2="58.6616" gradientUnits="userSpaceOnUse">
<stop stop-color="white" stop-opacity="0"/>
<stop offset="1" stop-color="white"/>
</linearGradient>
<clipPath id="clip0_134_5891">
<rect width="241" height="122.275" fill="white"/>
</clipPath>
</defs>
</svg>
