<svg width="393" height="456" viewBox="0 0 393 456" fill="none" xmlns="http://www.w3.org/2000/svg">
<g clip-path="url(#clip0_221_16019)">
<rect width="393" height="456" fill="#FFF9F2"/>
<g clip-path="url(#clip1_221_16019)">
<path d="M3.43576 218.812C3.50104 219.842 -0.620447 221.549 -2.41227 221.814C-6.78694 222.46 -38.2706 222.352 -39.1935 222.345C-40.1161 222.338 -54.8463 217.277 -54.8463 217.277L-54.8361 215.86C-54.8361 215.86 -54.5527 214.189 -41.841 213.826C-29.1295 213.464 -8.57114 213.365 -5.57803 213.653C-3.54893 213.849 -1.34685 214.556 -0.264535 215.511C0.922501 216.559 1.30824 216.958 1.77649 217.172C2.40348 217.46 3.3602 217.621 3.43576 218.812Z" fill="#E3D7C7"/>
<path d="M0.753906 216.418C0.114988 216.685 -0.551104 216.861 -1.22316 216.976C-1.64568 217.049 -2.07085 217.098 -2.49735 217.131C-3.08689 217.178 -3.68704 217.194 -4.26333 217.025C-4.32695 217.006 -4.3919 216.984 -4.44426 216.937C-4.56555 216.827 -4.58113 216.622 -4.58444 216.443C-4.59008 216.11 -4.58776 215.776 -4.57781 215.444C-4.57516 215.357 -4.57086 215.265 -4.53043 215.193C-4.45619 215.061 -4.29878 215.051 -4.16391 215.051C-3.33312 215.048 -2.50498 214.905 -1.71064 214.632C-1.13302 214.889 -0.633952 215.186 -0.265115 215.511C0.166685 215.892 0.491446 216.187 0.753575 216.418L0.753906 216.418Z" fill="#5A3A40"/>
<path d="M-33.6002 219.248C-29.0068 219.775 -24.3664 219.642 -19.7448 219.509C-17.3151 219.439 -14.8853 219.369 -12.4556 219.299C-8.16012 219.175 -3.86466 219.051 0.43081 218.927C1.38157 218.899 2.33332 218.884 3.28308 218.834C3.33345 218.831 3.38448 218.828 3.43585 218.824C3.46799 219.855 -0.627316 221.549 -2.41218 221.813C-6.78685 222.46 -38.2705 222.351 -39.1934 222.345C-40.116 222.338 -54.8462 217.277 -54.8462 217.277L-54.836 215.86C-54.836 215.86 -54.7448 215.324 -52.3582 214.793C-50.2538 215.424 -48.1426 216.031 -46.024 216.612C-41.9373 217.733 -37.8105 218.765 -33.6002 219.248V219.248Z" fill="#D56536"/>
<path d="M-38.0428 221.239C-37.0881 221.245 -5.54878 221.347 0.753906 220.769C-0.366189 221.252 -1.57874 221.637 -2.35452 221.752C-6.72919 222.398 -38.2128 222.29 -39.1357 222.283C-40.0583 222.276 -54.7886 217.215 -54.7886 217.215L-54.7813 216.174C-54.4121 216.292 -39.0184 221.233 -38.0431 221.239L-38.0428 221.239Z" fill="#5A3A40"/>
<path d="M2.44158 219.753C2.30671 219.435 2.25633 219.087 2.22485 218.743C2.19403 218.405 2.18012 218.061 2.24275 217.728C2.26329 217.617 2.29809 217.499 2.34548 217.38C2.86443 217.602 3.38107 217.924 3.43575 218.786C3.45596 219.103 3.07884 219.485 2.4956 219.868C2.47638 219.831 2.45848 219.792 2.44191 219.753H2.44158Z" fill="#5A3A40"/>
</g>
<rect x="-0.0585938" y="331.436" width="229.608" height="45.2153" fill="#A2B8EB"/>
<path d="M202.786 362.651C202.786 349.396 213.531 338.651 226.786 338.651H392.941V362.651H202.786Z" fill="#E3D7C7"/>
<rect x="-367.059" y="403.651" width="918.354" height="50" fill="#403F3E"/>
<path d="M-42.0586 362.651H406.941V403.651H-38.3761L-42.0586 362.651Z" fill="#9AB7A3"/>
<path d="M198.392 402.7L261.725 372.864V350.651H329.204V372.864L388.032 402.7H329.204L303.497 372.864H286.442L268.095 402.7H198.392Z" fill="#E1D8C8"/>
<rect x="352.608" y="288.085" width="19.4322" height="46.5324" fill="#D69877"/>
<path d="M342.644 267.159L352.609 263.671H375.031L382.006 267.657L372.041 282.605H352.609L342.644 267.159Z" fill="#D69877"/>
<path d="M371.044 270.148H354.104L356.346 280.113H368.304L371.044 270.148Z" fill="#563B42"/>
<path d="M348.124 271.146L352.858 270.399L355.349 280.115H352.858L348.124 271.146Z" fill="#563B42"/>
<path d="M366.809 282.605L375.03 263.671L382.006 267.657L372.04 282.605V288.086V327.947H366.809V282.605Z" fill="#563B42" fill-opacity="0.5" style="mix-blend-mode:multiply"/>
<rect x="356.595" y="288.085" width="1.49479" height="6.62906" fill="#563B42"/>
<rect x="356.595" y="296.807" width="1.49479" height="6.62906" fill="#563B42"/>
<rect x="364.567" y="288.085" width="1.49479" height="6.62906" fill="#563B42"/>
<rect x="364.567" y="296.807" width="1.49479" height="6.62906" fill="#563B42"/>
<path d="M376.774 271.395L372.041 270.399L369.55 280.364H372.041L376.774 271.395Z" fill="#563B42"/>
<rect x="347.127" y="282.604" width="30.394" height="5.48089" fill="#839BB7"/>
<rect x="246.729" y="324.659" width="154.213" height="13.9559" fill="#D69877"/>
<rect x="246.729" y="324.659" width="154.213" height="5.93126" fill="#839BB7"/>
<rect x="246.729" y="326.752" width="111.996" height="2.09339" fill="#563B42"/>
<rect x="244.941" y="324.709" width="1.73816" height="13.9053" fill="#563B42"/>
<path d="M26.9375 310.809H34.2172L35.8349 333.052V355.295H25.3198V333.052L26.9375 310.809Z" fill="#9CB7A5"/>
<rect x="20.6689" y="348.42" width="19.8168" height="6.87521" fill="#5DA790"/>
<path d="M183.661 310.809H190.94L192.558 333.052V355.295H182.043V333.052L183.661 310.809Z" fill="#9CB7A5"/>
<rect x="177.392" y="348.42" width="19.8168" height="6.87521" fill="#5DA790"/>
<rect x="-212.895" y="277.799" width="418.835" height="3.78792" fill="#5DA790"/>
<rect x="-212.895" y="308.644" width="418.835" height="3.78792" fill="#5DA790"/>
<path d="M-16.4863 295.041L-2.93812 281.493L10.6101 295.041L-2.93812 308.59L-16.4863 295.041Z" stroke="#5DA790" stroke-width="2.42655"/>
<rect x="12.228" y="277.651" width="34.7805" height="2.42654" transform="rotate(90 12.228 277.651)" fill="#5DA790"/>
<path d="M11.4189 295.041L24.9672 281.493L38.5154 295.041L24.9672 308.59L11.4189 295.041Z" stroke="#5DA790" stroke-width="2.42655"/>
<rect x="8.18359" y="292.21" width="5.66194" height="5.66194" fill="#9CB7A5"/>
<rect x="40.1328" y="277.651" width="34.7805" height="2.42654" transform="rotate(90 40.1328 277.651)" fill="#5DA790"/>
<path d="M39.3242 295.041L52.8724 281.493L66.4206 295.041L52.8724 308.59L39.3242 295.041Z" stroke="#5DA790" stroke-width="2.42655"/>
<rect x="36.0889" y="292.21" width="5.66194" height="5.66194" fill="#9CB7A5"/>
<rect x="68.0386" y="277.651" width="34.7805" height="2.42654" transform="rotate(90 68.0386 277.651)" fill="#5DA790"/>
<path d="M67.2295 295.041L80.7777 281.493L94.3259 295.041L80.7777 308.59L67.2295 295.041Z" stroke="#5DA790" stroke-width="2.42655"/>
<rect x="63.9941" y="292.21" width="5.66194" height="5.66194" fill="#9CB7A5"/>
<rect x="95.9438" y="277.651" width="34.7805" height="2.42654" transform="rotate(90 95.9438 277.651)" fill="#5DA790"/>
<path d="M95.1348 295.041L108.683 281.493L122.231 295.041L108.683 308.59L95.1348 295.041Z" stroke="#5DA790" stroke-width="2.42655"/>
<rect x="91.8994" y="292.21" width="5.66194" height="5.66194" fill="#9CB7A5"/>
<rect x="123.849" y="277.651" width="34.7805" height="2.42654" transform="rotate(90 123.849 277.651)" fill="#5DA790"/>
<path d="M123.04 295.041L136.588 281.493L150.136 295.041L136.588 308.59L123.04 295.041Z" stroke="#5DA790" stroke-width="2.42655"/>
<rect x="119.805" y="292.21" width="5.66194" height="5.66194" fill="#9CB7A5"/>
<rect x="151.754" y="277.651" width="34.7805" height="2.42654" transform="rotate(90 151.754 277.651)" fill="#5DA790"/>
<path d="M150.945 295.041L164.494 281.493L178.042 295.041L164.494 308.59L150.945 295.041Z" stroke="#5DA790" stroke-width="2.42655"/>
<rect x="147.71" y="292.21" width="5.66194" height="5.66194" fill="#9CB7A5"/>
<rect x="179.66" y="277.651" width="34.7805" height="2.42654" transform="rotate(90 179.66 277.651)" fill="#5DA790"/>
<path d="M178.851 295.041L192.399 281.493L205.947 295.041L192.399 308.59L178.851 295.041Z" stroke="#5DA790" stroke-width="2.42655"/>
<rect x="175.615" y="292.21" width="5.66194" height="5.66194" fill="#9CB7A5"/>
<rect x="127.667" y="273.651" width="111.311" height="7.29908" fill="#E3D7C7"/>
<rect x="133.026" y="281.072" width="100.592" height="83.6893" fill="#E3D7C7"/>
<rect x="135.878" y="282.775" width="94.888" height="79.3775" fill="#D46436"/>
<path d="M138.797 340.231V363.112H134.675V304.57H177.344L183.116 291.79H166.213L171.572 282.102H230.732V307.25L209.5 363.112H156.525L177.344 309.105H159.411L138.797 340.231Z" fill="#1D2834" fill-opacity="0.1" style="mix-blend-mode:multiply"/>
<rect x="135.878" y="282.775" width="1.21651" height="22.5055" fill="#D57D55"/>
<rect x="149.26" y="282.775" width="1.21651" height="22.5055" fill="#D57D55"/>
<rect x="162.642" y="282.775" width="1.21651" height="22.5055" fill="#D57D55"/>
<rect x="176.022" y="282.775" width="1.21651" height="22.5055" fill="#D57D55"/>
<rect x="189.404" y="282.775" width="1.21651" height="22.5055" fill="#D57D55"/>
<rect x="202.786" y="282.775" width="1.21651" height="22.5055" fill="#D57D55"/>
<rect x="216.168" y="282.775" width="1.21651" height="22.5055" fill="#D57D55"/>
<rect x="229.55" y="282.775" width="1.21651" height="22.5055" fill="#D57D55"/>
<rect x="130.708" y="291.899" width="105.228" height="3.04128" fill="#FFFDFB"/>
<rect x="130.708" y="304.064" width="105.228" height="3.04128" fill="#FFFDFB"/>
<rect x="169.718" y="298.589" width="54.7431" height="15.5105" rx="1.21651" fill="#D57D55"/>
<rect x="179.064" y="314.101" width="35.583" height="49.2688" fill="#E3D7C7"/>
<rect x="169.94" y="331.436" width="55.9596" height="4.56192" fill="#FFFDFB"/>
<rect x="169.94" y="331.436" width="3.04128" height="33.15" fill="#FFFDFB"/>
<rect x="222.858" y="331.436" width="3.04128" height="33.15" fill="#FFFDFB"/>
<rect x="182.105" y="339.039" width="29.5004" height="25.5468" fill="#D57D55"/>
<path d="M177.019 308.344C176.73 308.344 176.446 308.311 176.168 308.245C175.892 308.178 175.648 308.084 175.438 307.964L175.697 307.411C175.855 307.5 176.048 307.579 176.275 307.648C176.504 307.718 176.746 307.752 177.002 307.752C177.19 307.752 177.333 307.727 177.43 307.676C177.528 307.624 177.595 307.548 177.63 307.448C177.666 307.348 177.684 307.229 177.684 307.09C177.684 307.013 177.671 306.943 177.645 306.879C177.618 306.815 177.566 306.757 177.487 306.704C177.41 306.649 177.292 306.599 177.134 306.552L176.334 306.304C176.12 306.238 175.952 306.153 175.83 306.05C175.707 305.945 175.621 305.821 175.57 305.678C175.52 305.535 175.494 305.375 175.494 305.196C175.494 304.935 175.556 304.723 175.68 304.559C175.804 304.394 175.973 304.272 176.188 304.193C176.404 304.114 176.645 304.075 176.912 304.075C177.211 304.075 177.473 304.101 177.698 304.153C177.925 304.206 178.125 304.283 178.296 304.385L178.093 304.926C177.95 304.854 177.786 304.793 177.602 304.742C177.42 304.69 177.217 304.664 176.994 304.664C176.755 304.664 176.567 304.698 176.43 304.768C176.293 304.837 176.224 304.974 176.224 305.176C176.224 305.314 176.258 305.421 176.326 305.498C176.393 305.575 176.526 305.645 176.723 305.709L177.537 305.966C177.817 306.052 178.025 306.183 178.16 306.357C178.297 306.532 178.366 306.779 178.366 307.098C178.366 307.339 178.32 307.553 178.228 307.741C178.136 307.927 177.99 308.075 177.791 308.183C177.594 308.291 177.336 308.344 177.019 308.344ZM180.939 308.344C180.591 308.344 180.306 308.308 180.082 308.237C179.861 308.166 179.688 308.067 179.564 307.941C179.44 307.815 179.353 307.668 179.304 307.499C179.256 307.33 179.231 307.146 179.231 306.949V304.139H179.978V306.994C179.978 307.199 180.018 307.357 180.099 307.468C180.18 307.577 180.293 307.652 180.437 307.693C180.582 307.733 180.749 307.752 180.939 307.752C181.134 307.752 181.299 307.732 181.432 307.69C181.567 307.649 181.671 307.574 181.742 307.465C181.814 307.354 181.849 307.197 181.849 306.994V304.139H182.596V306.927C182.596 307.122 182.573 307.305 182.526 307.476C182.479 307.647 182.396 307.798 182.278 307.93C182.159 308.059 181.992 308.161 181.776 308.234C181.56 308.308 181.281 308.344 180.939 308.344ZM183.675 304.142H185.307C185.726 304.142 186.045 304.245 186.263 304.449C186.481 304.652 186.59 304.988 186.59 305.455C186.59 305.777 186.544 306.038 186.454 306.239C186.364 306.44 186.22 306.587 186.023 306.681C185.826 306.773 185.568 306.819 185.251 306.819H184.425V308.274H183.675V304.142ZM185.341 306.27C185.491 306.27 185.604 306.239 185.679 306.177C185.756 306.113 185.808 306.023 185.834 305.906C185.862 305.79 185.877 305.653 185.877 305.495C185.877 305.354 185.863 305.222 185.837 305.098C185.813 304.974 185.764 304.874 185.69 304.799C185.619 304.722 185.511 304.683 185.366 304.683H184.425V306.27H185.341ZM187.435 304.142H190.101V304.703H188.182V305.887H189.881V306.431H188.182V307.713H190.132V308.274H187.435V304.142ZM191.048 308.274V304.142H192.852C193.173 304.142 193.428 304.189 193.618 304.283C193.81 304.377 193.947 304.515 194.03 304.697C194.114 304.88 194.156 305.105 194.156 305.374C194.156 305.56 194.138 305.726 194.1 305.873C194.064 306.019 194.002 306.145 193.914 306.25C193.828 306.354 193.709 306.437 193.559 306.501L194.382 308.274H193.61L192.852 306.614H191.798V308.274H191.048ZM191.798 306.073H192.883C193.033 306.073 193.147 306.044 193.226 305.985C193.305 305.927 193.36 305.848 193.39 305.749C193.42 305.647 193.435 305.535 193.435 305.413C193.435 305.295 193.423 305.18 193.398 305.069C193.376 304.957 193.329 304.865 193.257 304.793C193.186 304.72 193.076 304.683 192.928 304.683H191.798V306.073ZM195.213 308.274V304.142H196.002L197.313 306.354H197.183L198.488 304.142H199.283V308.274H198.581V305.044L198.643 305.061L197.507 307.036H196.994L195.83 305.072L195.918 305.055V308.274H195.213ZM200.055 308.274L201.475 304.142H202.383L203.814 308.274H203.028L201.909 304.652H201.985L200.836 308.274H200.055ZM200.79 307.482L200.945 306.91H202.929L203.079 307.482H200.79ZM204.587 308.274V304.142H206.39C206.711 304.142 206.967 304.189 207.157 304.283C207.348 304.377 207.486 304.515 207.568 304.697C207.653 304.88 207.695 305.105 207.695 305.374C207.695 305.56 207.676 305.726 207.639 305.873C207.603 306.019 207.541 306.145 207.453 306.25C207.366 306.354 207.248 306.437 207.098 306.501L207.92 308.274H207.148L206.39 306.614H205.336V308.274H204.587ZM205.336 306.073H206.421C206.572 306.073 206.686 306.044 206.765 305.985C206.844 305.927 206.898 305.848 206.928 305.749C206.959 305.647 206.974 305.535 206.974 305.413C206.974 305.295 206.961 305.18 206.937 305.069C206.914 304.957 206.867 304.865 206.796 304.793C206.725 304.72 206.615 304.683 206.466 304.683H205.336V306.073ZM210.288 306.273L210.127 306.276L209.499 307.034V308.274H208.752V304.142H209.499V306.228L211.221 304.142H212.041L210.288 306.273ZM209.91 306.267L210.437 305.842L212.139 308.274H211.3L209.91 306.267ZM212.804 304.142H215.47V304.703H213.551V305.887H215.251V306.431H213.551V307.713H215.501V308.274H212.804V304.142ZM217.17 308.274V304.723H216.006V304.142H219.081V304.723H217.917V308.274H217.17Z" fill="white"/>
<rect x="62.9414" y="323.947" width="70.0847" height="40.814" fill="#E3D7C7"/>
<rect x="84.791" y="339.2" width="29.5004" height="25.5468" fill="#D57D55"/>
<g clip-path="url(#clip2_221_16019)">
<g style="mix-blend-mode:multiply" opacity="0.5">
<path fill-rule="evenodd" clip-rule="evenodd" d="M73.1865 378.966C104.507 383.29 123.533 385.113 130.659 385.913C134.306 386.321 134.077 385.885 131.001 387.422C127.883 388.979 125.211 390.448 123.442 391.452C120.434 393.157 120.595 392.7 117.052 392.212C81.0369 387.256 66.3037 382.897 66.3037 382.897C64.032 382.449 73.1865 378.963 73.1865 378.963V378.966Z" fill="#B0B0B0"/>
</g>
<path fill-rule="evenodd" clip-rule="evenodd" d="M92.254 372.72C113.498 370.594 128.686 375.474 124.784 386.716C124.289 388.142 120.889 387.561 119.911 387.422C118.677 387.246 117.504 387.078 115.951 386.851C115.591 387.596 115.172 388.122 114.232 388.615C113.727 388.881 111.473 389.943 110.887 389.943C108.859 389.943 108.206 387.988 107.822 385.644C97.7498 384.122 85.4642 382.173 77.1489 380.608C72.3493 379.705 69.4218 379.771 68.8337 378.769C68.2105 370.763 76.4428 368.881 92.2566 372.72H92.254Z" fill="#302C2A"/>
<path fill-rule="evenodd" clip-rule="evenodd" d="M81.3827 380.707C81.5034 379.643 80.4982 379.522 79.5483 379.593C79.4378 380.908 78.7467 382.493 77.4727 384.349C77.4727 384.349 78.4753 383.851 79.9479 383.16C80.5786 382.84 81.2043 382.277 81.3827 380.707Z" fill="#302C2A"/>
<path fill-rule="evenodd" clip-rule="evenodd" d="M76.314 375.562C74.3715 375.562 72.8362 377.57 72.8839 380.045C72.9316 382.52 74.5449 384.527 76.4874 384.527C78.4299 384.527 79.9653 382.52 79.9175 380.045C79.8698 377.57 78.2565 375.562 76.314 375.562Z" fill="#4A4441"/>
<path fill-rule="evenodd" clip-rule="evenodd" d="M76.3446 377.035C75.0404 377.035 74.0101 378.383 74.0427 380.046C74.0754 381.709 75.1585 383.057 76.4627 383.057C77.7669 383.057 78.7972 381.709 78.7645 380.046C78.7318 378.383 77.6488 377.035 76.3446 377.035Z" fill="#96918E"/>
<path fill-rule="evenodd" clip-rule="evenodd" d="M76.3523 377.484C75.9577 377.481 75.6135 377.622 75.3144 377.856C74.744 378.306 74.3746 379.116 74.3922 380.044C74.4198 381.458 75.3421 382.605 76.4503 382.605C77.5585 382.605 78.4129 381.453 78.4103 380.044C78.4103 379.172 78.0686 378.425 77.5308 377.962C77.1991 377.677 76.7895 377.486 76.3498 377.481L76.3523 377.484Z" fill="#A8A4A1"/>
<path fill-rule="evenodd" clip-rule="evenodd" d="M78.3302 379.375C78.2095 378.784 77.8929 378.332 77.5336 377.964C76.1138 379.826 76.4279 380.276 78.3302 379.375Z" fill="#3D3633"/>
<path fill-rule="evenodd" clip-rule="evenodd" d="M78.3144 380.903C78.1938 381.494 77.8319 382.017 77.4625 382.253C76.0428 380.392 76.4147 380 78.3144 380.903Z" fill="#3D3633"/>
<path fill-rule="evenodd" clip-rule="evenodd" d="M74.4746 379.257C74.545 378.694 74.9395 378.15 75.3164 377.856C76.5452 379.717 76.1206 380.158 74.4746 379.257Z" fill="#3D3633"/>
<path fill-rule="evenodd" clip-rule="evenodd" d="M74.5176 380.809C74.6231 381.4 74.9473 381.765 75.3016 382.152C76.5304 380.291 76.1635 379.906 74.5176 380.809Z" fill="#3D3633"/>
<path fill-rule="evenodd" clip-rule="evenodd" d="M76.3063 380.563C76.4596 380.563 76.5852 380.374 76.5852 380.143C76.5852 379.911 76.4596 379.723 76.3063 379.723C76.153 379.723 76.0273 379.911 76.0273 380.143C76.0273 380.374 76.153 380.563 76.3063 380.563Z" fill="#857F7B"/>
<path fill-rule="evenodd" clip-rule="evenodd" d="M72.3294 379.635C72.6561 372.124 80.7627 372.735 80.9436 380.674L105.422 384.656C105.341 380.176 107.985 378.398 110.347 378.541C112.119 378.649 114.584 379.628 115.403 382.452C115.682 383.413 115.913 384.701 115.913 386.049C122.09 386.673 124.48 387.091 124.48 387.091C131.054 383.119 134.343 381.134 134.343 381.134C134.838 376.506 134.242 373.671 132.559 372.625C125.53 369.05 122.017 367.264 122.017 367.264C118.813 362.196 117.542 359.683 116.815 357.965C115.019 355.417 114.493 354.657 112.928 354.708C101.62 355.057 87.4345 354.225 76.1515 354.994C72.352 355.253 71.8243 354.879 71.1056 357.52C69.0274 365.162 68.8892 370.124 68.3213 378.584C70.1582 379.298 71.6911 379.489 72.3269 379.638L72.3294 379.635Z" fill="#D1D1D1"/>
<path fill-rule="evenodd" clip-rule="evenodd" d="M116.836 357.992C114.295 359.741 103.791 359.939 103.791 359.939C108.191 366.537 109.174 368.077 110.086 370.106C122.005 370.763 122.859 367.697 122.859 367.697C121.927 365.994 120.695 364.603 119.851 363.234C117.974 360.188 116.836 357.992 116.836 357.992Z" fill="#4D606B"/>
<path fill-rule="evenodd" clip-rule="evenodd" d="M116.968 382.022C121.813 382.475 124.17 382.827 124.17 382.827C123.582 379.723 123.602 378.827 122.627 377.288C120.718 374.27 116.664 374.954 109.658 370.748C109.658 370.748 106.68 366.663 103.647 360.868C101.418 356.612 100.436 356.672 94.8069 356.481C87.0998 356.222 77.5206 355.945 74.0729 355.897C71.6655 355.864 72.5501 355.792 71.7133 358.362C70.0045 363.609 70.1226 370.861 69.5723 377.64C71.0448 378.093 71.8565 378.302 71.8565 378.302C72.6883 369.576 83.1822 372.662 82.6017 379.698C93.3695 381.23 104.514 383.214 104.514 383.214C104.738 378.787 107.64 376.715 110.673 376.936C113.146 377.117 115.704 378.822 116.971 382.022H116.968Z" fill="#C4C4C4"/>
<path fill-rule="evenodd" clip-rule="evenodd" d="M74.6832 369.956C74.932 369.377 75.0577 369.088 75.0577 369.088C75.0577 369.088 72.9946 368.814 70.0972 368.441C70.0972 368.441 69.8685 368.738 69.7881 369.266C72.8463 369.709 74.6832 369.956 74.6832 369.956Z" fill="#E0E0E0"/>
<path fill-rule="evenodd" clip-rule="evenodd" d="M96.2168 359.683C100.509 359.369 101.594 359.821 102.029 360.579C105.854 366.99 107.713 369.664 107.713 369.664C106.278 369.616 97.3878 368.829 96.1841 368.303C95.7318 362.913 96.2168 359.686 96.2168 359.686V359.683Z" fill="#4D606B"/>
<path fill-rule="evenodd" clip-rule="evenodd" d="M122.306 369.237C121.821 369.732 119.868 370.411 117.725 370.779C119.011 371.563 118.893 371.506 118.893 371.506C121.13 371.063 122.678 370.54 123.132 369.876C122.58 369.451 122.303 369.237 122.303 369.237H122.306Z" fill="#A1A1A1"/>
<path fill-rule="evenodd" clip-rule="evenodd" d="M84.6193 379.938C91.3639 380.909 94.7388 381.392 94.7388 381.392C94.7312 379.128 94.5402 376.658 94.5453 374.514C94.5453 373.908 94.6835 373.84 94.691 373.249C94.7463 368.135 95.0881 362.388 95.1961 357.958C88.9339 357.661 85.2073 357.619 85.2073 357.619C84.3102 363.852 84.1443 371.81 84.6218 379.938H84.6193Z" fill="#544E4E"/>
<path fill-rule="evenodd" clip-rule="evenodd" d="M94.7386 381.391C87.9915 380.42 84.6191 379.937 84.6191 379.937C85.5213 379.638 85.9711 379.49 85.9711 379.49C85.8856 377.731 85.8429 376.851 85.8429 376.851C91.7684 377.588 94.7286 377.958 94.7286 377.958C94.7336 380.247 94.7361 381.391 94.7361 381.391H94.7386Z" fill="#B5B5B5"/>
<path fill-rule="evenodd" clip-rule="evenodd" d="M102.22 361.181C102.647 361.236 102.863 361.533 102.868 362.071C102.868 362.071 102.861 364.395 102.933 368.994C102.823 368.981 102.68 369.051 102.338 368.968C102.338 368.968 102.298 366.373 102.22 361.181Z" fill="#3B3434"/>
<path fill-rule="evenodd" clip-rule="evenodd" d="M96.6164 360.254C96.6063 361.567 96.6013 362.86 96.5988 364.136C96.5988 365.416 96.5988 366.679 96.6038 367.921L105.871 368.968L106.196 368.525L101.456 360.81L101.449 360.795C101.341 360.602 101.19 360.458 101.001 360.37C100.793 360.272 100.524 360.229 100.2 360.244L96.6164 360.254ZM95.752 364.136C95.752 362.722 95.7595 361.288 95.7721 359.832V359.412L100.165 359.399C100.627 359.379 101.024 359.447 101.361 359.603C101.713 359.766 101.986 360.021 102.182 360.365L107.221 368.565L108.178 370.072L106.268 369.868L95.7645 368.681V368.304C95.7545 366.938 95.752 365.549 95.7545 364.136H95.752Z" fill="#473F3F"/>
<path fill-rule="evenodd" clip-rule="evenodd" d="M106.198 366.263C106.181 367.79 106.223 369.206 106.246 370.66C105.874 370.755 105.502 370.836 105.135 370.906C104.638 370.999 104.625 371.045 104.148 370.879C103.916 370.798 103.801 370.758 103.801 370.758L103.901 365.788C105.115 365.571 105.63 365.478 105.63 365.478C106.281 365.695 106.208 365.516 106.198 366.26V366.263Z" fill="#3D3636"/>
<path fill-rule="evenodd" clip-rule="evenodd" d="M104.125 365.946C104.167 365.961 104.21 365.976 104.253 365.994C104.296 366.009 104.338 366.024 104.381 366.042C104.424 366.057 104.466 366.072 104.509 366.089C104.688 366.155 104.695 366.125 104.881 366.084C104.964 366.067 105.044 366.049 105.127 366.034C105.21 366.016 105.291 365.999 105.374 365.984C105.457 365.969 105.537 365.948 105.62 365.933C105.625 365.959 105.63 365.986 105.635 366.011C105.555 366.029 105.474 366.044 105.394 366.062C105.313 366.079 105.233 366.097 105.153 366.112C104.668 366.208 104.67 366.718 104.668 367.324L104.662 368.436L104.652 370.66H104.572C104.572 370.287 104.575 369.918 104.577 369.548C104.577 369.178 104.58 368.806 104.582 368.436C104.582 368.066 104.585 367.694 104.587 367.324C104.587 366.907 104.635 366.208 104.346 366.122C104.303 366.109 104.263 366.092 104.223 366.077C104.183 366.062 104.14 366.047 104.1 366.031C104.11 366.006 104.117 365.981 104.127 365.956L104.125 365.946Z" fill="#473F3F"/>
<path fill-rule="evenodd" clip-rule="evenodd" d="M122.062 367.636C118.265 361.489 116.453 358.319 116.453 358.319C116.139 358.46 116.192 358.515 115.936 358.598C119.853 364.942 121.386 368.268 121.386 368.268C121.657 368.051 121.884 367.84 122.065 367.636H122.062Z" fill="#363030"/>
<path fill-rule="evenodd" clip-rule="evenodd" d="M119.139 377.781C113.367 376.918 105.429 375.751 94.543 374.514L94.6887 373.249C107.344 374.934 114.772 376.066 117.132 376.395C117.571 376.456 118.639 376.669 119.139 377.781Z" fill="#D6D6D6"/>
<path fill-rule="evenodd" clip-rule="evenodd" d="M96.5986 373.533C97.448 373.624 97.8727 373.669 97.8727 373.669C97.8727 373.669 97.9003 372.489 97.9581 370.133C97.9581 370.133 97.5058 370.09 96.5986 370.004V373.536V373.533Z" fill="#808080"/>
<path fill-rule="evenodd" clip-rule="evenodd" d="M97.0488 373.582C97.6946 373.685 97.8957 373.667 97.8957 373.667C97.8957 373.667 97.9183 372.488 97.961 370.131C97.961 370.131 97.7399 370.148 97.0488 370.048V373.579V373.582Z" fill="#5C5C5C"/>
<path fill-rule="evenodd" clip-rule="evenodd" d="M115.935 358.598C114.485 359.094 113.038 359.439 111.59 359.63C111.125 364.271 111.231 367.719 111.231 367.719C117.066 367.82 121.172 367.827 121.172 367.827C119.101 363.896 117.355 360.819 115.933 358.596L115.935 358.598Z" fill="#607480"/>
<path fill-rule="evenodd" clip-rule="evenodd" d="M111.623 359.464C111.613 360.777 111.608 362.073 111.606 363.345C111.606 364.626 111.606 365.889 111.611 367.131L120.273 367.332L120.597 366.862L116.463 359.585L116.455 359.57C116.347 359.386 116.197 359.258 116.008 359.185C115.8 359.107 115.531 359.089 115.207 359.132L111.623 359.464ZM110.759 363.423C110.759 362.01 110.769 360.576 110.779 359.117L115.171 358.29C115.634 358.227 116.081 358.106 116.418 358.234C116.77 358.368 116.991 358.75 117.187 359.074L122.195 367.36L121.911 368.663L110.769 367.966V367.589C110.759 366.223 110.756 364.835 110.759 363.423Z" fill="#43545E"/>
<path fill-rule="evenodd" clip-rule="evenodd" d="M118.591 370.104C116.44 370.512 114.317 370.66 110.804 370.481C110.073 370.446 109.977 370.559 109.618 369.938C109.072 368.985 108.472 368.004 107.424 366.316C106.368 364.618 105.557 363.328 103.999 360.898C103.627 360.317 103.541 359.615 104.23 359.57C108.248 359.308 112.126 359.046 115.95 357.771C116.656 357.537 116.531 357.525 116.905 358.128C118.9 361.346 120.858 364.477 122.856 367.694C122.278 369.274 120.049 369.825 118.591 370.102V370.104ZM118.466 369.435C120.37 369.075 121.318 368.457 122.062 367.637L116.367 358.415C113.601 359.695 107.534 360.133 104.745 360.324C106.406 362.92 109.168 366.847 110.691 369.402C111.012 369.943 111.246 369.82 111.909 369.843C114.892 369.953 116.548 369.797 118.466 369.435Z" fill="#473F3F"/>
<g style="mix-blend-mode:overlay" opacity="0.59">
<path fill-rule="evenodd" clip-rule="evenodd" d="M113.123 359.614C114.264 369.208 112.955 371.356 109.19 366.061C110.459 368.302 111.14 369.366 111.231 369.253C112.673 369.409 113.794 369.465 114.588 369.424C113.01 362.027 114.138 359.549 117.971 361.989C117.071 360.467 116.621 359.707 116.621 359.707C116.272 359.207 115.799 359.016 115.204 359.136C113.817 359.458 113.121 359.619 113.121 359.619L113.123 359.614Z" fill="#CCCCCC"/>
</g>
<g style="mix-blend-mode:overlay" opacity="0.59">
<path fill-rule="evenodd" clip-rule="evenodd" d="M109.49 360.552C108.065 361.53 107.505 362.536 107.811 363.573C106.592 361.756 105.984 360.848 105.984 360.848C107.449 360.831 108.618 360.733 109.492 360.552H109.49Z" fill="#CCCCCC"/>
</g>
<g style="mix-blend-mode:overlay" opacity="0.59">
<path fill-rule="evenodd" clip-rule="evenodd" d="M121.562 367.485C121.128 368.126 120.567 368.544 119.884 368.74C120.384 367.52 120.492 366.461 120.203 365.571C121.11 366.846 121.562 367.485 121.562 367.485Z" fill="#CCCCCC"/>
</g>
<g style="mix-blend-mode:overlay" opacity="0.59">
<path fill-rule="evenodd" clip-rule="evenodd" d="M100.116 360.848C98.4929 367.63 97.445 369.182 96.97 365.507C96.97 365.507 96.9198 366.465 96.9072 367.741C97.8697 367.771 98.4451 367.869 98.4577 367.869C99.9529 362.851 100.903 361.128 101.39 363.507C101.659 362.514 101.795 362.018 101.795 362.018C101.265 360.718 100.704 360.328 100.116 360.848Z" fill="#CCCCCC"/>
</g>
<path fill-rule="evenodd" clip-rule="evenodd" d="M122.896 387.429C117.451 386.89 115.438 386.513 115.438 386.513C115.606 383.505 115.083 382.672 115.398 382.453C120.991 383.228 124.168 383.293 124.168 383.293C131.053 380.486 134.501 378.743 134.501 378.743C134.503 378.373 134.506 378.19 134.506 378.19C135.451 378.451 135.199 379.138 135.104 382.169C130.832 384.629 128.058 385.794 126.329 386.785C124.509 387.826 124.404 387.58 122.899 387.431L122.896 387.429Z" fill="#544E4E"/>
<path fill-rule="evenodd" clip-rule="evenodd" d="M124.763 376.617C125.585 380.035 125.241 382.08 125.241 382.08C125.241 382.08 125.778 382.09 126.6 382.09C126.673 380.732 126.361 378.692 125.919 376.888C125.364 376.659 125.361 376.664 124.761 376.617H124.763Z" fill="#C4C4C4"/>
<path fill-rule="evenodd" clip-rule="evenodd" d="M121.946 377.272C122.836 378.592 123.266 380.758 123.409 382.645C124.424 382.886 124.17 382.826 124.17 382.826C125.281 382.358 126.09 382.081 126.09 382.081C126.226 379.895 125.648 377.682 124.763 376.618C123.612 377.015 122.504 377.101 122.504 377.101C121.858 377.108 121.946 377.272 121.946 377.272Z" fill="white"/>
<path fill-rule="evenodd" clip-rule="evenodd" d="M122.989 382.802C123.856 383.024 123.745 382.981 124.17 382.976C124.429 382.973 124.396 382.78 124.396 382.78C124.042 379.879 123.816 378.405 122.841 377.065C122.019 377.075 121.675 377.049 121.675 377.049C122.622 378.642 122.858 380.679 122.989 382.805V382.802Z" fill="#E67A4C"/>
<path fill-rule="evenodd" clip-rule="evenodd" d="M127.327 381.359C130.626 379.822 132.82 378.944 132.82 378.944C132.702 377.46 132.614 375.742 132.362 374.784C132.362 374.784 129.42 375.712 126.646 376.72C126.904 377.676 127.13 379.221 127.327 381.359Z" fill="#C4C4C4"/>
<path fill-rule="evenodd" clip-rule="evenodd" d="M133.578 373.691C134.035 374.584 134.478 376.325 134.505 378.186C133.686 378.526 133.086 378.825 133.086 378.825C133.025 377.06 132.973 375.472 132.696 374.577C132.668 374.486 132.166 374.396 132.136 374.315C132.87 374.036 133.578 373.694 133.578 373.694V373.691Z" fill="#FAFAFA"/>
<path fill-rule="evenodd" clip-rule="evenodd" d="M134.307 378.269C134.438 378.214 134.503 378.189 134.503 378.189C134.536 376.481 134.254 375.027 133.656 373.832C134.083 375.776 134.3 377.258 134.307 378.272V378.269Z" fill="#E67A4C"/>
<path fill-rule="evenodd" clip-rule="evenodd" d="M115.063 372.123C119.753 372.209 123.18 371.344 124.499 369.274C124.499 369.274 126.909 370.607 131.727 373.273C131.727 373.273 131.629 373.6 131.43 374.252C131.43 374.252 129.814 374.848 126.585 376.037C126.585 376.037 125.721 375.995 123.992 375.909C122.477 374.903 119.217 373.557 115.066 372.121L115.063 372.123Z" fill="#E8E8E8"/>
<path fill-rule="evenodd" clip-rule="evenodd" d="M103.551 358.962C109.303 358.579 113.369 358.194 115.553 357.402C114.801 355.85 114.065 355.382 113.259 355.063C111.256 355.445 107.147 355.483 101.016 356.104C102.302 357.108 103.084 357.923 103.554 358.962H103.551Z" fill="#E8E8E8"/>
<path fill-rule="evenodd" clip-rule="evenodd" d="M127.133 377.004C130.442 375.862 132.096 375.294 132.096 375.294C132.023 375.671 131.965 375.842 131.925 375.809C128.794 376.896 127.228 377.439 127.228 377.439C127.165 377.15 127.133 377.006 127.133 377.006V377.004Z" fill="#A1A1A1"/>
<path fill-rule="evenodd" clip-rule="evenodd" d="M127.324 378.073C130.634 376.825 132.287 376.202 132.287 376.202C132.214 376.581 132.157 376.755 132.116 376.722C128.985 377.91 127.42 378.503 127.42 378.503C127.357 378.216 127.324 378.073 127.324 378.073Z" fill="#A1A1A1"/>
<path fill-rule="evenodd" clip-rule="evenodd" d="M127.452 379.111C130.762 377.833 132.415 377.197 132.415 377.197C132.342 377.577 132.284 377.75 132.244 377.72C129.113 378.935 127.548 379.541 127.548 379.541L127.452 379.111Z" fill="#A1A1A1"/>
<path fill-rule="evenodd" clip-rule="evenodd" d="M127.578 380.175C130.888 378.822 132.541 378.145 132.541 378.145C132.468 378.527 132.41 378.701 132.37 378.671C129.239 379.959 127.674 380.603 127.674 380.603C127.611 380.318 127.578 380.175 127.578 380.175Z" fill="#A1A1A1"/>
<path fill-rule="evenodd" clip-rule="evenodd" d="M95.0059 363.313C90.3872 363.125 87.0802 363.135 87.0802 363.135C86.1529 365.94 85.2583 369.798 84.4014 374.711C84.2481 368.455 84.5019 362.506 85.2055 357.619C85.2055 357.619 88.9322 357.661 95.1944 357.958C95.1541 359.596 95.0813 361.412 95.0034 363.311L95.0059 363.313Z" fill="#474040"/>
<path fill-rule="evenodd" clip-rule="evenodd" d="M88.4121 373.242C89.8344 373.159 91.312 372.873 92.5257 372.744C92.38 371.341 92.6865 370.337 92.3649 368.078C91.6336 367.834 90.9803 367.53 90.9803 367.53C90.0304 367.5 88.985 367.678 88.2412 367.686C88.2789 368.896 88.2839 369.882 88.3292 370.906C88.3417 371.177 88.4372 371.504 88.4422 371.771C88.4523 372.249 88.4171 372.81 88.4096 373.24L88.4121 373.242Z" fill="#C48D35"/>
<path fill-rule="evenodd" clip-rule="evenodd" d="M87.251 368.46C88.6733 368.377 90.1509 368.09 91.3646 367.962C91.2188 366.558 91.1862 365.243 91.2364 363.535C90.5052 363.291 90.0528 363.009 90.0528 363.009C89.103 362.979 87.8214 363.125 87.0801 363.132C87.1178 364.342 87.1253 365.102 87.1705 366.123C87.1831 366.395 87.2786 366.722 87.2836 366.988C87.2937 367.466 87.2585 368.03 87.251 368.457V368.46Z" fill="#CC963F"/>
<path fill-rule="evenodd" clip-rule="evenodd" d="M84.4061 374.921C86.326 374.793 88.2107 374.28 89.8491 374.081C89.6531 371.911 90.0677 370.359 89.633 366.865C88.6479 366.487 87.7634 366.017 87.7634 366.017C86.4818 365.969 85.0695 366.248 84.0694 366.258C84.1197 368.13 84.1272 369.657 84.1875 371.241C84.2026 371.664 84.3333 372.167 84.3408 372.577C84.3534 373.317 84.3885 374.119 84.4061 374.919V374.921Z" fill="#D69F46"/>
<path fill-rule="evenodd" clip-rule="evenodd" d="M89.4067 373.85C89.3816 372.842 89.4394 367.358 88.8865 367.26C88.4719 367.142 88.0171 367.25 88.6026 366.903C86.7757 367.044 85.3685 367.154 84.1221 367.247C84.1849 369.959 84.592 372.24 84.5643 374.338C87.3788 374.112 88.6051 373.886 89.4067 373.85Z" fill="#DEAA56"/>
<path fill-rule="evenodd" clip-rule="evenodd" d="M84.0967 367.13C85.2727 367.052 86.6071 366.813 87.6122 366.692C87.4916 365.362 87.5142 363.792 87.3584 361.958C86.7553 361.727 86.2477 361.556 86.2477 361.556C85.333 361.548 84.5038 361.571 83.8906 361.579C83.9409 363.455 84.1294 365.231 84.0992 367.13H84.0967Z" fill="#D6A453"/>
<path fill-rule="evenodd" clip-rule="evenodd" d="M87.2176 366.238C87.2025 365.622 87.2377 362.261 86.8984 362.201C86.6446 362.128 86.3657 362.196 86.725 361.982C85.6043 362.067 84.677 362.125 83.9131 362.183C83.9508 363.843 84.0463 365.589 84.0789 366.718C85.8028 366.58 86.725 366.258 87.2176 366.238Z" fill="#DEAA56"/>
<path fill-rule="evenodd" clip-rule="evenodd" d="M74.7611 356.775C73.9997 361.439 73.8363 365.783 73.6931 370.909C73.6855 371.171 73.3589 371.742 73.3538 372.003C73.3061 374.242 73.1176 376.642 73.1855 378.966C73.1855 378.966 77.1936 379.663 83.9055 380.634C83.9407 374.755 84.3604 366.945 85.1595 357.2C78.5078 356.974 74.7585 356.775 74.7585 356.775H74.7611Z" fill="#D9D9D9"/>
<path fill-rule="evenodd" clip-rule="evenodd" d="M74.5605 370.932C75.4074 371.022 75.8321 371.068 75.8321 371.068C75.8321 371.068 75.8999 369.888 76.0381 367.531C76.0381 367.531 75.5858 367.488 74.6812 367.403C74.6008 369.757 74.5605 370.934 74.5605 370.934V370.932Z" fill="#808080"/>
<path fill-rule="evenodd" clip-rule="evenodd" d="M75.0078 370.979C75.6511 371.082 75.8521 371.065 75.8521 371.065C75.8521 371.065 75.915 369.885 76.0381 367.528C76.0381 367.528 75.817 367.546 75.1284 367.445C75.048 369.799 75.0078 370.977 75.0078 370.977V370.979Z" fill="#5C5C5C"/>
<path fill-rule="evenodd" clip-rule="evenodd" d="M84.3811 358.746C78.3903 358.236 75.2794 358.233 75.2794 358.233C74.9954 359.644 74.7089 362.542 74.3848 366.491C74.3848 366.491 77.4907 366.818 83.7026 367.47C83.7026 367.47 83.9966 364.25 84.3811 358.746Z" fill="#C9C9C9"/>
<path fill-rule="evenodd" clip-rule="evenodd" d="M73.6937 370.907C73.5028 371.445 73.3545 372.001 73.3545 372.001C75.4201 372.333 78.6944 372.846 84.0494 373.437C84.1198 372.635 84.155 372.235 84.155 372.235C77.0007 371.327 73.6937 370.909 73.6937 370.909V370.907Z" fill="#E8E8E8"/>
<path fill-rule="evenodd" clip-rule="evenodd" d="M124.784 386.716C126.824 385.78 127.895 384.975 127.895 384.975C127.879 383.884 127.812 383.471 127.812 383.471C125.527 384.238 124.49 384.809 124.675 384.779C124.746 386.069 124.781 386.716 124.781 386.716H124.784Z" fill="#3D3A3A"/>
<path fill-rule="evenodd" clip-rule="evenodd" d="M135.194 380.011C135.144 381.121 135.122 381.621 135.122 381.621C135.122 381.621 134.536 381.958 133.368 382.524C133.368 382.524 133.347 382.072 133.305 381.164C133.305 381.164 133.935 380.779 135.194 380.011Z" fill="#3D3A3A"/>
<path fill-rule="evenodd" clip-rule="evenodd" d="M110.223 379.765C107.911 379.765 106.085 382.059 106.14 384.886C106.198 387.714 108.118 390.008 110.429 390.008C112.741 390.008 114.568 387.714 114.513 384.886C114.455 382.059 112.535 379.765 110.223 379.765Z" fill="#4A4441"/>
<path fill-rule="evenodd" clip-rule="evenodd" d="M110.256 381.45C108.703 381.45 107.477 382.989 107.515 384.888C107.552 386.787 108.841 388.327 110.394 388.327C111.947 388.327 113.174 386.787 113.136 384.888C113.098 382.989 111.809 381.45 110.256 381.45Z" fill="#96918E"/>
<path fill-rule="evenodd" clip-rule="evenodd" d="M110.266 381.962C109.796 381.959 109.387 382.118 109.032 382.387C108.354 382.9 107.914 383.826 107.934 384.887C107.967 386.502 109.065 387.812 110.384 387.812C111.704 387.812 112.721 386.497 112.716 384.887C112.716 383.891 112.309 383.038 111.671 382.51C111.276 382.183 110.789 381.967 110.266 381.962Z" fill="#A8A4A1"/>
<path fill-rule="evenodd" clip-rule="evenodd" d="M112.618 384.12C112.473 383.443 112.098 382.927 111.671 382.507C109.982 384.633 110.357 385.148 112.618 384.12Z" fill="#3D3633"/>
<path fill-rule="evenodd" clip-rule="evenodd" d="M112.603 385.865C112.458 386.541 112.028 387.137 111.588 387.409C109.897 385.284 110.339 384.836 112.603 385.865Z" fill="#3D3633"/>
<path fill-rule="evenodd" clip-rule="evenodd" d="M108.032 383.988C108.115 383.344 108.585 382.722 109.032 382.388C110.495 384.513 109.99 385.019 108.032 383.988Z" fill="#3D3633"/>
<path fill-rule="evenodd" clip-rule="evenodd" d="M108.082 385.76C108.208 386.437 108.592 386.852 109.017 387.295C110.479 385.169 110.042 384.729 108.082 385.76Z" fill="#3D3633"/>
<path fill-rule="evenodd" clip-rule="evenodd" d="M110.211 385.478C110.394 385.478 110.542 385.262 110.542 384.998C110.542 384.734 110.394 384.518 110.211 384.518C110.027 384.518 109.879 384.734 109.879 384.998C109.879 385.262 110.027 385.478 110.211 385.478Z" fill="#857F7B"/>
<path fill-rule="evenodd" clip-rule="evenodd" d="M69.2252 367.005C69.0242 368.937 68.8558 370.814 68.7227 372.635C69.2755 372.929 69.5167 372.949 69.4514 372.698C69.6323 369.923 69.7705 367.997 69.8434 367.146C69.5695 367.146 69.3986 367.121 69.2278 367.008L69.2252 367.005Z" fill="#9C1D1D"/>
<path fill-rule="evenodd" clip-rule="evenodd" d="M69.5723 370.838C69.5195 371.648 69.4918 372.053 69.4918 372.053C69.0194 371.897 68.7832 371.819 68.7832 371.819C68.846 371.052 68.8787 370.667 68.8787 370.667C69.3411 370.78 69.5723 370.838 69.5723 370.838Z" fill="#FAF1EB"/>
<path fill-rule="evenodd" clip-rule="evenodd" d="M69.1197 368.042C69.0644 368.61 68.9814 369.503 68.9814 369.503C69.1448 369.531 69.3684 369.576 69.6449 369.659C69.6449 369.659 69.7177 368.774 69.7604 368.2C69.5142 368.175 69.3006 368.12 69.1222 368.042H69.1197Z" fill="#D6712D"/>
<path fill-rule="evenodd" clip-rule="evenodd" d="M68.5119 378.837C71.1831 379.539 72.3265 379.635 72.3265 379.635C72.6431 377.977 72.8869 376.933 72.8869 376.933C69.0547 376.226 68.5119 375.625 68.5119 375.625C68.0747 375.605 68.1601 375.575 68.1777 376.649C67.9164 377.796 67.9767 378.47 68.5094 378.837H68.5119Z" fill="#544E4E"/>
<path fill-rule="evenodd" clip-rule="evenodd" d="M109.015 370.728C109.015 370.653 108.957 370.59 108.884 370.59C108.809 370.59 108.746 370.648 108.746 370.721L108.64 374.2C108.61 375.208 107.949 375.565 107.137 376.001C106.881 376.139 106.61 376.285 106.338 376.458C105.524 376.982 104.878 377.797 104.398 378.901C103.923 379.992 103.612 381.373 103.464 383.039C103.456 383.114 103.511 383.179 103.587 383.185C103.662 383.192 103.727 383.137 103.732 383.061C103.878 381.426 104.185 380.076 104.647 379.009C105.105 377.955 105.718 377.18 106.484 376.687C106.748 376.516 107.014 376.373 107.266 376.24C108.153 375.762 108.876 375.374 108.912 374.207L109.017 370.728H109.015Z" fill="#A1A1A1"/>
<path fill-rule="evenodd" clip-rule="evenodd" d="M125.957 380.814C124.856 380.253 124.231 378.771 123.826 378.55C124.502 378.497 125.532 380.203 125.957 380.814Z" fill="#E6E6E6"/>
<path fill-rule="evenodd" clip-rule="evenodd" d="M125.711 379.516C125.005 379.068 123.844 377.564 123.844 377.564C124.278 377.584 125.439 379.088 125.711 379.516Z" fill="#E6E6E6"/>
<path fill-rule="evenodd" clip-rule="evenodd" d="M125.955 381.72C125.249 381.36 124.027 379.725 124.027 379.725C124.462 379.693 125.681 381.328 125.955 381.72Z" fill="#E6E6E6"/>
<path fill-rule="evenodd" clip-rule="evenodd" d="M133.174 377.508C133.631 377.045 133.691 375.782 133.857 375.596C133.508 375.541 133.282 376.987 133.174 377.508Z" fill="#E6E6E6"/>
<path fill-rule="evenodd" clip-rule="evenodd" d="M133.076 376.395C133.355 376.023 133.682 374.75 133.682 374.75C133.468 374.76 133.142 376.033 133.076 376.395Z" fill="#E6E6E6"/>
<path fill-rule="evenodd" clip-rule="evenodd" d="M133.332 378.286C133.626 377.989 133.96 376.603 133.96 376.603C133.737 376.568 133.402 377.951 133.332 378.286Z" fill="#E6E6E6"/>
<path fill-rule="evenodd" clip-rule="evenodd" d="M122.841 377.062C122.6 377.062 122.479 377.064 122.479 377.064C123.367 378.402 123.919 380.261 124.138 382.643C124.228 380.256 123.799 378.397 122.844 377.062H122.841Z" fill="#FFB291"/>
</g>
<g clip-path="url(#clip3_221_16019)">
<path d="M158.594 362.324L142 363.844L143.183 371.314L154.935 371.402L158.594 362.324Z" stroke="#1D1D1B" stroke-width="0.105263" stroke-miterlimit="10"/>
<path d="M145.436 376.888C146.064 376.888 146.573 376.379 146.573 375.752C146.573 375.124 146.064 374.615 145.436 374.615C144.808 374.615 144.299 375.124 144.299 375.752C144.299 376.379 144.808 376.888 145.436 376.888Z" fill="#1D1D1B"/>
<path d="M157.031 375.752C157.031 375.087 156.493 374.548 155.827 374.548C155.162 374.548 154.623 375.087 154.623 375.752C154.623 376.417 155.162 376.956 155.827 376.956C156.493 376.956 157.031 376.417 157.031 375.752Z" fill="#1D1D1B"/>
<path d="M142 363.844L143.183 371.314L154.935 371.402L158.594 362.328L142 363.844ZM152.968 365.082L153.204 363.874C153.267 363.549 153.608 363.259 153.962 363.225L154.446 363.175C154.8 363.137 155.023 363.381 154.943 363.714L154.644 364.956C154.564 365.288 154.232 365.575 153.903 365.596L153.457 365.625C153.128 365.646 152.909 365.402 152.973 365.078L152.968 365.082ZM153.385 365.945L153.827 365.92C154.156 365.899 154.354 366.156 154.274 366.488L153.975 367.731C153.895 368.063 153.587 368.337 153.284 368.341L152.876 368.349C152.577 368.354 152.383 368.097 152.446 367.773L152.682 366.564C152.745 366.24 153.061 365.966 153.385 365.945ZM150.964 365.229L151.12 364.067C151.162 363.756 151.486 363.474 151.84 363.44L152.324 363.389C152.678 363.352 152.922 363.583 152.859 363.903L152.636 365.103C152.577 365.423 152.261 365.701 151.933 365.722L151.486 365.752C151.158 365.773 150.922 365.537 150.964 365.229ZM151.44 366.063L151.882 366.038C152.206 366.017 152.425 366.261 152.366 366.585L152.143 367.785C152.084 368.105 151.794 368.371 151.491 368.375H151.082C150.783 368.387 150.573 368.139 150.615 367.827L150.771 366.665C150.813 366.354 151.112 366.088 151.436 366.067L151.44 366.063ZM148.968 364.265C148.989 363.966 149.293 363.697 149.651 363.659L150.135 363.608C150.488 363.571 150.749 363.794 150.712 364.101L150.573 365.255C150.535 365.562 150.236 365.832 149.907 365.853L149.461 365.882C149.133 365.903 148.88 365.68 148.901 365.381L148.977 364.265H148.968ZM145.36 364.097L145.844 364.046C146.198 364.008 146.493 364.211 146.497 364.497L146.514 365.562C146.518 365.848 146.257 366.093 145.924 366.114L145.478 366.143C145.149 366.164 144.863 365.958 144.842 365.684L144.758 364.657C144.737 364.383 145.006 364.131 145.36 364.097ZM142.859 365.832L142.699 364.851C142.657 364.589 142.909 364.345 143.263 364.312L143.747 364.261C144.101 364.223 144.413 364.417 144.438 364.691L144.535 365.709C144.56 365.983 144.312 366.219 143.983 366.24L143.537 366.269C143.208 366.291 142.905 366.097 142.863 365.832H142.859ZM143.217 368.021L143.057 367.04C143.015 366.779 143.242 366.547 143.571 366.531L144.013 366.505C144.341 366.484 144.623 366.691 144.648 366.964L144.745 367.983C144.771 368.257 144.547 368.48 144.248 368.484L143.84 368.493C143.541 368.497 143.263 368.286 143.217 368.025V368.021ZM144.514 370.728L144.147 370.712C143.878 370.699 143.621 370.476 143.579 370.215L143.419 369.234C143.377 368.973 143.583 368.754 143.878 368.754H144.282C144.581 368.745 144.842 368.964 144.867 369.238L144.964 370.257C144.989 370.531 144.792 370.741 144.518 370.728H144.514ZM144.939 366.947C144.918 366.674 145.162 366.434 145.491 366.417L145.933 366.392C146.261 366.371 146.526 366.585 146.531 366.872L146.547 367.937C146.552 368.223 146.312 368.455 146.013 368.459L145.604 368.467C145.305 368.472 145.044 368.253 145.019 367.979L144.935 366.952L144.939 366.947ZM146.109 370.796L145.743 370.779C145.474 370.766 145.234 370.535 145.213 370.261L145.128 369.234C145.107 368.96 145.331 368.733 145.625 368.733H146.029C146.328 368.724 146.573 368.956 146.577 369.238L146.594 370.303C146.598 370.589 146.383 370.808 146.109 370.796ZM148.244 370.354C148.227 370.648 147.996 370.88 147.722 370.867L147.356 370.851C147.086 370.838 146.863 370.598 146.863 370.312V369.242C146.859 368.956 147.099 368.72 147.394 368.72H147.798C148.097 368.712 148.324 368.952 148.307 369.246L148.248 370.354H148.244ZM148.379 367.882C148.362 368.177 148.105 368.421 147.806 368.425H147.398C147.099 368.438 146.855 368.206 146.851 367.92V366.851C146.846 366.564 147.107 366.316 147.436 366.299L147.878 366.274C148.202 366.253 148.455 366.48 148.438 366.775L148.379 367.882ZM147.886 365.987L147.44 366.017C147.112 366.038 146.842 365.823 146.842 365.537V364.467C146.838 364.181 147.124 363.92 147.478 363.882L147.962 363.832C148.316 363.794 148.594 364.008 148.577 364.303L148.518 365.411C148.501 365.705 148.223 365.962 147.891 365.987H147.886ZM150.076 369.251L149.937 370.404C149.899 370.712 149.651 370.952 149.377 370.939L149.011 370.922C148.741 370.909 148.535 370.657 148.556 370.362L148.632 369.246C148.653 368.947 148.909 368.703 149.204 368.699H149.608C149.907 368.691 150.114 368.939 150.076 369.251ZM149.638 368.4H149.229C148.931 368.413 148.703 368.173 148.72 367.874L148.796 366.758C148.817 366.459 149.099 366.202 149.423 366.181L149.865 366.156C150.189 366.135 150.425 366.371 150.387 366.678L150.248 367.832C150.211 368.139 149.937 368.396 149.638 368.4ZM151.869 369.255L151.646 370.455C151.587 370.775 151.318 371.027 151.048 371.015L150.682 370.998C150.413 370.985 150.223 370.724 150.265 370.413L150.421 369.251C150.463 368.939 150.737 368.686 151.036 368.682H151.44C151.739 368.674 151.928 368.935 151.869 369.255ZM153.6 369.263L153.301 370.505C153.221 370.838 152.935 371.099 152.665 371.086L152.299 371.069C152.029 371.057 151.861 370.787 151.92 370.463L152.156 369.255C152.219 368.931 152.509 368.669 152.808 368.665H153.213C153.512 368.657 153.684 368.926 153.604 369.259L153.6 369.263ZM155.415 369.267L155.032 370.556C154.931 370.901 154.627 371.171 154.354 371.158L153.987 371.141C153.718 371.128 153.566 370.846 153.651 370.514L153.966 369.259C154.051 368.922 154.362 368.648 154.657 368.648H155.061C155.36 368.64 155.516 368.918 155.415 369.263V369.267ZM156.269 366.392L155.886 367.68C155.785 368.025 155.457 368.307 155.158 368.312L154.749 368.32C154.451 368.324 154.274 368.059 154.358 367.722L154.674 366.467C154.758 366.131 155.091 365.844 155.419 365.827L155.861 365.802C156.185 365.781 156.371 366.046 156.265 366.392H156.269ZM156.737 364.804C156.636 365.149 156.286 365.444 155.954 365.465L155.507 365.495C155.179 365.516 154.981 365.263 155.065 364.926L155.381 363.672C155.465 363.335 155.823 363.036 156.177 362.998L156.661 362.947C157.015 362.909 157.221 363.162 157.12 363.507L156.737 364.796V364.804Z" fill="white"/>
<path d="M158.333 362.864L157.912 362.771C157.921 362.733 158.114 361.874 159.019 360.99C159.676 360.35 160.733 360.017 160.779 360L160.91 360.413C160.91 360.413 159.904 360.733 159.323 361.297C158.514 362.085 158.337 362.855 158.333 362.859V362.864Z" fill="white"/>
<path d="M157.76 374.762H142.805V374.328H157.327V371.966L154.88 371.297L154.994 370.88L157.76 371.638V374.762Z" fill="white"/>
<path d="M164.169 360.164C164.169 360.446 163.937 360.678 163.655 360.678H160.914C160.632 360.678 160.4 360.446 160.4 360.164C160.4 359.882 160.632 359.651 160.914 359.651H163.655C163.937 359.651 164.169 359.882 164.169 360.164Z" fill="#1D1D1B"/>
</g>
<g clip-path="url(#clip4_221_16019)">
<path d="M58.8043 366.101L57.2508 364.475C56.7833 363.993 56.1926 363.38 56.2429 361.614V354.405H55.9814V361.915C55.9814 363.609 56.3937 364.183 57.1101 364.916C58.1557 365.989 58.4247 366.4 58.8822 366.874V366.293L58.8043 366.101Z" fill="#5A3D42"/>
<path d="M58.3794 356.987L59.5759 357.017L60.3123 380.651H57.6328L58.3794 356.987Z" fill="#5A3D42"/>
<path d="M59.9176 368.042C60.448 367.496 60.7471 366.75 60.7471 365.979V356.815H61.1518V366.211C61.1518 367.426 60.6793 368.598 59.8447 369.461L59.9176 368.042Z" fill="#5A3D42"/>
<path d="M61.1696 362.469L62.2831 361.305C62.6174 360.96 63.0397 360.521 63.0045 359.254V354.093H63.1905V359.471C63.1905 360.683 62.8939 361.095 62.3836 361.619C61.6346 362.387 61.4435 362.684 61.1143 363.023V362.607L61.1696 362.467V362.469Z" fill="#D79774"/>
<path d="M72.6643 352.903C72.6643 351.394 71.6086 350.142 70.2135 349.882C70.0979 347.134 67.901 344.936 65.1988 344.936C64.8167 344.936 64.4472 344.983 64.0903 345.068C63.6856 343.552 62.3433 342.437 60.7421 342.437C59.9428 342.437 59.2063 342.716 58.6206 343.185C57.8213 342.247 56.6474 341.653 55.3403 341.653C52.9674 341.653 51.042 343.599 50.9716 346.021C50.9088 346.019 50.8459 346.011 50.7806 346.011C48.5812 346.011 46.799 347.845 46.799 350.107C46.799 350.204 46.8065 350.299 46.8141 350.394C45.7056 350.958 44.9414 352.13 44.9414 353.484C44.9414 355.021 45.9217 356.326 47.2741 356.77C47.2715 356.847 47.2615 356.919 47.2615 356.997C47.2615 360.504 50.0215 363.347 53.43 363.347C54.1463 363.347 54.8301 363.213 55.471 362.983C56.3709 364.145 57.7459 364.889 59.2892 364.889C61.2524 364.889 62.9416 363.682 63.7233 361.943C64.2461 362.132 64.8092 362.242 65.3974 362.242C68.1724 362.242 70.4221 359.925 70.4221 357.069C70.4221 356.672 70.3744 356.283 70.2914 355.911C71.6463 355.62 72.6643 354.385 72.6643 352.903Z" fill="#73AD9A"/>
<path d="M53.0327 350.145C53.0302 350.082 53.0277 350.023 53.0277 349.963C53.0277 348.219 54.4027 346.8 56.0994 346.8C57.3587 346.8 58.4396 347.578 58.9147 348.695C59.3118 348.351 60.0382 347.837 60.5058 347.738C64.6834 346.85 64.696 351.776 64.8242 351.659C65.0152 351.487 65.5909 348.77 63.7534 347.259C61.1015 345.076 59.2062 346.563 58.7814 346.712C58.3064 345.597 56.9892 344.6 55.7324 344.6C54.0357 344.6 52.7286 345.732 52.7286 347.476C52.7286 347.538 52.613 348.498 52.618 348.558C51.6905 348.763 49.9561 349.813 49.9561 351.674C49.9561 352.295 50.0893 352.886 50.3205 353.417C50.5819 351.888 51.6377 350.641 53.0353 350.145H53.0327Z" fill="#9AB7A3"/>
<path d="M60.1818 351.993C61.3507 352.412 62.1098 353.497 62.2003 354.692C62.7608 354.425 63.8442 354.812 64.2841 354.969C66.192 355.652 66.8053 357.563 66.2297 359.581C66.5765 359.222 66.8556 358.78 67.029 358.269C67.6549 356.423 66.7072 354.4 64.9125 353.756C64.543 353.624 64.166 353.562 63.7939 353.559C63.7185 352.559 63.0801 351.649 62.0998 351.297C61.1848 350.968 60.2095 351.212 59.5459 351.843C59.7545 351.868 59.9682 351.916 60.1793 351.993H60.1818Z" fill="#9AB7A3"/>
</g>
<path d="M264.392 340.172H272.146V338.291H321.815V340.172H329.865V354.254H321.815V349.956H272.146V354.254H264.392V340.172Z" fill="#B4A4A7"/>
<rect x="254.232" y="340.939" width="10.1596" height="32.3455" fill="#FFFDFB"/>
<path d="M254.608 361.997V373.097L244.072 378.553V366.7L254.608 361.997Z" fill="#FFFDFB"/>
<path d="M339.272 361.997V373.097L349.808 378.553V366.7L339.272 361.997Z" fill="#FFFDFB"/>
<rect x="329.112" y="340.939" width="10.5359" height="32.3455" fill="#FFFDFB"/>
<path d="M273.085 340.94H254.242L251.975 340.187H271.498V337.553H322.691V340.187H340.401L338.587 340.94H321.331V339.058H273.085V340.94Z" fill="white"/>
<rect x="286.969" y="356.164" width="5.26794" height="0.376281" fill="#FFFDFB"/>
<rect x="270.036" y="355.976" width="4.89166" height="0.376281" fill="#FFFDFB"/>
<rect x="318.199" y="356.164" width="4.89166" height="0.376281" fill="#FFFDFB"/>
<rect x="298.257" y="356.164" width="5.26794" height="0.376281" fill="#FFFDFB"/>
<path d="M302.773 353.154H287.722L288.91 356.164H301.387L302.773 353.154Z" fill="#C8B7A6"/>
<rect x="290.731" y="353.154" width="9.03075" height="3.01025" fill="#FFFDFB"/>
<rect x="287.722" y="352.401" width="15.0512" height="0.752562" fill="#FFFDFB"/>
<rect x="264.392" y="359.526" width="6.0205" height="13.7587" fill="#839BB7"/>
<rect x="322.716" y="359.526" width="6.39678" height="13.7587" fill="#839BB7"/>
<rect x="303.148" y="359.526" width="15.4275" height="13.7587" fill="#839BB7"/>
<rect x="274.551" y="359.526" width="13.1698" height="13.7587" fill="#839BB7"/>
<circle cx="281.136" cy="366.415" r="3.33217" fill="#6D8095"/>
<rect x="280.966" y="363.065" width="0.33935" height="6.68185" fill="#53657A"/>
<circle cx="310.862" cy="366.415" r="3.33217" fill="#6D8095"/>
<rect x="310.692" y="363.065" width="0.33935" height="6.68185" fill="#53657A"/>
<rect x="287.722" y="356.164" width="15.4275" height="17.1208" fill="#FFFDFB"/>
<rect x="291.483" y="356.541" width="7.52562" height="11.4766" fill="#839BB7"/>
<rect x="270.412" y="356.164" width="4.13909" height="17.1208" fill="#FFFDFB"/>
<rect x="318.576" y="356.352" width="4.13909" height="16.9327" fill="#FFFDFB"/>
<path d="M234.075 373.777L237.099 379.306C237.384 379.827 237.931 380.151 238.525 380.151H239.987C240.517 380.151 241.014 379.892 241.318 379.458L245.124 374.022C245.521 373.455 245.115 372.676 244.423 372.676C243.808 372.676 243.394 372.046 243.638 371.482L245.183 367.9C245.601 366.931 244.89 365.851 243.835 365.851C243.385 365.851 242.96 365.644 242.682 365.291L240.459 362.463C239.764 361.58 238.404 361.652 237.806 362.603L236.109 365.3C235.893 365.643 235.517 365.851 235.111 365.851C234.306 365.851 233.738 366.641 233.994 367.405L235.433 371.695C235.595 372.177 235.236 372.676 234.728 372.676C234.163 372.676 233.804 373.281 234.075 373.777Z" fill="#73AD9A"/>
<path d="M225.685 378.27L229.558 385.396C229.842 385.919 230.39 386.245 230.986 386.245H233.233C233.765 386.245 234.263 385.984 234.567 385.548L239.417 378.576C239.909 377.869 239.403 376.901 238.542 376.901C237.777 376.901 237.261 376.119 237.563 375.415L239.611 370.635C240.071 369.563 239.284 368.37 238.118 368.37H237.718C237.218 368.37 236.746 368.139 236.438 367.745L233.276 363.698C232.582 362.81 231.216 362.881 230.618 363.838L228.215 367.681C227.948 368.11 227.478 368.37 226.973 368.37C225.974 368.37 225.268 369.349 225.584 370.297L227.379 375.681C227.579 376.281 227.132 376.901 226.5 376.901C225.797 376.901 225.35 377.653 225.685 378.27Z" fill="#9AB7A3"/>
<path d="M242.422 375.079L244.447 378.883C244.729 379.414 245.281 379.745 245.882 379.745H246.368C246.906 379.745 247.408 379.479 247.711 379.035L250.286 375.256C250.564 374.848 250.272 374.294 249.778 374.294C249.338 374.294 249.04 373.846 249.21 373.441L250.333 370.768C250.622 370.079 250.116 369.318 249.369 369.318C249.043 369.318 248.736 369.166 248.538 368.908L247.39 367.407C246.696 366.501 245.309 366.573 244.714 367.546L243.874 368.917C243.722 369.166 243.451 369.318 243.159 369.318C242.589 369.318 242.186 369.874 242.363 370.416L243.4 373.595C243.513 373.94 243.256 374.294 242.893 374.294C242.49 374.294 242.232 374.723 242.422 375.079Z" fill="#9AB7A3"/>
<g clip-path="url(#clip5_221_16019)">
<path d="M174.121 360.825L160.042 362.091L161.046 368.316L171.016 368.39L174.121 360.825Z" stroke="#1D1D1B" stroke-width="0.0924427" stroke-miterlimit="10"/>
<path d="M162.958 372.961C163.49 372.961 163.922 372.537 163.922 372.014C163.922 371.491 163.49 371.067 162.958 371.067C162.425 371.067 161.993 371.491 161.993 372.014C161.993 372.537 162.425 372.961 162.958 372.961Z" fill="#1D1D1B"/>
<path d="M172.795 372.014C172.795 371.46 172.338 371.011 171.774 371.011C171.209 371.011 170.752 371.46 170.752 372.014C170.752 372.569 171.209 373.018 171.774 373.018C172.338 373.018 172.795 372.569 172.795 372.014Z" fill="#1D1D1B"/>
<path d="M160.042 362.091L161.046 368.316L171.016 368.39L174.121 360.828L160.042 362.091ZM169.348 363.123L169.548 362.116C169.602 361.846 169.891 361.604 170.191 361.576L170.602 361.534C170.902 361.502 171.091 361.705 171.023 361.983L170.77 363.018C170.702 363.295 170.42 363.534 170.141 363.551L169.762 363.576C169.484 363.593 169.298 363.39 169.351 363.119L169.348 363.123ZM169.702 363.842L170.077 363.821C170.355 363.804 170.523 364.018 170.455 364.295L170.202 365.33C170.134 365.607 169.873 365.835 169.616 365.839L169.269 365.846C169.016 365.849 168.851 365.635 168.905 365.365L169.105 364.358C169.159 364.088 169.426 363.86 169.702 363.842ZM167.647 363.246L167.78 362.277C167.815 362.018 168.09 361.783 168.391 361.755L168.801 361.712C169.101 361.681 169.309 361.874 169.255 362.141L169.066 363.141C169.016 363.407 168.748 363.639 168.469 363.656L168.09 363.681C167.812 363.698 167.612 363.502 167.647 363.246ZM168.051 363.941L168.426 363.919C168.701 363.902 168.887 364.105 168.837 364.376L168.648 365.376C168.598 365.642 168.351 365.863 168.094 365.867H167.747C167.494 365.877 167.315 365.67 167.351 365.411L167.483 364.442C167.519 364.183 167.773 363.962 168.048 363.944L168.051 363.941ZM165.954 362.442C165.972 362.193 166.229 361.969 166.533 361.937L166.944 361.895C167.244 361.863 167.465 362.049 167.433 362.305L167.315 363.267C167.283 363.523 167.029 363.748 166.751 363.765L166.372 363.79C166.094 363.807 165.879 363.621 165.897 363.372L165.961 362.442H165.954ZM162.893 362.302L163.304 362.26C163.604 362.228 163.854 362.397 163.857 362.635L163.872 363.523C163.875 363.762 163.654 363.965 163.371 363.983L162.993 364.007C162.714 364.025 162.471 363.853 162.453 363.625L162.382 362.769C162.364 362.541 162.593 362.33 162.893 362.302ZM160.771 363.748L160.635 362.93C160.599 362.712 160.814 362.509 161.114 362.481L161.525 362.439C161.825 362.407 162.089 362.569 162.11 362.797L162.193 363.646C162.214 363.874 162.003 364.07 161.725 364.088L161.346 364.112C161.067 364.13 160.81 363.969 160.774 363.748H160.771ZM161.074 365.572L160.939 364.755C160.903 364.537 161.096 364.344 161.374 364.33L161.75 364.309C162.028 364.291 162.268 364.463 162.289 364.691L162.371 365.541C162.393 365.769 162.203 365.955 161.95 365.958L161.603 365.965C161.349 365.969 161.114 365.793 161.074 365.576V365.572ZM162.175 367.828L161.864 367.814C161.635 367.804 161.417 367.618 161.382 367.4L161.246 366.583C161.21 366.365 161.385 366.183 161.635 366.183H161.978C162.232 366.176 162.453 366.358 162.475 366.586L162.557 367.435C162.578 367.663 162.41 367.839 162.178 367.828H162.175ZM162.535 364.677C162.518 364.449 162.725 364.249 163.003 364.235L163.379 364.214C163.657 364.197 163.882 364.376 163.886 364.614L163.9 365.502C163.904 365.741 163.7 365.934 163.446 365.937L163.1 365.944C162.846 365.948 162.625 365.765 162.603 365.537L162.532 364.681L162.535 364.677ZM163.529 367.884L163.218 367.87C162.989 367.86 162.786 367.667 162.768 367.439L162.696 366.583C162.678 366.355 162.868 366.165 163.118 366.165H163.461C163.714 366.158 163.922 366.351 163.925 366.586L163.939 367.474C163.943 367.712 163.761 367.895 163.529 367.884ZM165.34 367.516C165.325 367.762 165.129 367.955 164.897 367.944L164.586 367.93C164.357 367.919 164.168 367.719 164.168 367.481V366.59C164.164 366.351 164.368 366.155 164.618 366.155H164.961C165.215 366.148 165.408 366.348 165.393 366.593L165.343 367.516H165.34ZM165.454 365.456C165.44 365.702 165.222 365.905 164.968 365.909H164.622C164.368 365.919 164.161 365.726 164.157 365.488V364.597C164.154 364.358 164.375 364.151 164.654 364.137L165.029 364.116C165.304 364.098 165.518 364.288 165.504 364.534L165.454 365.456ZM165.036 363.877L164.657 363.902C164.379 363.919 164.15 363.741 164.15 363.502V362.611C164.147 362.372 164.39 362.155 164.69 362.123L165.1 362.081C165.4 362.049 165.636 362.228 165.622 362.474L165.572 363.397C165.558 363.642 165.322 363.856 165.04 363.877H165.036ZM166.894 366.597L166.776 367.558C166.744 367.814 166.533 368.014 166.301 368.004L165.99 367.99C165.761 367.979 165.586 367.769 165.604 367.523L165.668 366.593C165.686 366.344 165.904 366.141 166.154 366.137H166.497C166.751 366.13 166.926 366.337 166.894 366.597ZM166.522 365.888H166.176C165.922 365.898 165.729 365.698 165.743 365.449L165.808 364.519C165.826 364.27 166.065 364.056 166.34 364.039L166.715 364.018C166.99 364 167.19 364.197 167.158 364.453L167.04 365.414C167.008 365.67 166.776 365.884 166.522 365.888ZM168.416 366.6L168.226 367.6C168.176 367.867 167.948 368.077 167.719 368.067L167.408 368.053C167.179 368.042 167.019 367.825 167.054 367.565L167.187 366.597C167.222 366.337 167.455 366.126 167.708 366.123H168.051C168.305 366.116 168.466 366.334 168.416 366.6ZM169.884 366.607L169.63 367.642C169.562 367.919 169.319 368.137 169.091 368.126L168.78 368.112C168.551 368.102 168.408 367.877 168.458 367.607L168.658 366.6C168.712 366.33 168.959 366.112 169.212 366.109H169.555C169.809 366.102 169.955 366.326 169.887 366.604L169.884 366.607ZM171.423 366.611L171.098 367.684C171.013 367.972 170.755 368.197 170.523 368.186L170.212 368.172C169.984 368.162 169.855 367.926 169.927 367.649L170.195 366.604C170.266 366.323 170.53 366.095 170.78 366.095H171.123C171.377 366.088 171.509 366.319 171.423 366.607V366.611ZM172.149 364.214L171.824 365.288C171.738 365.576 171.459 365.811 171.206 365.814L170.859 365.821C170.605 365.825 170.455 365.604 170.527 365.323L170.795 364.277C170.866 363.997 171.148 363.758 171.427 363.744L171.802 363.723C172.077 363.705 172.234 363.926 172.145 364.214H172.149ZM172.545 362.891C172.459 363.179 172.163 363.425 171.881 363.442L171.502 363.467C171.223 363.484 171.055 363.274 171.127 362.993L171.395 361.948C171.466 361.667 171.77 361.418 172.07 361.386L172.481 361.344C172.781 361.312 172.956 361.523 172.87 361.811L172.545 362.884V362.891Z" fill="white"/>
<path d="M173.899 361.273L173.542 361.195C173.549 361.164 173.713 360.448 174.482 359.711C175.039 359.178 175.935 358.901 175.975 358.887L176.085 359.23C176.085 359.23 175.232 359.497 174.739 359.967C174.053 360.623 173.903 361.266 173.899 361.269V361.273Z" fill="white"/>
<path d="M173.414 371.189H160.725V370.828H173.046V368.86L170.97 368.302L171.066 367.954L173.414 368.586V371.189Z" fill="white"/>
<path d="M178.851 359.025C178.851 359.26 178.654 359.453 178.415 359.453H176.089C175.85 359.453 175.653 359.26 175.653 359.025C175.653 358.79 175.85 358.597 176.089 358.597H178.415C178.654 358.597 178.851 358.79 178.851 359.025Z" fill="#1D1D1B"/>
</g>
<rect x="379.844" y="338.651" width="31.0488" height="45.878" fill="#5875B8"/>
<path d="M358.527 356.261H379.844V365.53H366.405L358.527 356.261Z" fill="#5A3A40"/>
<path d="M349.259 365.53L358.527 356.261L366.405 365.53H349.259Z" fill="#D79774"/>
<rect x="366.405" y="365.53" width="13.439" height="19" fill="#839BB7"/>
<rect x="349.259" y="365.53" width="17.1463" height="19" fill="#D46436"/>
<path d="M345.401 379.983L347.576 384.018C347.899 384.618 348.526 384.993 349.208 384.993H349.656C350.265 384.993 350.835 384.693 351.181 384.191L353.953 380.174C354.258 379.733 353.941 379.13 353.405 379.13C352.928 379.13 352.605 378.643 352.792 378.204L354.001 375.359C354.32 374.609 353.77 373.778 352.955 373.778C352.604 373.778 352.272 373.615 352.057 373.337L350.873 371.81C350.082 370.788 348.513 370.87 347.832 371.968L346.978 373.346C346.812 373.615 346.519 373.778 346.203 373.778C345.582 373.778 345.142 374.386 345.337 374.976L346.46 378.37C346.583 378.745 346.305 379.13 345.91 379.13C345.473 379.13 345.193 379.598 345.401 379.983Z" fill="#9AB7A3"/>
<path fill-rule="evenodd" clip-rule="evenodd" d="M348.503 60.0438C374.747 60.0438 396.003 81.451 396.003 107.883C396.003 134.315 374.747 155.768 348.503 155.768C322.258 155.768 301.003 134.315 301.003 107.883C301.003 81.451 322.258 60.0438 348.503 60.0438Z" fill="#FBE27E"/>
<path fill-rule="evenodd" clip-rule="evenodd" d="M344.77 62.0176C367.89 62.0176 386.632 80.8893 386.632 104.178C386.632 127.466 367.894 146.334 344.77 146.334C321.651 146.334 302.909 127.462 302.909 104.174C302.909 80.8857 321.651 62.0176 344.77 62.0176Z" fill="#FCEF89"/>
<path fill-rule="evenodd" clip-rule="evenodd" d="M339.739 67.3673C358.619 67.3673 373.86 82.7199 373.86 101.685C373.86 120.653 358.616 136.052 339.739 136.052C320.905 136.052 305.665 120.653 305.665 101.685C305.661 82.7199 320.905 67.3673 339.739 67.3673Z" fill="#FAF396"/>
<path fill-rule="evenodd" clip-rule="evenodd" d="M-25.5856 87.4417C-22.6699 85.2711 -18.8978 84.5611 -15.375 85.5556C-15.8032 83.3851 -14.8764 81.1793 -13.0988 79.865C-11.3211 78.5833 -8.93648 78.4424 -6.97998 79.51C-7.19406 78.2662 -6.625 77.0549 -5.55733 76.4154C-4.48966 75.7759 -3.10223 75.8464 -2.14295 76.6295C-3.88537 73.2503 -2.60633 69.0881 0.737593 67.2372C4.04629 65.3864 8.24381 66.5246 10.2003 69.798C9.80738 67.5922 11.0187 65.3864 13.1161 64.5681C15.1782 63.7145 17.5981 64.3892 18.8799 66.24C18.9856 61.6496 21.2645 57.3464 24.9634 54.6772C28.6976 51.9728 33.5021 51.1544 37.911 52.4714C39.4772 49.9459 42.5014 48.7373 45.4172 49.4473C48.2977 50.1599 50.3978 52.6503 50.6471 55.6365C54.4192 53.5743 59.0774 54.1054 62.3509 56.9182C65.5891 59.7635 66.7272 64.3188 65.1962 68.3374C66.4048 67.3782 68.1119 67.3402 69.3585 68.267C70.6023 69.191 71.0657 70.863 70.4614 72.2856C72.9165 68.4079 77.824 66.8795 82.0946 68.6572C86.3274 70.4348 88.6768 75.0253 87.6444 79.5073C89.2106 77.8354 91.663 77.3368 93.7631 78.2256C95.8633 79.1496 97.1423 81.285 96.9634 83.5612C103.367 79.7539 111.512 80.5371 117.062 85.5529C118.983 83.1683 122.292 82.5288 124.994 83.9514C127.698 85.4093 128.977 88.5392 128.088 91.4576C131.397 88.7532 135.738 87.6503 139.936 88.4687C144.169 89.2871 147.797 91.9183 149.862 95.6552C152.602 92.7746 156.834 91.8831 160.498 93.4846C168.218 96.8638 168.004 106.186 158.647 107.82C155.553 108.389 152.35 107.57 149.859 105.614C149.61 107.998 148.044 109.99 145.841 110.844C143.6 111.662 141.109 111.163 139.367 109.562C138.584 115.431 134.28 120.198 128.517 121.585C122.788 122.973 116.778 120.697 113.363 115.86C112.545 118.315 110.448 120.163 107.884 120.626C105.323 121.125 102.725 120.198 101.017 118.242C92.6928 126.138 79.8157 126.672 70.8516 119.523C68.7162 121.515 65.6216 122.049 62.9904 120.911C60.3212 119.773 58.5436 117.177 58.5083 114.293C55.3785 118.67 49.9344 120.732 44.7072 119.523C39.4772 118.315 35.4938 114.079 34.605 108.779C32.5076 111.944 28.806 113.651 25.0366 113.226C21.2672 112.762 18.0642 110.237 16.7825 106.679C13.1892 111.09 7.42544 113.082 1.87572 111.8C-3.674 110.519 -7.9772 106.18 -9.22371 100.63C-12.2479 103.655 -16.5511 105.007 -20.7486 104.224C-29.8915 102.525 -33.6257 93.49 -25.5856 87.4417Z" fill="#FFFEEA"/>
<path fill-rule="evenodd" clip-rule="evenodd" d="M-25.5853 87.4419C-22.6695 85.2713 -18.8975 84.5614 -15.3747 85.5559C-15.8028 83.3853 -14.8761 81.1795 -13.0984 79.8652C-11.3208 78.5835 -8.93614 78.4426 -6.97965 79.5103C-7.19372 78.2664 -6.62466 77.0552 -5.55699 76.4156C-4.48932 75.7761 -3.10189 75.8466 -2.14261 76.6297C-3.88503 73.2506 -2.60599 69.0883 0.73793 67.2375C4.04663 65.3867 8.24415 66.5248 10.2006 69.7982C9.80772 67.5924 11.019 65.3866 13.1164 64.5683C15.1786 63.7147 17.5985 64.3894 18.8802 66.2402C18.9859 61.6498 21.2648 57.3466 24.9638 54.6774C28.6979 51.973 33.5024 51.1547 37.9113 52.4716C39.4776 49.9461 42.5017 48.7375 45.4175 49.4475C48.298 50.1601 50.3982 52.6505 50.6475 55.6367C54.4195 53.5745 59.0777 54.1057 62.3512 56.9184C65.5894 59.7638 66.7276 64.319 65.1965 68.3376C66.4051 67.3784 68.1123 67.3404 69.3588 68.2672C70.6026 69.1912 71.066 70.8632 70.4617 72.2859C72.9168 68.4081 77.8243 66.8798 82.095 68.6574C86.3277 70.435 88.6771 75.0255 87.6447 79.5075C89.211 77.8356 91.6634 77.337 93.7635 78.2258C95.8636 79.1498 97.1426 81.2852 96.9638 83.5614C103.367 79.7541 111.513 80.5373 117.063 85.5532C118.984 83.1685 122.292 82.529 124.994 83.9517C127.699 85.4095 128.978 88.5394 128.089 91.4579C131.398 88.7535 135.739 87.6506 139.936 88.4689C144.169 89.2873 147.797 91.9185 149.862 95.6554C152.602 92.7748 156.835 91.8833 160.498 93.4848C163.842 94.9427 165.693 97.5414 165.978 100.137C164.52 97.2569 161.674 95.3709 158.471 95.1216C155.233 94.9075 152.139 96.4033 150.326 99.0698C149.366 97.078 147.656 95.5822 145.559 94.9075C143.462 94.23 141.183 94.4441 139.261 95.4765C137.695 93.2003 134.993 91.9538 132.219 92.2383C129.444 92.5228 127.059 94.3005 125.994 96.864C124.856 93.2355 122.081 90.317 118.523 88.9675C114.93 87.5801 110.946 87.9351 107.673 89.8916C106.391 87.4365 103.725 86.0491 100.985 86.442C98.2455 86.8322 96.0397 88.8971 95.5059 91.6015C95.5059 88.3632 93.7987 85.3391 90.9886 83.7051C88.2138 82.0683 84.7642 82.0331 81.9541 83.5994C81.7048 80.8245 79.358 78.7244 76.548 78.7976C73.7731 78.8328 71.5321 81.0386 71.3885 83.8134C71.3532 80.1498 69.077 76.8763 65.6626 75.5593C62.2835 74.2424 58.4057 75.1339 55.9154 77.8356C56.021 70.1857 49.9754 63.9261 42.3608 63.712C34.7489 63.4627 28.3456 69.4026 27.9879 77.0172C26.4596 73.6381 22.7227 71.8225 19.0943 72.714C15.4658 73.5676 12.9755 76.9115 13.1544 80.6104C9.63158 77.906 5.04384 77.0524 0.811098 78.3342C-3.45687 79.578 -6.83603 82.8162 -8.29662 87.0138C-12.2096 85.9461 -16.4424 87.2631 -19.0411 90.3929C-23.5584 89.0055 -28.3249 91.3522 -29.9617 95.799C-30.211 92.9916 -28.894 89.9675 -25.5853 87.4419Z" fill="white"/>
<path fill-rule="evenodd" clip-rule="evenodd" d="M165.551 103.057C164.663 105.298 162.386 107.184 158.65 107.824C155.555 108.393 152.352 107.575 149.862 105.618C149.612 108.003 148.046 109.995 145.843 110.848C143.602 111.667 141.112 111.168 139.369 109.566C138.586 115.436 134.283 120.202 128.519 121.59C122.791 122.977 116.78 120.701 113.366 115.864C112.547 118.319 110.45 120.167 107.886 120.631C105.326 121.129 102.727 120.202 101.02 118.246C92.6952 126.142 79.8181 126.676 70.854 119.528C68.7187 121.519 65.6241 122.053 62.9928 120.915C60.3236 119.777 58.546 117.181 58.5108 114.298C55.3809 118.674 49.9369 120.736 44.7096 119.528C39.4797 118.319 35.4962 114.084 34.6074 108.783C32.51 111.948 28.8084 113.656 25.039 113.23C21.2697 112.767 18.0667 110.241 16.7849 106.683C13.1917 111.095 7.42789 113.086 1.87817 111.805C-3.67155 110.523 -7.97475 106.185 -9.22127 100.635C-12.2454 103.659 -16.5486 105.011 -20.7461 104.228C-25.2987 103.374 -28.5017 100.705 -29.5693 97.505C-26.9002 99.9601 -23.3096 101.169 -19.6812 100.849C-16.0527 100.529 -12.744 98.6783 -10.5382 95.7978C-6.37595 100.635 0.737331 101.702 6.14614 98.2881C8.42239 100.673 11.5875 102.06 14.8962 102.095C18.2049 102.131 21.4052 100.778 23.7193 98.3965C29.8029 104.16 38.5177 106.258 46.5577 103.911C50.6848 107.539 56.0909 109.317 61.5349 108.821C67.0142 108.358 72.0301 105.691 75.4445 101.421C74.412 103.662 71.9949 105.903 68.2932 108.144C71.5315 112.306 76.5121 114.691 81.7394 114.653C87.0046 114.618 91.95 112.162 95.1503 107.965C96.8223 110.74 99.6676 112.555 102.906 112.91C106.106 113.265 109.274 112.092 111.515 109.745C115.322 112.983 120.623 113.837 125.246 111.951C129.871 110.03 133.072 105.689 133.464 100.711C133.714 103.093 132.755 105.762 130.549 108.751C134.462 110.138 138.803 108.466 140.83 104.838C142.112 106.046 143.924 106.545 145.632 106.084C147.339 105.656 148.691 104.377 149.225 102.705C151.252 105.052 154.205 106.439 157.3 106.512C160.427 106.58 163.416 105.336 165.551 103.057Z" fill="#F8F6D7"/>
<path fill-rule="evenodd" clip-rule="evenodd" d="M224.91 180.912C221.712 185.162 216.333 187.082 211.178 185.841C193.196 181.514 204.443 160.898 220.884 166.73C221.56 160.033 225.397 154.052 231.192 150.59C237.023 147.166 244.133 146.716 250.303 149.387C249.701 144.572 252.484 139.944 257.037 138.288C261.628 136.594 266.743 138.325 269.377 142.389C278.068 133.737 291.497 131.932 302.18 137.95C302.555 133.136 305.453 128.846 309.78 126.702C314.107 124.521 319.259 124.782 323.36 127.378C327.424 123.203 333.293 121.32 339.01 122.3C344.727 123.278 349.618 127.04 352.063 132.307C354.169 129.41 357.82 128.132 361.279 129.035C364.703 129.975 367.222 132.909 367.598 136.483C372.79 135.127 378.281 136.182 382.645 139.268C387.01 142.354 389.792 147.243 390.245 152.548C396.604 148.785 404.728 149.84 409.921 155.067C420.002 165.263 413.382 180.949 398.521 180.723C393.291 180.648 388.362 178.316 384.941 174.364C386.482 180.497 382.909 186.741 376.854 188.546C370.796 190.352 364.402 187.079 362.296 181.136C359.362 183.958 355.261 185.162 351.275 184.408C347.289 183.655 343.901 181.024 342.208 177.336C337.617 182.451 331.186 185.463 324.337 185.649C317.491 185.838 310.831 183.205 305.98 178.387C304.401 181.207 301.014 182.451 297.967 181.359C294.921 180.267 293.116 177.109 293.718 173.948C290.408 179.026 285.066 182.488 279.045 183.428C273.027 184.368 266.895 182.674 262.192 178.8C259.332 180.795 255.796 181.471 252.412 180.72C249.025 179.929 246.13 177.786 244.399 174.777C243.27 178.766 240.261 181.886 236.31 183.127C232.395 184.371 228.105 183.546 224.91 180.912Z" fill="#FFFEEA"/>
<path fill-rule="evenodd" clip-rule="evenodd" d="M202.073 175.871C202.787 169.438 210.877 163.194 220.884 166.73C221.56 160.033 225.397 154.052 231.191 150.59C237.023 147.166 244.133 146.716 250.303 149.387C249.701 144.572 252.483 139.944 257.037 138.288C261.628 136.594 266.743 138.325 269.376 142.389C278.068 133.737 291.497 131.932 302.18 137.95C302.555 133.136 305.452 128.846 309.78 126.702C314.107 124.521 319.259 124.782 323.36 127.378C327.424 123.203 333.292 121.32 339.009 122.3C344.726 123.278 349.618 127.04 352.063 132.307C354.169 129.41 357.82 128.132 361.279 129.035C364.703 129.975 367.222 132.909 367.597 136.483C372.79 135.127 378.281 136.182 382.645 139.268C387.009 142.354 389.792 147.243 390.245 152.548C396.604 148.785 404.728 149.84 409.92 155.067C414.586 159.806 415.675 165.675 414.021 170.604C414.474 166.429 412.405 162.403 408.754 160.296C405.106 158.19 400.59 158.454 397.168 160.898C391.488 154.502 382.611 151.983 374.409 154.502C373.168 147.278 368.351 141.148 361.62 138.288C354.848 135.428 347.099 136.182 341.041 140.32C338.671 135.468 333.593 132.608 328.212 133.058C322.833 133.548 318.316 137.233 316.812 142.426C313.915 139.603 309.665 138.701 305.865 140.093C302.065 141.486 299.394 144.948 299.019 148.971C295.784 144.945 290.743 142.764 285.55 143.102C280.358 143.478 275.695 146.338 272.984 150.777C269.374 147.73 264.445 146.676 259.931 147.994C255.378 149.309 251.767 152.846 250.337 157.362C245.296 155.218 239.576 155.293 234.613 157.588C229.61 159.884 225.847 164.171 224.193 169.401C216.181 166.842 207.415 169.361 202.073 175.871Z" fill="white"/>
<path fill-rule="evenodd" clip-rule="evenodd" d="M224.91 180.913C221.712 185.163 216.333 187.083 211.178 185.842C206.587 184.75 203.916 182.569 202.75 180.048C209.183 183.959 217.497 182.529 222.311 176.738C226.337 178.469 230.963 178.394 234.952 176.511C238.938 174.669 241.95 171.207 243.265 166.995C246.95 171.396 253.197 172.712 258.387 170.155C254.401 168.313 251.578 166.281 249.999 164.097C257.711 172.147 270.125 173.428 279.304 167.181C281.146 168.76 283.631 169.402 286.038 168.912C288.408 168.384 290.402 166.731 291.38 164.51C294.54 171.055 301.914 174.48 308.949 172.674C311.207 174.932 314.365 176.059 317.563 175.646C320.724 175.271 323.544 173.425 325.163 170.642C325.839 174.179 328.848 176.775 332.425 176.924C335.998 177.073 339.196 174.743 340.173 171.282C346.306 176.059 354.995 175.72 360.714 170.453C357.29 169.098 354.47 166.579 352.777 163.344C356.614 168.009 362.219 170.866 368.2 171.282C374.218 171.734 380.164 169.703 384.64 165.676C390.019 174.216 400.063 178.618 409.995 176.738C407.213 179.219 403.261 180.801 398.521 180.727C393.291 180.652 388.362 178.32 384.941 174.368C386.483 180.5 382.909 186.745 376.854 188.55C370.796 190.355 364.403 187.083 362.296 181.139C359.362 183.962 355.261 185.166 351.275 184.412C347.289 183.658 343.902 181.028 342.208 177.34C337.617 182.455 331.187 185.467 324.338 185.653C317.492 185.842 310.832 183.208 305.98 178.391C304.401 181.211 301.014 182.455 297.968 181.363C294.921 180.271 293.116 177.113 293.718 173.952C290.408 179.03 285.066 182.492 279.046 183.432C273.028 184.372 266.895 182.678 262.193 178.804C259.333 180.798 255.796 181.475 252.412 180.724C249.025 179.933 246.131 177.789 244.4 174.781C243.271 178.77 240.262 181.89 236.31 183.131C232.395 184.372 228.105 183.547 224.91 180.913Z" fill="#F8F6D7"/>
<path fill-rule="evenodd" clip-rule="evenodd" d="M-27.6924 171.085C-31.5995 174.947 -37.6417 175.446 -42.1405 172.31C-46.6393 169.22 -48.2277 163.316 -46.0026 158.364C-43.7324 153.367 -38.2335 150.73 -32.918 152.049C-34.4165 147.688 -32.5996 142.871 -28.6026 140.556C-24.6056 138.237 -19.515 139.102 -16.4731 142.556C-12.6561 134.469 -4.56866 129.291 4.33549 129.247C13.2846 129.202 21.4171 134.334 25.2791 142.376C28.1411 137.787 33.4566 135.334 38.8171 136.154C44.1326 136.971 48.4929 140.878 49.9014 146.103C54.8536 142.241 61.7125 142.106 66.848 145.695C73.9354 150.647 74.0704 162.05 71.3918 169.365C69.9834 173.137 67.2114 176.318 63.4878 178.225C57.4005 181.315 50.0398 180.225 45.0427 175.591C45.496 182.588 40.8623 188.901 34.0484 190.537C27.2344 192.219 20.237 188.721 17.4201 182.27C16.33 186.087 12.9213 188.766 8.92428 188.949C4.97226 189.129 1.33862 186.724 -0.114841 183.042C-4.93201 187.267 -11.791 188.357 -17.6948 185.814C-23.6055 183.263 -27.5125 177.491 -27.6924 171.085Z" fill="#F8F6D7"/>
<path fill-rule="evenodd" clip-rule="evenodd" d="M-46.8197 164.953C-47.1831 162.773 -46.9546 160.502 -46.003 158.367C-43.7328 153.37 -38.2339 150.733 -32.9184 152.052C-34.4169 147.691 -32.6 142.874 -28.603 140.559C-24.606 138.24 -19.5154 139.105 -16.4735 142.559C-12.6565 134.472 -4.56907 129.295 4.33509 129.25C13.2842 129.205 21.4167 134.337 25.2787 142.379C28.1407 137.79 33.4562 135.337 38.8167 136.157C44.1322 136.974 48.4925 140.881 49.901 146.106C54.8531 142.244 61.7121 142.109 66.8476 145.698C70.3913 148.197 72.2081 152.287 72.7999 156.692C70.6647 152.014 66.0309 148.968 60.8988 148.833C55.7633 148.743 50.9946 151.56 48.6344 156.149C47.136 151.515 43.3639 148.017 38.6852 146.747C34.0064 145.521 29.0093 146.702 25.3756 149.972C25.1922 147.155 22.9671 144.975 20.1501 144.746C17.3782 144.566 14.8346 146.473 14.2913 149.197C11.5644 142.971 5.34215 139.019 -1.42681 139.112C-8.19577 139.247 -14.238 143.473 -16.7365 149.788C-19.0067 147.29 -22.7338 146.788 -25.5507 148.608C-28.3677 150.425 -29.4578 154.014 -28.1393 157.104C-31.4995 154.741 -35.8633 154.287 -39.632 155.879C-43.4559 157.457 -46.1829 160.866 -46.8197 164.953Z" fill="white"/>
<path fill-rule="evenodd" clip-rule="evenodd" d="M-27.6931 171.086C-31.6002 174.948 -37.6424 175.446 -42.1412 172.311C-42.8229 171.857 -43.4147 171.311 -43.958 170.767C-40.5043 172.131 -36.6423 172.086 -33.282 170.539C-29.8733 169.04 -27.2848 166.178 -26.0147 162.68C-27.6516 169.947 -23.1528 177.173 -15.9305 178.9C-8.66322 180.627 -1.39248 176.266 0.469337 169.04C0.334373 172.401 -1.39249 175.491 -4.20943 177.353C5.78482 181.852 17.5959 179.305 24.7767 170.992C23.6416 173.581 21.5514 175.626 18.9144 176.671C22.6415 179.17 27.3202 179.941 31.6356 178.761C35.996 177.581 39.6331 174.581 41.5849 170.539C50.2606 177.761 62.9819 177.398 71.2493 169.722C69.7958 173.311 67.1138 176.356 63.4802 178.218C57.3929 181.308 50.0322 180.218 45.0351 175.584C45.4884 182.582 40.8547 188.894 34.0408 190.531C27.2268 192.213 20.2294 188.714 17.4125 182.263C16.3224 186.08 12.9137 188.759 8.91667 188.942C4.96465 189.122 1.33101 186.717 -0.122448 183.035C-4.93962 187.261 -11.7986 188.351 -17.7024 185.807C-23.6062 183.264 -27.5132 177.491 -27.6931 171.086Z" fill="#F3F2D8"/>
<rect width="1115.8" height="8" transform="translate(-9.43945 446.563)" fill="white"/>
<rect x="-9.43945" y="446.363" width="26.6" height="8.4" fill="#2D2D2C"/>
<rect x="43.7607" y="446.363" width="26.6" height="8.4" fill="#2D2D2C"/>
<rect x="96.9604" y="446.363" width="26.6" height="8.4" fill="#2D2D2C"/>
<rect x="150.161" y="446.363" width="26.6" height="8.4" fill="#2D2D2C"/>
<rect x="203.36" y="446.363" width="26.6" height="8.4" fill="#2D2D2C"/>
<rect x="256.561" y="446.363" width="26.6" height="8.4" fill="#2D2D2C"/>
<rect x="309.761" y="446.363" width="26.6" height="8.4" fill="#2D2D2C"/>
<rect x="362.96" y="446.363" width="26.6" height="8.4" fill="#2D2D2C"/>
<rect width="1115.8" height="8" transform="translate(-9.43945 396.251)" fill="white"/>
<rect x="-9.43945" y="396.051" width="26.6" height="8.4" fill="#2D2D2C"/>
<rect x="43.7607" y="396.051" width="26.6" height="8.4" fill="#2D2D2C"/>
<rect x="96.9604" y="396.051" width="26.6" height="8.4" fill="#2D2D2C"/>
<rect x="150.161" y="396.051" width="26.6" height="8.4" fill="#2D2D2C"/>
<rect x="203.36" y="396.051" width="26.6" height="8.4" fill="#2D2D2C"/>
<rect x="256.561" y="396.051" width="26.6" height="8.4" fill="#2D2D2C"/>
<rect x="309.761" y="396.051" width="26.6" height="8.4" fill="#2D2D2C"/>
<rect x="362.96" y="396.051" width="26.6" height="8.4" fill="#2D2D2C"/>
<g opacity="0.3">
<rect x="-10.1396" y="424.651" width="65.8368" height="2.8" fill="#D9D9D9"/>
<rect x="79.4971" y="424.651" width="65.8368" height="2.8" fill="#D9D9D9"/>
<rect x="169.134" y="424.651" width="65.8368" height="2.8" fill="#D9D9D9"/>
<rect x="258.771" y="424.651" width="65.8368" height="2.8" fill="#D9D9D9"/>
<rect x="348.408" y="424.651" width="65.8368" height="2.8" fill="#D9D9D9"/>
</g>
<rect x="-56.0586" y="244.651" width="84.7736" height="209.657" fill="#D46437"/>
<rect x="6.87891" y="309.287" width="43.6712" height="28.9001" fill="#D46437"/>
<rect x="6.87891" y="392.776" width="43.6712" height="28.9001" fill="#D46437"/>
<rect x="6.87891" y="338.829" width="21.8356" height="12.8445" fill="#B8603D"/>
<rect x="6.87891" y="422.318" width="21.8356" height="12.8445" fill="#B8603D"/>
<rect x="6.87891" y="309.287" width="8.34891" height="29.5423" fill="#5A3A40"/>
<rect x="6.87891" y="392.776" width="8.34891" height="29.5423" fill="#5A3A40"/>
<rect x="6.87891" y="299.654" width="21.8356" height="9.63336" fill="#E1B128"/>
<rect x="6.87891" y="383.143" width="21.8356" height="9.63336" fill="#E1B128"/>
<rect x="-41.9297" y="262.404" width="63.5802" height="25.0467" fill="#E1B128"/>
<rect x="-41.9297" y="351.674" width="63.5802" height="25.0467" fill="#E1B128"/>
<rect x="-41.9297" y="435.162" width="63.5802" height="25.0467" fill="#E1B128"/>
</g>
<defs>
<clipPath id="clip0_221_16019">
<rect width="393" height="456" fill="white"/>
</clipPath>
<clipPath id="clip1_221_16019">
<rect width="59.436" height="20" fill="white" transform="matrix(-1 0 0 1 3.43604 205.651)"/>
</clipPath>
<clipPath id="clip2_221_16019">
<rect width="69.2658" height="38" fill="white" transform="translate(65.9414 354.651)"/>
</clipPath>
<clipPath id="clip3_221_16019">
<rect width="22.2274" height="17.3053" fill="white" transform="translate(141.941 359.651)"/>
</clipPath>
<clipPath id="clip4_221_16019">
<rect width="27.7229" height="39" fill="white" transform="translate(44.9414 341.651)"/>
</clipPath>
<clipPath id="clip5_221_16019">
<rect width="18.8583" height="14.4211" fill="white" transform="translate(159.992 358.596)"/>
</clipPath>
</defs>
</svg>
