<svg width="153" height="52" viewBox="0 0 153 52" fill="none" xmlns="http://www.w3.org/2000/svg">
<g clip-path="url(#clip0_380_5384)">
<path d="M58.8401 41.1986H60.9805V49.5058H58.8401V41.1986Z" fill="#5A3A40"/>
<path d="M126.885 41.1934C126.964 41.4306 130.778 48.9972 130.778 48.9972H129.496L124.765 41.1934H126.884H126.885Z" fill="#5A3A40"/>
<path d="M29.8301 26.1404L7.94223 0H0.000218067L9.49138 27.0864L29.8301 26.1404Z" fill="#D56536"/>
<path d="M152.998 33.8791C153.166 36.5312 142.557 40.9237 137.944 41.6052C126.683 43.2696 45.6377 42.9906 43.2619 42.9736C40.887 42.9565 2.96839 29.9277 2.96839 29.9277L2.99483 26.28C2.99483 26.28 3.7242 21.9772 36.4468 21.0439C69.1685 20.1107 122.09 19.8581 129.795 20.5995C135.018 21.1019 140.687 22.9241 143.473 25.3826C146.528 28.0782 147.521 29.1053 148.727 29.6581C150.341 30.3977 152.804 30.8132 152.998 33.8791Z" fill="#E3D7C7"/>
<path d="M146.095 27.7166C144.45 28.4041 142.735 28.8563 141.005 29.1531C139.918 29.34 138.823 29.4662 137.725 29.5524C136.208 29.6718 134.663 29.7144 133.179 29.2785C133.016 29.2308 132.848 29.1736 132.714 29.0516C132.401 28.7693 132.361 28.2421 132.353 27.7806C132.338 26.9224 132.344 26.0642 132.37 25.2077C132.377 24.9842 132.388 24.7479 132.492 24.5628C132.683 24.2233 133.088 24.1977 133.435 24.196C135.574 24.1883 137.706 23.8206 139.751 23.1186C141.237 23.7814 142.522 24.5449 143.472 25.3826C144.583 26.3628 145.419 27.1203 146.094 27.7174L146.095 27.7166Z" fill="#5A3A40"/>
<path d="M143.539 27.9112C143.733 28.1509 143.926 28.3958 144.071 28.6679C144.1 28.7225 144.127 28.7848 144.11 28.8436C144.093 28.8974 144.044 28.9323 143.996 28.9613C143.872 29.0347 143.738 29.0884 143.597 29.12C143.319 28.4973 142.97 27.9061 142.56 27.361C142.153 26.8193 141.687 26.3245 141.215 25.8374C140.475 25.0748 139.718 24.3284 138.945 23.599C138.72 23.3866 138.461 23.1622 138.152 23.1605C138.542 23.1648 138.989 23.123 139.268 23.4113C139.61 23.7645 139.991 24.0827 140.345 24.4239C141.067 25.1209 141.763 25.846 142.428 26.5975C142.809 27.0266 143.18 27.4642 143.541 27.9104L143.539 27.9112Z" fill="#E3D7C7"/>
<path d="M136.036 24.1345C136.245 25.7724 136.412 27.4179 136.743 29.0353C136.79 29.264 136.84 29.4926 136.863 29.7246C136.878 29.8696 136.881 30.0215 136.823 30.1545C136.765 30.2885 136.632 30.3994 136.487 30.3883C136.339 30.3772 136.224 30.2467 136.18 30.1059C136.136 29.9652 136.148 29.8133 136.155 29.6657C136.183 29.0413 136.104 28.4186 136.018 27.7992C135.862 26.6851 135.682 25.5745 135.478 24.468C135.447 24.3008 135.417 24.12 135.49 23.9673C135.666 23.6022 135.998 23.8427 136.036 24.1336L136.036 24.1345Z" fill="#E3D7C7"/>
<path d="M57.6614 35.0018C69.4856 36.3573 81.4311 36.0161 93.3279 35.6732C99.5825 35.4923 105.837 35.3123 112.092 35.1315C123.149 34.8124 134.207 34.4934 145.264 34.1744C147.711 34.1035 150.161 34.0643 152.606 33.9346C152.736 33.9278 152.867 33.9193 153 33.9099C153.082 36.5646 142.54 40.9255 137.946 41.6045C126.684 43.2688 45.6392 42.9899 43.2634 42.9728C40.8885 42.9558 2.96988 29.927 2.96988 29.927L2.99632 26.2793C2.99632 26.2793 3.23091 24.8999 9.37466 23.5333C14.7916 25.1575 20.2265 26.7195 25.6801 28.2157C36.2 31.1025 46.8232 33.7589 57.6614 35.001V35.0018Z" fill="#D56536"/>
<path d="M46.2252 40.1262C48.6829 40.1424 129.871 40.4043 146.096 38.9157C143.212 40.1595 140.091 41.1508 138.094 41.4459C126.833 43.1102 45.7876 42.8313 43.4118 42.8142C41.0369 42.7972 3.11832 29.7684 3.11832 29.7684L3.13709 27.0872C4.0874 27.3926 43.7138 40.11 46.2244 40.1271L46.2252 40.1262Z" fill="#5A3A40"/>
<path d="M150.439 36.3012C150.092 35.4814 149.962 34.5874 149.881 33.7002C149.802 32.83 149.766 31.9463 149.927 31.0881C149.98 30.804 150.069 30.4978 150.191 30.1932C151.527 30.7631 152.857 31.5931 152.998 33.8128C153.05 34.6292 152.079 35.6102 150.578 36.598C150.528 36.5008 150.482 36.4018 150.44 36.3012H150.439Z" fill="#5A3A40"/>
<path d="M30.9341 32.2115H127.519L123.958 30.6137H30.9341V32.2115Z" fill="#D56536"/>
<path d="M3.13742 8.67978L2.02247 5.49786C4.37351 6.26391 6.7126 7.0675 9.03719 7.91117C8.26176 6.81072 7.44282 5.74098 6.58293 4.70537C8.27541 5.29569 9.96788 5.88515 11.6604 6.47547C12.4477 6.75016 13.3221 6.97366 14.1428 7.27735L20.2959 14.6256C17.4117 13.3384 14.3364 12.4051 11.5469 10.9088C12.6448 12.2055 13.7998 13.4535 15.0061 14.6495C11.0888 12.5834 7.1306 10.5941 3.13656 8.67978H3.13742Z" fill="#E3D7C7"/>
<path d="M26.8729 27.2938C26.7458 27.7288 26.1939 27.8423 25.7426 27.879C20.7923 28.2799 15.842 28.6809 10.8908 29.0827C10.4208 29.121 9.93198 29.156 9.4935 28.9846C9.05503 28.8131 8.68481 28.3669 8.76158 27.9029C11.4726 27.2554 14.1836 26.6079 16.8947 25.9605C18.3184 25.6201 19.7499 25.2789 21.2103 25.1816C22.0855 25.1227 27.389 25.5331 26.8729 27.2955V27.2938Z" fill="#F5AF53"/>
<path d="M8.97286 27.8518C9.1085 28.0198 9.29361 28.1555 9.49408 28.2339C9.93255 28.4054 10.4214 28.3704 10.8914 28.332C15.8417 27.9311 20.7929 27.5302 25.7432 27.1284C26.1407 27.096 26.615 27.0038 26.8104 26.6865C26.911 26.8682 26.9392 27.0695 26.8744 27.293C26.7472 27.7281 26.1953 27.8415 25.744 27.8782C20.7937 28.2792 15.8426 28.6801 10.8922 29.0819C10.4222 29.1203 9.93341 29.1553 9.49493 28.9838C9.05646 28.8123 8.68624 28.3662 8.76301 27.9021C8.83296 27.885 8.90291 27.8688 8.97286 27.8518Z" fill="#A6ACAD"/>
<path d="M69.9006 31.1216C69.9305 31.1514 69.9603 31.1813 69.9902 31.2111C70.0106 31.2308 70.026 31.2529 70.0345 31.2794C70.0482 31.305 70.0542 31.3323 70.0525 31.3613C70.0533 31.3903 70.0473 31.4184 70.0345 31.4432C70.026 31.4696 70.0115 31.4927 69.9902 31.5114C69.9757 31.5225 69.9612 31.5336 69.9475 31.5447C69.9143 31.5643 69.8784 31.5737 69.84 31.5737C69.8213 31.5711 69.8025 31.5686 69.7837 31.566C69.7479 31.5558 69.7163 31.5379 69.6899 31.5114C69.66 31.4816 69.6302 31.4517 69.6003 31.4218C69.5798 31.4022 69.5645 31.38 69.556 31.3536C69.5423 31.328 69.5363 31.3007 69.5381 31.2717C69.5372 31.2427 69.5432 31.2154 69.556 31.1898C69.5645 31.1634 69.579 31.1403 69.6003 31.1216C69.6148 31.1105 69.6293 31.0994 69.643 31.0883C69.6762 31.0687 69.7121 31.0593 69.7505 31.0593C69.7692 31.0619 69.788 31.0644 69.8068 31.067C69.8426 31.0772 69.8742 31.0951 69.9006 31.1216Z" fill="#C2CBCE"/>
<path d="M121.317 29.6157C122.01 29.6157 122.572 29.0536 122.572 28.3609V26.9687C122.572 26.2752 122.01 25.7138 121.317 25.7138C120.624 25.7138 120.063 26.276 120.063 26.9687V28.3609C120.063 29.0536 120.625 29.6157 121.317 29.6157Z" fill="#5A3A40"/>
<path d="M115.182 29.6157C115.874 29.6157 116.437 29.0536 116.437 28.3609V26.9687C116.437 26.2752 115.874 25.7138 115.182 25.7138C114.488 25.7138 113.927 26.276 113.927 26.9687V28.3609C113.927 29.0536 114.489 29.6157 115.182 29.6157Z" fill="#5A3A40"/>
<path d="M109.047 29.6157C109.74 29.6157 110.302 29.0536 110.302 28.3609V26.9687C110.302 26.2752 109.74 25.7138 109.047 25.7138C108.354 25.7138 107.792 26.276 107.792 26.9687V28.3609C107.792 29.0536 108.354 29.6157 109.047 29.6157Z" fill="#5A3A40"/>
<path d="M102.912 29.6157C103.606 29.6157 104.167 29.0536 104.167 28.3609V26.9687C104.167 26.2752 103.605 25.7138 102.912 25.7138C102.219 25.7138 101.657 26.276 101.657 26.9687V28.3609C101.657 29.0536 102.219 29.6157 102.912 29.6157Z" fill="#5A3A40"/>
<path d="M96.7774 29.6157C97.4709 29.6157 98.0322 29.0536 98.0322 28.3609V26.9687C98.0322 26.2752 97.4701 25.7138 96.7774 25.7138C96.0847 25.7138 95.5225 26.276 95.5225 26.9687V28.3609C95.5225 29.0536 96.0847 29.6157 96.7774 29.6157Z" fill="#5A3A40"/>
<path d="M90.6416 29.6157C91.3352 29.6157 91.8965 29.0536 91.8965 28.3609V26.9687C91.8965 26.2752 91.3343 25.7138 90.6416 25.7138C89.9481 25.7138 89.3868 26.276 89.3868 26.9687V28.3609C89.3868 29.0536 89.9489 29.6157 90.6416 29.6157Z" fill="#5A3A40"/>
<path d="M84.5069 29.6157C85.2004 29.6157 85.7617 29.0536 85.7617 28.3609V26.9687C85.7617 26.2752 85.1996 25.7138 84.5069 25.7138C83.8142 25.7138 83.252 26.276 83.252 26.9687V28.3609C83.252 29.0536 83.8142 29.6157 84.5069 29.6157Z" fill="#5A3A40"/>
<path d="M78.3711 29.6157C79.0638 29.6157 79.626 29.0536 79.626 28.3609V26.9687C79.626 26.2752 79.0638 25.7138 78.3711 25.7138C77.6776 25.7138 77.1163 26.276 77.1163 26.9687V28.3609C77.1163 29.0536 77.6784 29.6157 78.3711 29.6157Z" fill="#5A3A40"/>
<path d="M72.2373 29.6157C72.93 29.6157 73.4922 29.0536 73.4922 28.3609V26.9687C73.4922 26.2752 72.93 25.7138 72.2373 25.7138C71.5447 25.7138 70.9825 26.276 70.9825 26.9687V28.3609C70.9825 29.0536 71.5447 29.6157 72.2373 29.6157Z" fill="#5A3A40"/>
<path d="M66.1016 29.6157C66.7951 29.6157 67.3564 29.0536 67.3564 28.3609V26.9687C67.3564 26.2752 66.7943 25.7138 66.1016 25.7138C65.4089 25.7138 64.8467 26.276 64.8467 26.9687V28.3609C64.8467 29.0536 65.4089 29.6157 66.1016 29.6157Z" fill="#5A3A40"/>
<path d="M59.9668 29.6157C60.6604 29.6157 61.2217 29.0536 61.2217 28.3609V26.9687C61.2217 26.2752 60.6595 25.7138 59.9668 25.7138C59.2741 25.7138 58.712 26.276 58.712 26.9687V28.3609C58.712 29.0536 59.2741 29.6157 59.9668 29.6157Z" fill="#5A3A40"/>
<path d="M53.8321 29.6157C54.5256 29.6157 55.0869 29.0536 55.0869 28.3609V26.9687C55.0869 26.2752 54.5247 25.7138 53.8321 25.7138C53.1385 25.7138 52.5772 26.276 52.5772 26.9687V28.3609C52.5772 29.0536 53.1394 29.6157 53.8321 29.6157Z" fill="#5A3A40"/>
<path d="M47.6963 29.6157C48.3899 29.6157 48.9512 29.0536 48.9512 28.3609V26.9687C48.9512 26.2752 48.389 25.7138 47.6963 25.7138C47.0036 25.7138 46.4415 26.276 46.4415 26.9687V28.3609C46.4415 29.0536 47.0036 29.6157 47.6963 29.6157Z" fill="#5A3A40"/>
<path d="M41.5625 29.6157C42.2552 29.6157 42.8174 29.0536 42.8174 28.3609V26.9687C42.8174 26.2752 42.2552 25.7138 41.5625 25.7138C40.869 25.7138 40.3077 26.276 40.3077 26.9687V28.3609C40.3077 29.0536 40.8698 29.6157 41.5625 29.6157Z" fill="#5A3A40"/>
<path d="M99.4023 38.0807L70.9587 38.4535L56.1743 27.9003L64.7331 27.5991L99.4023 38.0807Z" fill="#A6ACAD"/>
<path d="M64.7334 27.5993L55.5963 18.91H54.0735L56.1746 27.9004L64.7334 27.5993Z" fill="#D56536"/>
<path d="M99.4025 38.0809C99.4025 38.0809 100.207 38.0203 100.207 37.3105C100.207 36.6008 101.407 35.1822 98.7337 34.254C96.0594 33.3259 65.3338 27.1045 65.3338 27.1045C65.3338 27.1045 56.3485 18.9552 56.1745 18.9091C56.0013 18.8639 55.5961 18.9091 55.5961 18.9091L64.7332 27.5984L99.4017 38.08L99.4025 38.0809Z" fill="#F5AF53"/>
<path d="M81.7823 37.9764C84.3936 37.125 94.3701 37.3374 94.3701 37.3374V49.4995C94.3701 49.4995 84.3936 49.7128 81.7823 48.8606C79.1711 48.0092 76.7791 45.1703 76.7791 45.1703V41.6667C76.7791 41.6667 79.1711 38.8277 81.7823 37.9764Z" fill="#E3D7C7"/>
<path d="M96.4966 39.657C96.5325 39.7722 96.5103 42.3928 96.5009 43.407C96.5111 44.4213 96.5325 47.0419 96.4966 47.1571C96.4523 47.2996 94.37 49.5005 94.37 49.5005V37.3145C94.37 37.3145 96.4523 39.5145 96.4966 39.6578V39.657Z" fill="#F5AF53"/>
<path d="M76.7793 44.0799V41.6666C76.7793 41.6666 77.4301 40.8946 78.4223 40.0356C78.3404 40.1592 78.2602 40.2838 78.1825 40.4109C77.9326 40.8195 77.7014 41.2546 77.646 41.7297C77.5666 42.4164 77.8686 43.0963 78.2747 43.6559C79.6814 45.5958 82.1971 46.3533 84.5652 46.721C85.948 46.936 87.3444 47.0597 88.7417 47.1288C89.9599 47.1893 91.1798 47.2072 92.3997 47.2072C93.0395 47.2072 93.7117 47.1458 94.3711 47.1356V49.4986C94.3711 49.4986 84.3945 49.7118 81.7833 48.8596C79.1721 48.0083 76.7801 45.1693 76.7801 45.1693V44.0791L76.7793 44.0799Z" fill="#C2C5C6"/>
<path d="M89.0544 37.3145H91.5957V49.5005H89.0544V37.3145Z" fill="#D56536"/>
<path d="M92.0305 37.3162H92.5781V49.5227H92.0305V37.3162Z" fill="#D56536"/>
<path opacity="0.49" d="M142.221 25.329C142.533 25.5849 142.843 25.8639 143.014 26.229C143.185 26.5941 143.187 27.0667 142.917 27.3661C142.616 27.7005 142.077 27.715 141.667 27.5299C141.256 27.3448 140.942 27.0036 140.626 26.6828C137.856 23.8771 134.063 22.1036 130.133 21.7777C129.423 21.7189 128.707 21.7052 128.002 21.5986C127.875 21.5798 127.731 21.5448 127.672 21.4314C127.602 21.2975 127.702 21.1251 127.84 21.062C127.978 20.9997 128.137 21.0151 128.287 21.033C130.242 21.2608 132.317 21.3674 134.179 21.9995C135.042 22.2921 136.003 22.3186 136.888 22.566C137.803 22.8219 138.693 23.1657 139.542 23.5922C140.495 24.0708 141.396 24.6525 142.221 25.329Z" fill="white"/>
<path opacity="0.49" d="M119.416 21.4782C119.209 21.4594 118.946 21.3835 118.935 21.1762C118.922 20.9296 119.265 20.858 119.511 20.8716C121.484 20.9851 123.455 20.7096 125.412 20.7872C125.94 20.8085 126.754 21.3204 125.828 21.4995C124.888 21.682 123.812 21.613 122.855 21.6172C121.707 21.6232 120.559 21.5797 119.416 21.4773V21.4782Z" fill="white"/>
<path d="M130.379 51.4784C129.292 51.4784 128.411 50.5977 128.411 49.5113C128.411 48.4248 129.292 47.5441 130.379 47.5441C131.465 47.5441 132.346 48.4248 132.346 49.5113C132.346 50.5977 131.465 51.4784 130.379 51.4784Z" fill="#434549"/>
<path d="M129.303 49.469C129.303 50.0806 129.8 50.5771 130.411 50.5771C131.023 50.5771 131.52 50.0815 131.52 49.469C131.52 48.8565 131.023 48.3608 130.411 48.3608C129.8 48.3608 129.303 48.8565 129.303 49.469Z" fill="#E3D7C7"/>
<path d="M57.4844 49.002C57.4844 50.3729 58.5959 51.4845 59.9668 51.4845C61.3377 51.4845 62.4492 50.3729 62.4492 49.002C62.4492 47.6312 61.3377 46.5196 59.9668 46.5196C58.5959 46.5196 57.4844 47.6312 57.4844 49.002Z" fill="#434549"/>
<path d="M60.0081 50.3458C59.2359 50.3458 58.6099 49.7198 58.6099 48.9476C58.6099 48.1754 59.2359 47.5495 60.0081 47.5495C60.7803 47.5495 61.4062 48.1754 61.4062 48.9476C61.4062 49.7198 60.7803 50.3458 60.0081 50.3458Z" fill="#E3D7C7"/>
</g>
<defs>
<clipPath id="clip0_380_5384">
<rect width="153" height="51.484" fill="white" transform="matrix(-1 0 0 1 153 0)"/>
</clipPath>
</defs>
</svg>
