<svg width="134" height="92" viewBox="0 0 134 92" fill="none" xmlns="http://www.w3.org/2000/svg">
<g clip-path="url(#clip0_134_5764)">
<path d="M6.75261 59.3356H4.41357V61.9392H6.75261V59.3356Z" fill="#E69917"/>
<path d="M32.0371 39.5113L39.6976 40.9063C40.2448 41.0085 40.7679 40.6417 40.8701 40.0946L40.8882 39.9923C40.9904 39.4452 40.6236 38.922 40.0764 38.8198L32.4159 37.4248L32.0371 39.5113Z" fill="#1B1C20"/>
<path d="M13.229 71.323L11.8535 71.3861L12.0635 75.9572L13.439 75.894L13.229 71.323Z" fill="#C3C5C8"/>
<path d="M19.3586 75.3582L15.0762 76.9704L15.5613 78.2591L19.8438 76.6469L19.3586 75.3582Z" fill="#C3C5C8"/>
<path d="M15.0371 80.1492L13.9614 81.0089L16.8181 84.5835L17.8938 83.7239L15.0371 80.1492Z" fill="#C3C5C8"/>
<path d="M10.8568 80.3457L8.33984 84.1672L9.4898 84.9246L12.0067 81.1031L10.8568 80.3457Z" fill="#C3C5C8"/>
<path d="M6.11838 75.9675L5.75342 77.2952L10.1656 78.5081L10.5306 77.1803L6.11838 75.9675Z" fill="#C3C5C8"/>
<path d="M8.89891 78.7988C9.00113 80.9936 10.8591 82.6952 13.0599 82.593C15.2546 82.4908 16.9563 80.6328 16.8541 78.432C16.7518 76.2313 14.8938 74.5356 12.6931 74.6379C10.4984 74.7401 8.79669 76.5981 8.89891 78.7988Z" fill="#C3C5C8"/>
<path d="M0 78.5764C0 85.6476 5.73035 91.3779 12.8016 91.3779C19.8728 91.3779 25.6032 85.6476 25.6032 78.5764C25.6032 71.5051 19.8728 65.7748 12.8016 65.7748C5.73035 65.7748 0 71.5051 0 78.5764ZM6.31361 78.5764C6.31361 74.9926 9.21787 72.0824 12.8076 72.0824C16.3973 72.0824 19.3016 74.9926 19.3016 78.5764C19.3016 82.1601 16.3973 85.0704 12.8076 85.0704C9.21787 85.0704 6.31361 82.1601 6.31361 78.5764Z" fill="#1B1C20"/>
<path d="M5.14111 78.5761C5.14111 82.8093 8.57451 86.2427 12.8076 86.2427C17.0408 86.2427 20.4742 82.8093 20.4742 78.5761C20.4742 74.343 17.0408 70.9096 12.8076 70.9096C8.57451 70.9096 5.14111 74.343 5.14111 78.5761ZM6.3858 78.5761C6.3858 75.0285 9.25999 72.1543 12.8076 72.1543C16.3553 72.1543 19.2295 75.0285 19.2295 78.5761C19.2295 82.1238 16.3553 84.998 12.8076 84.998C9.25999 84.998 6.3858 82.1238 6.3858 78.5761Z" fill="#98989C"/>
<path d="M12.3149 78.8001L12.5374 78.9324C12.9222 79.1548 13.4153 79.0286 13.6378 78.6437L18.7007 70.0332L17.0892 69.0891L12.0263 77.6997C11.8038 78.0845 11.9301 78.5776 12.3089 78.8001H12.3149Z" fill="#EDEEEF"/>
<path d="M32.2103 42.5254L14.604 72.4628L16.9934 73.8681L34.5997 43.9306L32.2103 42.5254Z" fill="#FEB329"/>
<path d="M18.3519 57.6997C27.8524 57.6997 29.8607 69.3648 29.8607 76.5563C29.8186 76.5984 29.7946 76.6285 29.7465 76.6706H26.1808C25.0263 76.6706 24.0101 75.8588 23.7997 74.7224C22.9098 69.8579 18.7969 66.9236 13.7039 66.9236H0.673828V65.5166C2.19511 62.8408 7.55867 57.6937 18.3519 57.6937V57.6997Z" fill="#FAC657"/>
<path d="M24.9121 73.6948C25.1285 74.8854 26.1988 75.3243 27.4074 75.3243H29.8427C29.8547 75.7332 29.8607 76.1481 29.8607 76.563C29.8186 76.6051 29.7946 76.6352 29.7465 76.6773H26.1808C25.0263 76.6773 24.0101 75.8655 23.7997 74.7291C22.9098 69.8646 18.7969 66.9303 13.7039 66.9303H0.673828V65.5232H14.3353C19.6688 65.5232 23.9801 68.5898 24.9121 73.6948Z" fill="white"/>
<path d="M22.4766 42.0844H16.8726V49.5946H22.4766V42.0844Z" fill="#E69917"/>
<path d="M16.4755 50.0037H16.0245C15.4172 50.0037 14.9302 49.5166 14.9302 48.9093V42.7641C14.9302 42.1568 15.4172 41.6697 16.0245 41.6697H16.4755C16.698 41.6697 16.8724 41.8501 16.8724 42.0666V49.6068C16.8724 49.8293 16.692 50.0037 16.4755 50.0037Z" fill="#1B1C20"/>
<path d="M92.4911 54.9768H117.884V49.1442H92.4911C91.2284 49.1442 90.2002 50.1724 90.2002 51.4351V52.6858C90.2002 53.9485 91.2284 54.9768 92.4911 54.9768Z" fill="#1B1C20"/>
<path d="M117.193 25.2003L111.318 52.0301L117.013 53.2748L122.887 26.4449C123.158 25.2063 122.376 23.9856 121.138 23.7151L119.917 23.4505C118.678 23.1799 117.458 23.9616 117.187 25.2003H117.193Z" fill="#1B1C20"/>
<path d="M39.024 81.1085H54.3871C56.6359 81.1085 58.8727 80.7958 61.0374 80.1764L66.5212 78.6071V73.4119H32.3315V74.404C32.3315 78.102 35.332 81.1024 39.03 81.1024L39.024 81.1085Z" fill="#1B1C20"/>
<path d="M101.174 78.5175H36.4084C35.729 78.5175 35.1758 77.9643 35.1758 77.2849V76.7918H101.174V78.5175Z" fill="#1B1C20"/>
<path d="M108.323 81.0069C108.588 81.0069 108.804 80.7905 108.804 80.5259C108.804 80.2613 108.588 80.0449 108.323 80.0449H100.085C99.9831 80.0449 87.7527 79.4316 81.3128 77.5134C81.0603 77.4353 80.7957 77.5796 80.7176 77.8321C80.6394 78.0847 80.7837 78.3492 81.0362 78.4274C87.5844 80.3816 99.5562 80.9769 100.061 81.0009H108.317L108.323 81.0069Z" fill="black"/>
<path d="M108.323 82.1067C108.588 82.1067 108.804 81.8902 108.804 81.6256C108.804 81.3611 108.588 81.1446 108.323 81.1446H100.086C100.032 81.1446 92.1305 80.7537 85.7086 79.6113C85.4501 79.5692 85.1975 79.7376 85.1554 79.9961C85.1073 80.2547 85.2817 80.5072 85.5403 80.5493C92.0283 81.7038 99.9834 82.0946 100.062 82.1006H108.317L108.323 82.1067Z" fill="black"/>
<path d="M87.3887 78.6046L87.085 81.0572L87.8965 81.1577L88.2003 78.7051L87.3887 78.6046Z" fill="black"/>
<path d="M97.9692 80.5613H106.207C106.736 80.5373 118.702 79.942 125.256 77.9878C125.509 77.9096 125.653 77.645 125.575 77.3925C125.496 77.14 125.232 76.9956 124.979 77.0738C118.54 78.9979 106.303 79.5992 106.183 79.6053H97.9692C97.7046 79.6053 97.4941 79.8157 97.4941 80.0803C97.4941 80.3448 97.7106 80.5613 97.9692 80.5613Z" fill="black"/>
<path d="M124.925 76.8212H123.338V78.7273H124.925V76.8212Z" fill="black"/>
<path d="M32.3076 63.087H35.2179C37.148 63.087 39 63.6462 40.371 64.6384L49.631 71.3609V75.4377H32.3076V63.087Z" fill="#E69917"/>
<path d="M65.5111 56.1367H49.5166V73.8509H65.5111V56.1367Z" fill="#E69917"/>
<path d="M65.5111 60.4715H49.5166V61.7583H65.5111V60.4715Z" fill="#1B1C20"/>
<path d="M89.3166 69.6596H65.5293V73.8927H89.3166V69.6596Z" fill="#E69917"/>
<path d="M62.3903 52.4867L64.4287 37.5986C64.555 36.6846 65.3366 35.9991 66.2566 35.9991H67.339C68.5476 35.9991 69.4736 37.0634 69.3112 38.26L66.5513 58.4094H46.9971C46.4259 58.4094 45.9629 57.9464 45.9629 57.3752V54.8317C45.9629 54.3687 46.3357 53.9959 46.7987 53.9959H60.6586C61.5304 53.9959 62.27 53.3525 62.3903 52.4867Z" fill="#1B1C20"/>
<path d="M35.5545 40.8164C33.5642 40.5879 32.5901 40.9426 32.9328 38.4713C33.0831 37.395 33.492 37.0402 34.1234 36.8538C35.5725 36.4329 36.9916 36.2405 37.9115 36.3427C41.351 36.7336 45.8667 36.4269 51.8255 36.8117C52.0721 36.8298 53.1544 36.2826 53.3468 35.6031C55.2048 29.1091 58.7585 24.4731 58.7585 24.4731L63.6891 26.5356C61.3801 33.3904 57.3274 36.5291 54.6937 40.6781C54.5254 40.9426 52.7275 41.7183 47.9111 40.9126C40.5212 39.6739 40.3227 38.6998 37.9236 38.3871C36.5105 38.778 36.3001 38.327 36.0235 38.4833C35.5966 38.7239 35.5665 39.4454 35.5665 39.4995C35.5665 40.1369 36.3422 40.1549 36.3482 40.1549C36.3482 40.1549 36.6368 40.9366 35.5545 40.8164Z" fill="#805C4A"/>
<path d="M53.335 35.0678C53.335 35.0678 57.8687 37.5692 58.909 38.2848C60.779 35.3805 63.2443 29.6862 63.581 28.4175C64.1162 26.4092 63.8456 24.4008 62.1379 23.6432C60.4303 22.8856 58.6444 23.9559 58.2596 24.5812C57.8747 25.2066 54.3692 30.8287 53.335 35.0739V35.0678Z" fill="#C9AC8F"/>
<path d="M64.3203 15.1588C64.4345 14.1847 63.8813 13.1505 62.9613 13.2948C62.7509 13.3309 62.5525 13.4211 62.3781 13.5594C61.9151 12.447 61.2597 11.7916 60.484 11.4969C58.9627 10.9137 56.0404 11.7976 56.0404 11.7976C56.0404 11.7976 55.3249 13.6135 55.391 14.0524C55.4572 14.4914 56.0825 14.4854 55.824 15.1528C55.5654 15.8202 54.6695 16.9627 54.6695 16.9627C54.3147 17.4257 54.3808 17.7745 54.5733 17.9308C54.6875 18.027 54.904 18.0871 55.2828 18.0751C55.7578 18.5561 55.1445 18.7846 55.5353 19.2356C55.7458 19.4761 55.7458 19.7347 55.6135 20.0233C55.4752 20.3119 55.1806 21.755 57.4294 21.725C57.9405 21.719 58.4576 21.6288 58.9507 21.4724L59.6241 24.5992L64.9576 23.8055L63.4664 16.8906C63.8753 16.6079 64.218 15.9585 64.3143 15.1528L64.3203 15.1588Z" fill="#9D6F58"/>
<path d="M59.1017 11.1785C59.1017 11.1785 59.3122 11.9241 59.4505 12.2007C59.5888 12.4773 60.3404 12.8802 60.5629 13.9144C60.6711 14.4075 60.4727 15.4898 60.184 16.5541C59.9255 17.5222 60.16 18.4241 60.4246 18.3459C61.104 18.1475 61.6512 17.8709 61.7294 17.5101C61.8496 16.963 61.6933 16.2354 61.7053 15.8145C61.7474 14.5397 62.2285 13.9565 62.4569 13.7881C62.9079 13.4634 63.5994 13.259 63.9842 13.9144C64.6697 15.0869 63.2507 16.9149 63.2807 17.5703C63.3108 18.2257 63.431 20.2941 63.5393 20.5407C63.5994 20.679 63.7437 20.7632 63.894 20.7391C64.4713 20.6669 65.8062 20.4024 65.5476 19.5906C64.6336 16.7645 66.3052 13.8182 64.345 11.8519C63.413 10.9199 59.4445 10.5231 59.0957 11.1665L59.1017 11.1785Z" fill="#1B1C20"/>
<path d="M57.8263 7.80514C56.4313 8.3403 55.7218 9.30838 55.6136 10.505C55.5234 11.5272 55.7939 11.8098 55.9984 11.894C56.7079 12.1946 57.9766 12.2728 59.4558 12.1886C60.003 12.8681 62.8291 12.7959 63.1658 12.838C63.9175 12.9342 64.3624 13.6738 64.5188 15.2191C64.5909 15.9106 63.8573 19.1516 64.0377 19.4583C64.1941 19.7228 64.3684 20.733 65.2283 20.3542C65.9077 20.0535 65.3666 18.8269 66.2625 15.3033C67.3388 11.0702 65.8416 8.46657 62.9915 7.71495C60.1473 6.96934 58.4517 7.55861 57.8323 7.79913L57.8263 7.80514Z" fill="#1B1C20"/>
<path d="M49.8111 55.0245L48.9873 46.6725C48.9873 46.6725 53.7917 46.2576 53.8819 45.7465C55.9323 36.5106 53.8578 36.0597 56.0706 29.0546C57.183 25.5249 57.8564 25.4107 61.0794 22.1336C62.7931 20.3839 67.1765 22.8071 66.936 27.7918C66.6113 34.5263 64.0798 45.4038 63.7251 48.747C63.1659 54.0444 60.2736 53.9542 57.5918 54.5615C55.0664 55.1328 50.1117 55.0907 49.8051 55.0245H49.8111Z" fill="#9D6F58"/>
<path d="M33.9375 75.1264C31.4361 75.0362 30.5221 74.3266 30.6003 73.5991C30.6905 72.7212 32.8251 73.088 36.1142 71.8854C36.9139 71.5907 38.2428 71.3322 39.3552 71.0496C38.2788 64.4654 35.5429 61.501 33.9495 53.9728C33.6849 52.7221 33.727 50.1004 34.8635 49.4029C36.3487 48.489 36.9259 48.1823 38.1405 47.7854C40.5818 46.9917 43.8228 46.5407 56.0592 46.1259L56.0351 54.8146C51.9102 54.9829 44.1174 55.1754 40.1128 54.4839C42.5059 58.4163 40.4555 60.3044 43.1734 69.6065C43.8468 71.9034 43.9911 72.2522 43.7627 73.8757C43.5041 75.6976 42.1392 75.1264 39.4093 74.8979C36.1502 74.6213 36.4449 75.2226 33.9435 75.1324L33.9375 75.1264Z" fill="#9D6F58"/>
<path d="M60.0154 54.8266C63.4067 54.4658 63.7254 50.6055 63.7254 50.6055L56.0589 46.1259C43.6842 46.4506 40.5996 46.7211 38.1884 47.5088C36.9737 47.9057 36.18 48.4408 34.6948 49.3488C33.5644 50.0463 33.6907 52.7161 33.9552 53.9668C35.4825 61.1583 37.5811 64.8562 38.7476 70.8511C40.1726 70.5685 43.3114 71.1939 44.6222 72.2221C43.5399 67.9469 42.2832 59.2582 40.9182 54.8146C45.3799 55.3918 55.5959 55.3016 60.0214 54.8266H60.0154Z" fill="#D8BC98"/>
<path d="M64.7833 22.1037C64.0558 22.0195 62.9915 22.1999 62.4443 22.4705C61.5784 22.9034 60.1774 23.2221 59.2394 23.4566C57.8624 24.7253 56.281 26.2526 55.3129 29.1869C53.972 33.2517 54.6816 35.3502 52.3125 43.161C52.1802 43.606 51.9457 45.6564 51.4346 46.2998C53.7135 46.1675 58.0368 47.6407 61.3139 49.7633C62.9434 50.8216 63.6168 51.946 63.8092 52.1204C63.8694 51.7836 64.4045 50.3706 64.3444 48.7771C64.158 43.5218 66.7315 34.5084 67.0562 27.7739C67.1825 25.0921 66.1904 23.0537 64.7773 22.1037H64.7833Z" fill="#E2C59A"/>
<path d="M37.3889 41.2791C35.3926 41.0506 34.4305 41.4054 34.665 38.9341C34.7672 37.8577 35.1641 37.503 35.7834 37.3166C37.2145 36.8957 38.6275 36.7033 39.5475 36.8055C43.005 37.1963 47.5087 36.8897 53.4856 37.2745C53.7321 37.2925 54.7904 36.7453 54.9527 36.0659C56.5221 29.5719 59.8713 24.9359 59.8713 24.9359L64.8921 26.9983C61.7594 37.7014 59.2099 37.7375 56.925 41.1047C56.7506 41.3633 54.604 42.1811 49.7515 41.3753C42.3075 40.1367 42.0669 39.1626 39.6557 38.8499C38.2607 39.2407 38.0262 38.7898 37.7617 38.9461C37.3468 39.1866 37.3468 39.9082 37.3468 39.9623C37.3708 40.5997 38.1525 40.6177 38.1525 40.6177C38.1525 40.6177 38.4772 41.3994 37.3889 41.2731V41.2791Z" fill="#9D6F58"/>
<path d="M54.9102 35.5315C54.9102 35.5315 59.5522 38.0329 60.6225 38.7484C62.3662 35.8442 64.579 30.1499 64.8616 28.8812C65.3066 26.8728 64.9518 24.8645 63.208 24.1069C61.4643 23.3492 59.7265 24.4195 59.3718 25.0449C59.017 25.6702 55.758 31.2924 54.9102 35.5375V35.5315Z" fill="#E8CCA7"/>
<path d="M38.2124 71.0072C38.2124 71.0072 38.7115 72.4142 40.347 72.5044C41.9826 72.5946 43.5219 72.6427 44.1172 72.5044C44.1172 73.232 43.9368 74.4105 43.8887 74.5909C43.8406 74.7713 43.8406 75.4087 43.8406 75.4087C43.8406 75.4087 42.4335 75.547 40.6657 75.547C39.3489 75.547 38.3026 75.3185 36.625 75.4989C34.9474 75.6793 31.2675 75.09 30.7684 74.9998C30.2693 74.9096 30.2753 74.4165 30.3174 74.164C30.5399 73.9596 30.3595 73.3222 30.588 73.1418C30.8165 72.9614 32.7647 72.6427 34.3581 72.1437C35.9516 71.6446 37.3526 71.1455 38.2184 71.0072H38.2124Z" fill="#39373A"/>
<path d="M65.1986 22.615C65.1565 21.9235 64.7476 20.8111 64.7476 20.8111C64.7476 20.8111 63.5811 20.8111 62.1019 21.1358C61.0497 21.3643 59.6847 21.9235 59.4141 22.0618C59.1917 22.9878 59.1436 24.3227 59.1436 24.3227C59.1436 24.3227 60.2199 23.2163 62.144 22.7052C63.515 22.3444 64.6514 22.3384 65.1926 22.615H65.1986Z" fill="#D8BC98"/>
<path d="M114.276 12.1529C114.384 11.1968 113.669 10.373 112.773 10.5173C112.568 10.5474 112.376 10.6436 112.202 10.7819C111.751 9.69357 111.107 9.05018 110.35 8.76156C108.858 8.19033 105.996 9.05619 105.996 9.05619C105.996 9.05619 105.293 10.83 105.359 11.2629C105.425 11.6959 105.87 11.9244 105.641 12.3573C105.311 12.9766 104.649 14.1131 104.649 14.1131C104.301 14.5701 104.367 14.9068 104.553 15.0631C104.667 15.1593 104.974 15.2195 105.341 15.2014C105.509 15.3397 105.407 15.9531 105.407 15.9531C105.407 15.9531 106.7 16.0793 107.289 15.911C107.067 16.7167 105.599 16.7889 105.599 16.7889C105.599 16.7889 105.497 18.4665 107.103 18.5026C107.608 18.5146 108.215 18.5086 108.786 18.5507L109.496 21.5932L114.721 20.8115L113.693 15.466C113.831 14.4077 114.174 12.9346 114.27 12.1469L114.276 12.1529Z" fill="#FFBF8F"/>
<path d="M112.761 5.53216C109.977 4.8046 108.167 5.27962 107.559 5.51412C106.194 6.03725 105.611 7.25187 105.569 7.79304C105.497 8.7972 105.731 9.14595 105.924 9.24817C106.657 9.65104 107.884 9.52477 109.327 9.4466C109.508 9.59091 110.055 10.4868 110.337 10.9679C110.427 11.1182 110.403 11.8398 110.494 12.8199C110.53 13.2528 111.215 13.2047 111.227 12.9942C111.311 11.7496 111.486 11.3166 111.708 11.1543C112.147 10.8356 112.989 11.0521 113.031 11.8037C113.091 13.0604 113.031 14.1127 113.512 15.3273C113.536 15.3874 113.783 15.5798 113.825 15.1168C113.825 15.0687 113.927 14.6959 114.119 14.2149C114.306 13.7338 114.793 13.355 115.148 12.5553C116.789 8.88739 115.545 6.25973 112.755 5.53216H112.761Z" fill="#A55F38"/>
<path d="M99.7066 51.658L98.8828 43.306C98.8828 43.306 103.687 42.8911 103.777 42.38C105.828 33.1441 103.753 32.6932 105.966 25.6881C107.078 22.1585 107.535 21.8217 110.975 18.7671C112.665 17.2639 116.928 19.8495 116.687 24.8342C116.362 31.5687 113.981 42.0433 113.627 45.3805C113.067 50.6779 110.337 51.0507 107.656 51.658C105.13 52.2293 100.013 51.7242 99.7066 51.658Z" fill="#FFB37A"/>
<path d="M77.9761 71.7594C75.5228 71.6693 74.5307 70.9778 74.4946 70.2682C74.4585 69.4084 76.5871 69.7692 79.6236 68.5966C80.1889 68.3802 81.0487 68.1757 81.8905 67.9773C82.3716 67.8631 82.7143 67.4902 82.7804 66.9972C83.6042 60.9782 83.045 55.4343 83.6463 50.7502C83.8027 49.5476 83.4359 47.3468 84.434 46.6674C85.7448 45.7775 92.7499 43.8774 104.626 43.4685L105.942 52.0911C102.004 52.5661 94.151 52.9148 90.1283 51.6882C90.8198 57.5147 88.2102 59.2044 87.4706 66.1554C87.23 68.4162 87.3683 68.9574 87.3804 70.5388C87.3924 72.3126 85.9793 71.7594 83.2795 71.531C80.0626 71.2604 80.4354 71.8496 77.9821 71.7594H77.9761Z" fill="#FFB37A"/>
<path d="M82.9362 66.5756C83.2549 66.8041 82.7017 68.127 84.3071 68.4697C86.9228 69.0349 87.488 67.6159 87.4699 68.614C87.506 69.2153 87.8428 69.6963 87.8187 70.9771C87.8187 71.1575 87.8788 71.7768 87.8788 71.7768C87.8788 71.7768 86.5259 71.9091 84.7942 71.9091C83.5074 71.9091 82.4612 71.6866 80.8497 71.867C79.2322 72.0414 75.5402 71.6024 75.0412 71.5123C74.5421 71.4221 74.3076 70.8208 74.3136 70.5742C74.3557 70.1172 74.2655 69.7204 74.8487 69.4077C75.0833 69.2814 76.6887 69.0048 78.204 68.59C81.3728 67.7241 82.6115 66.3471 82.9302 66.5756H82.9362Z" fill="#D8DADC"/>
<path d="M74.2656 71.7535C71.7642 71.6633 70.8502 70.9538 70.9284 70.2262C71.0186 69.3483 73.1532 69.7151 76.4423 68.5125C77.0496 68.29 77.9696 68.0856 78.8595 67.8751C79.3706 67.7549 79.7795 67.376 79.9238 66.871C81.6976 60.7017 81.9802 55.0134 83.3151 50.2151C83.6578 48.9824 83.6218 46.7275 84.7522 46.03C86.2374 45.1161 93.7115 43.1679 105.948 42.753L105.924 51.8806C101.811 52.3677 93.7055 52.7225 89.773 51.4658C89.5806 57.4366 86.6884 58.8797 84.8604 66.0111C84.2652 68.3261 84.3193 68.8853 84.0908 70.5028C83.8322 72.3247 82.4673 71.7535 79.7374 71.525C76.4784 71.2484 76.773 71.8497 74.2716 71.7595L74.2656 71.7535Z" fill="#FFBF8F"/>
<path d="M109.911 51.4537C113.164 50.4255 113.621 47.2326 113.621 47.2326L105.954 42.753C93.5795 43.0777 91.4148 43.9556 88.3302 44.5328C87.0735 44.7673 86.0693 45.068 84.5901 45.9819C83.4597 46.6794 82.4976 51.0448 82.209 53.45C83.0749 54.845 87.338 55.8973 89.635 56.0897C90.5009 54.2798 90.4648 53.0712 91.6313 52.2835C97.3256 53.0772 105.503 52.8487 109.911 51.4597V51.4537Z" fill="#D46436"/>
<path d="M114.733 19.2122C114.336 18.8515 112.773 18.7733 112.183 18.9356C110.548 19.3746 110.067 19.8616 109.135 20.0901C107.758 21.3589 106.02 23.5295 105.052 26.4639C103.711 30.5286 104.577 31.9777 102.208 39.7946C102.076 40.2395 101.841 42.29 101.33 42.9334C103.609 42.8011 107.932 44.2742 111.209 46.3968C112.839 47.4551 113.512 48.5795 113.705 48.7539C113.765 48.4172 114.3 47.0041 114.24 45.4107C114.054 40.1554 116.627 31.1419 116.952 24.4074C117.078 21.7256 115.124 19.579 114.727 19.2182L114.733 19.2122Z" fill="#699A5A"/>
<path d="M80.0445 66.4438C80.3451 66.6783 79.5995 68.0312 81.199 68.386C83.8026 68.9632 84.5722 67.5081 84.4219 68.5363C84.3798 69.1556 84.6564 69.6487 84.464 70.9595C84.4339 71.1459 84.4159 71.7773 84.4159 71.7773C84.4159 71.7773 83.0089 71.9156 81.2411 71.9156C79.9242 71.9156 78.878 71.6871 77.2003 71.8675C75.5227 72.0479 71.7947 71.5969 71.2956 71.5067C70.7965 71.4165 70.6342 70.7972 70.6763 70.5446C70.7845 70.0756 70.7424 69.6667 71.3798 69.348C71.6384 69.2157 73.322 68.9331 74.9335 68.5062C78.3007 67.6163 79.7498 66.2093 80.0505 66.4438H80.0445Z" fill="#EDEEEF"/>
<path d="M66.5148 18.7227H67.6994C68.5051 18.7227 69.2146 18.2417 69.5093 17.4901L73.4237 7.58673L72.3293 7.15379L68.4149 17.0571C68.2946 17.3578 68.012 17.5502 67.6933 17.5502H66.5088V18.7227H66.5148Z" fill="#EDEEEF"/>
<path d="M66.5152 6.34219H64.543V71.2942H66.5152V6.34219Z" fill="#EDEEEF"/>
<path d="M98.1369 39.9798H96.8682V50.0515H98.1369V39.9798Z" fill="#EDEEEF"/>
<path d="M107.445 42.1993H92.2803V43.1614H107.445V42.1993Z" fill="#EDEEEF"/>
<path d="M92.5331 46.2633H101.997V44.9886H92.5331C92.4188 44.9886 92.3226 44.8924 92.3226 44.7781V42.7157C92.3226 41.7236 92.5691 40.99 93.0562 40.539C93.6755 39.9678 94.5053 40.0159 94.5173 40.0159H94.5654H115.527V38.7411H94.5835C94.367 38.7291 93.1524 38.7171 92.1903 39.601C91.4327 40.3045 91.0479 41.3508 91.0479 42.7097V44.7721C91.0479 45.5899 91.7153 46.2573 92.5331 46.2573V46.2633Z" fill="#EDEEEF"/>
<path d="M90.8074 44.7056C89.3523 44.7056 89.226 42.9378 88.9133 40.4724C88.7811 39.4021 89.0877 38.9692 89.6589 38.6505C90.9638 37.929 92.2986 37.4359 93.2246 37.3397C96.6821 36.9729 101.011 35.6982 106.934 34.7842C107.181 34.7481 108.095 33.9845 108.107 33.287C108.239 26.6066 110.5 21.3573 110.5 21.3573L115.851 22.2833C115.112 33.4132 112.628 34.0025 111.119 37.7786C111.005 38.0673 109.087 39.33 104.168 39.5946C96.634 39.9974 96.177 39.1977 93.7538 39.4142C92.4971 40.256 92.1062 40.2921 91.9318 40.3281C91.7214 40.7911 91.4448 41.1158 91.3787 41.5788C91.1983 42.7393 91.3366 43.527 91.3426 43.533C91.3426 43.533 91.3426 44.7056 90.8074 44.7056Z" fill="#FCB681"/>
<path d="M107.944 32.77C107.944 32.77 113.019 34.2071 114.216 34.6701C115.286 31.4592 116.218 25.4222 116.224 24.1174C116.224 22.0609 115.443 20.1729 113.579 19.8121C111.715 19.4453 110.247 20.8704 110.031 21.5558C109.82 22.2413 107.854 28.4407 107.944 32.764V32.77Z" fill="#58BA24"/>
<path d="M112.13 40.9235C109.195 40.9235 106.327 41.8375 103.934 43.5331L96.8387 48.566C94.1569 50.4661 92.2689 53.2801 91.5233 56.479L89.527 65.0535C88.6791 68.6853 85.4502 71.2529 81.7222 71.2529H73.0214C70.6523 71.2529 68.7342 69.3347 68.7342 66.9656V53.226C68.7342 52.6728 68.2832 52.2218 67.73 52.2218H63.3285C62.7753 52.2218 62.3243 52.6728 62.3243 53.226V66.9656C62.3243 69.3347 60.4062 71.2529 58.0371 71.2529H45.7045C41.772 71.2529 38.4228 68.4027 37.7915 64.5244L34.7429 45.7459C34.5144 44.3268 34.5084 42.8777 34.7309 41.4586L34.8151 40.9235H17.9367C17.9126 40.9896 17.8826 41.0798 17.8645 41.152C17.0828 43.7195 17.149 46.5035 18.111 49.065L26.3849 71.2048C27.6416 74.566 30.8525 76.7908 34.4362 76.7908H125.154C126.272 76.7908 127.336 76.2917 128.046 75.4259L129.243 73.9767C130.698 72.2149 131.497 70.0022 131.497 67.7112V40.9175H112.13V40.9235Z" fill="#FEB329"/>
<path d="M18.1411 40.3519C18.2012 40.1956 18.2614 40.0453 18.3215 39.895C18.2554 40.0453 18.1952 40.2016 18.1411 40.3519Z" fill="#FEB329"/>
<path d="M34.8152 40.9242L39.7879 9.39224H35.8014L35.0137 10.7512H35.1339C35.8194 10.7512 36.3125 11.4066 36.12 12.062L28.8684 36.9436C28.5437 38.05 27.5275 38.8137 26.373 38.8137H18.8448C18.478 39.4931 18.1774 40.1966 17.9429 40.9182H34.8212L34.8152 40.9242Z" fill="#5A3A40"/>
<path d="M119.224 83.5368C121.895 76.9908 118.754 69.5186 112.208 66.8473C105.662 64.1759 98.19 67.3169 95.5186 73.8629C92.8472 80.4089 95.9882 87.8811 102.534 90.5525C109.08 93.2239 116.552 90.0829 119.224 83.5368Z" fill="#1B1C20"/>
<path d="M108.611 86.3559C112.84 85.6673 115.709 81.6814 115.02 77.4532C114.332 73.225 110.346 70.3556 106.118 71.0442C101.89 71.7328 99.0201 75.7187 99.7087 79.9469C100.397 84.1751 104.383 87.0445 108.611 86.3559Z" fill="#98989C"/>
<path d="M113.151 80.9652C114.402 77.7745 112.829 74.1738 109.639 72.9228C106.448 71.6718 102.847 73.2441 101.596 76.4348C100.345 79.6254 101.918 83.2261 105.108 84.4771C108.299 85.7282 111.9 84.1558 113.151 80.9652Z" fill="#C3C5C8"/>
<path d="M103.093 78.6914C103.093 81.0545 105.005 82.9666 107.368 82.9666C109.731 82.9666 111.643 81.0545 111.643 78.6914C111.643 76.3283 109.731 74.4162 107.368 74.4162C105.005 74.4162 103.093 76.3283 103.093 78.6914Z" fill="#EDEEEF"/>
<path d="M107.368 60.0511C116.748 60.0511 124.36 66.8517 124.42 76.6769C124.378 76.719 124.354 76.7491 124.306 76.7912H119.959C118.804 76.7912 117.788 75.9854 117.578 74.849C116.688 69.9785 112.454 67.0502 107.362 67.0502C102.269 67.0502 98.0354 69.9785 97.1455 74.849C96.941 75.9854 95.9188 76.7912 94.7644 76.7912H90.3027C90.3027 66.9059 97.9392 60.0511 107.355 60.0511H107.368Z" fill="#FAC657"/>
<path d="M47.9713 76.791H86.797V76.5144C86.797 75.5042 85.9793 74.6865 84.9691 74.6865H47.9713C42.0606 74.6865 39.1864 71.5417 38.05 65.6971C37.5689 63.2077 34.6226 42.9861 34.5865 42.7937H34.4001C33.8229 42.7937 33.3659 43.2868 33.408 43.864C33.7387 48.049 35.5546 64.0315 35.9875 66.2443C37.3825 73.4418 40.6776 76.791 47.9713 76.791Z" fill="#EDEEEF"/>
<path d="M130.596 70.9345H131.907C132.802 70.9345 133.53 70.2069 133.53 69.311V65.5048C133.53 64.6089 132.802 63.8813 131.907 63.8813H130.596V70.9345Z" fill="#EDEEEF"/>
<path d="M26.9624 38.819H18.8389C18.8389 38.819 18.8389 38.819 18.8389 38.813L35.0197 10.7565H35.7293C36.4147 10.7565 36.9078 11.4119 36.7154 12.0673L29.4638 36.9489C29.1391 38.0553 28.1229 38.819 26.9684 38.819H26.9624Z" fill="#8CC8DD"/>
<path d="M18.2014 40.1845H34.9355L34.731 41.4652C34.719 41.5314 34.713 41.6035 34.701 41.6697H17.7144C17.8406 41.1646 18.009 40.6715 18.2014 40.1845Z" fill="#1B1C20"/>
<path d="M115.473 45.488H115.581C116.2 45.488 116.699 44.989 116.699 44.3696V39.3728H114.36V44.3696C114.36 44.989 114.859 45.488 115.479 45.488H115.473Z" fill="#5A3A40"/>
<path d="M117.421 42.686H113.633V43.6481H117.421V42.686Z" fill="#FEB329"/>
<path d="M128.149 45.488H128.257C128.876 45.488 129.375 44.989 129.375 44.3696V39.3728H127.036V44.3696C127.036 44.989 127.535 45.488 128.155 45.488H128.149Z" fill="#5A3A40"/>
<path d="M130.097 42.686H126.309V43.6481H130.097V42.686Z" fill="#FEB329"/>
<path d="M31.4657 54.4052L18.58 54.8081C17.8945 54.8322 17.3232 54.279 17.3232 53.5935V53.4432C17.3232 52.7577 17.8945 52.2045 18.58 52.2285L31.4657 52.6314C31.9407 52.6434 32.3196 53.0343 32.3196 53.5153V53.5333C32.3196 54.0084 31.9407 54.3992 31.4657 54.4173V54.4052Z" fill="#EDEEEF"/>
<path d="M25.5731 47.6162H31.4358C31.7725 47.6162 32.0431 47.8868 32.0431 48.2235V50.3942C32.0431 50.7309 31.7725 51.0015 31.4358 51.0015H25.5731C25.2364 51.0015 24.9658 50.7309 24.9658 50.3942V48.2235C24.9658 47.8868 25.2364 47.6162 25.5731 47.6162Z" fill="#1B1C20"/>
<path d="M31.2857 48.1573H25.7177C25.5616 48.1573 25.4351 48.2838 25.4351 48.4399V50.1836C25.4351 50.3397 25.5616 50.4663 25.7177 50.4663H31.2857C31.4417 50.4663 31.5683 50.3397 31.5683 50.1836V48.4399C31.5683 48.2838 31.4417 48.1573 31.2857 48.1573Z" fill="#F7AF2C"/>
<path d="M3.59619 60.3572L6.4283 60.0325C7.48658 59.9122 8.2863 59.0163 8.2863 57.946V57.4529C8.2863 56.3886 7.48658 55.4867 6.4283 55.3664L3.59619 55.0417V60.3512V60.3572Z" fill="#FEB329"/>
<path d="M3.36718 60.5984H3.05451C2.6336 60.5984 2.29688 60.2556 2.29688 59.8407V55.5715C2.29688 55.1506 2.63961 54.8139 3.05451 54.8139H3.36718C3.51751 54.8139 3.64378 54.9402 3.64378 55.0905V60.3218C3.64378 60.4721 3.51751 60.5984 3.36718 60.5984Z" fill="#1B1C20"/>
<path d="M65.5292 7.65441H102.208C105.714 7.65441 108.66 10.2881 109.051 13.7696L112.13 40.9301H131.497V11.3584C131.497 4.91852 126.152 -0.228576 119.718 0.00592918L64.8919 2.02628C64.6574 2.0323 64.4289 2.06236 64.2004 2.11046L32.933 8.33989C32.5782 8.41205 32.3257 8.71871 32.3257 9.07948V9.38614H39.7878L65.5292 7.64239V7.65441Z" fill="#5A3A40"/>
<path d="M115.215 52.6498H113.177V54.6882H115.215V52.6498Z" fill="#F5AF53"/>
<path d="M117.247 54.6877H115.209V56.7261H117.247V54.6877Z" fill="#F5AF53"/>
<path d="M119.285 52.6498H117.247V54.6882H119.285V52.6498Z" fill="#F5AF53"/>
<path d="M121.318 54.6877H119.279V56.7261H121.318V54.6877Z" fill="#F5AF53"/>
<path d="M123.357 52.6498H121.318V54.6882H123.357V52.6498Z" fill="#F5AF53"/>
<path d="M125.389 54.6877H123.351V56.7261H125.389V54.6877Z" fill="#F5AF53"/>
<path d="M127.427 52.6498H125.389V54.6882H127.427V52.6498Z" fill="#F5AF53"/>
<path d="M129.459 54.6877H127.421V56.7261H129.459V54.6877Z" fill="#F5AF53"/>
<path d="M131.498 52.6498H129.46V54.6882H131.498V52.6498Z" fill="#F5AF53"/>
<path d="M115.215 54.6877H113.177V56.7261H115.215V54.6877Z" fill="black"/>
<path d="M117.247 52.6498H115.209V54.6882H117.247V52.6498Z" fill="black"/>
<path d="M119.285 54.6877H117.247V56.7261H119.285V54.6877Z" fill="black"/>
<path d="M121.318 52.6498H119.279V54.6882H121.318V52.6498Z" fill="black"/>
<path d="M123.357 54.6877H121.318V56.7261H123.357V54.6877Z" fill="black"/>
<path d="M125.389 52.6498H123.351V54.6882H125.389V52.6498Z" fill="black"/>
<path d="M127.427 54.6877H125.389V56.7261H127.427V54.6877Z" fill="black"/>
<path d="M129.459 52.6498H127.421V54.6882H129.459V52.6498Z" fill="black"/>
<path d="M131.498 54.6877H129.46V56.7261H131.498V54.6877Z" fill="black"/>
<path d="M98.9378 52.6496H96.8994V54.688H98.9378V52.6496Z" fill="#F5AF53"/>
<path d="M100.976 54.6877H98.9375V56.7261H100.976V54.6877Z" fill="#F5AF53"/>
<path d="M103.009 52.6498H100.971V54.6882H103.009V52.6498Z" fill="#F5AF53"/>
<path d="M105.047 54.6877H103.009V56.7261H105.047V54.6877Z" fill="#F5AF53"/>
<path d="M107.079 52.6498H105.041V54.6882H107.079V52.6498Z" fill="#F5AF53"/>
<path d="M109.117 54.6877H107.079V56.7261H109.117V54.6877Z" fill="#F5AF53"/>
<path d="M111.151 52.6498H109.112V54.6882H111.151V52.6498Z" fill="#F5AF53"/>
<path d="M113.189 54.6877H111.15V56.7261H113.189V54.6877Z" fill="#F5AF53"/>
<path d="M98.9378 54.6877H96.8994V56.7261H98.9378V54.6877Z" fill="black"/>
<path d="M100.976 52.6498H98.9375V54.6882H100.976V52.6498Z" fill="black"/>
<path d="M103.009 54.6877H100.971V56.7261H103.009V54.6877Z" fill="black"/>
<path d="M105.047 52.6498H103.009V54.6882H105.047V52.6498Z" fill="black"/>
<path d="M107.079 54.6877H105.041V56.7261H107.079V54.6877Z" fill="black"/>
<path d="M109.117 52.6498H107.079V54.6882H109.117V52.6498Z" fill="black"/>
<path d="M111.151 54.6877H109.112V56.7261H111.151V54.6877Z" fill="black"/>
<path d="M113.189 52.6498H111.15V54.6882H113.189V52.6498Z" fill="black"/>
</g>
<defs>
<clipPath id="clip0_134_5764">
<rect width="133.53" height="91.4932" fill="white"/>
</clipPath>
</defs>
</svg>
